<?xml version="1.0" standalone="no"?>
<!DOCTYPE svg PUBLIC "-//W3C//DTD SVG 1.1//EN" "http://www.w3.org/Graphics/SVG/1.1/DTD/svg11.dtd" >
<svg>
<metadata>
Created by FontForge 20090914 at Mon Sep 10 12:26:06 2012
 By www-data
&#194;&#169; 2008 Bernd Montag - feel free to distribute - feel free to use personal and commercial - read attached textfile for restrictions
</metadata>
<defs>
<font id="SansationBold" horiz-adv-x="1235" >
  <font-face 
    font-family="Sansation"
    font-weight="700"
    font-stretch="normal"
    units-per-em="2048"
    panose-1="2 0 0 0 0 0 0 0 0 0"
    ascent="1638"
    descent="-410"
    x-height="1050"
    cap-height="1430"
    bbox="-380 -438 2031 1848"
    underline-thickness="210"
    underline-position="-59"
    unicode-range="U+0020-U+F002"
  />
<missing-glyph horiz-adv-x="1124" 
d="M0 0v1280h1024v-1280h-1024zM32 32h960v1216h-960v-1216z" />
    <glyph glyph-name=".notdef" horiz-adv-x="1124" 
d="M0 0v1280h1024v-1280h-1024zM32 32h960v1216h-960v-1216z" />
    <glyph glyph-name="space" unicode=" " horiz-adv-x="350" 
 />
    <glyph glyph-name="exclam" unicode="!" horiz-adv-x="565" 
d="M265 1430v-1060h-265v1060h265zM265 245v-245h-265v245h265z" />
    <glyph glyph-name="quotedbl" unicode="&#x22;" horiz-adv-x="815" 
d="M370 1430l30 -435h185l30 435h-245zM0 1430l30 -435h185l30 435h-245z" />
    <glyph glyph-name="numbersign" unicode="#" horiz-adv-x="1893" 
d="M703 876l-90 -378h377l90 378h-377zM303 -5l89 349h-392l30 154h402l89 378h-401l30 154h412l100 395h180l-100 -395h378l102 400h180l-101 -400h392l-30 -154h-402l-89 -378h401l-30 -154h-412l-90 -349h-180l90 349h-378l-90 -349h-180z" />
    <glyph glyph-name="dollar" unicode="$" horiz-adv-x="1050" 
d="M30 240v220c116.667 -40 238 -60 364 -60c114 0 171 36.667 171 110c0 60 -41.667 90 -125 90h-110c-233.333 0 -350 113.333 -350 340c0 166.667 106.667 266.667 320 300v190h235v-190c80 -6.66699 161.667 -23.334 245 -50.001v-220c-116.667 40 -231 60 -343 60
c-134.667 0 -202 -36.667 -202 -110c0 -60 38.333 -90 115 -90h110c246.667 0 370 -106.667 370 -320c0 -180 -98.333 -286.667 -295 -320v-190h-235v190c-96.667 6.66699 -186.667 23.334 -270 50.001z" />
    <glyph glyph-name="percent" unicode="%" horiz-adv-x="1502" 
d="M265 0h-265l1017 1430h265zM328 995c89.333 0 134 49 134 147c0 82.667 -44.667 124 -134 124c-92 0 -138 -41.333 -138 -124c0 -98 46 -147 138 -147zM0 1140c0 200 109.333 300 328 300c216 0 324 -100 324 -300c0 -212.667 -108 -319 -324 -319
c-218.667 0 -328 106.333 -328 319zM978 164c89.333 0 134 45.667 134 137c0 89.333 -44.667 134 -134 134c-92 0 -138 -44.667 -138 -134c0 -91.333 46 -137 138 -137zM650 299c0 206.667 109.333 310 328 310c216 0 324 -103.333 324 -310c0 -206 -108 -309 -324 -309
c-218.667 0 -328 103 -328 309z" />
    <glyph glyph-name="ampersand" unicode="&#x26;" horiz-adv-x="1335" 
d="M183 727c-122 -57.333 -183.001 -161.666 -183.001 -312.999c0 -278 175 -417 525 -417c365.333 0 548 164.333 548 493v130h162v210h-182l-102 142h-143v-142h-338c-136.667 0 -205 70 -205 210c0 120 86 180 258 180c114.667 0 230.334 -16.667 347.001 -50v210
c-116.667 33.333 -236.667 50 -360 50c-340 0 -510 -131.667 -510 -395c0 -148.667 61 -251.334 183 -308.001zM807.999 620v-128c0 -188 -94 -282 -282 -282c-174 0 -261 69.667 -261 209c0 134 69 201 207 201h336z" />
    <glyph glyph-name="quotesingle" unicode="'" horiz-adv-x="445" 
d="M0 1430l30 -435h185l30 435h-245z" />
    <glyph glyph-name="parenleft" unicode="(" horiz-adv-x="640" 
d="M200 1430c-133.333 -301.333 -200 -603 -200 -905s66.667 -603.667 200 -905h265c-133.333 301.333 -200 603 -200 905s66.667 603.667 200 905h-265z" />
    <glyph glyph-name="parenright" unicode=")" horiz-adv-x="640" 
d="M-1 1430c133.333 -301.333 200 -603 200 -905s-66.667 -603.667 -200 -905h265c133.333 301.333 200 603 200 905s-66.667 603.667 -200 905h-265z" />
    <glyph glyph-name="asterisk" unicode="*" horiz-adv-x="810" 
d="M227 1430h156l-30 -232l209 101l48 -147l-228 -43l159 -170l-123 -92l-113 205l-113 -204l-124 89l161 171l-230 42l48 150l211 -103z" />
    <glyph glyph-name="plus" unicode="+" horiz-adv-x="950" 
d="M0 630v-210h270v-270h210v270h270v210h-270v270h-210v-270h-270z" />
    <glyph glyph-name="comma" unicode="," horiz-adv-x="615" 
d="M150 185l-150 -435h265l150 435h-265z" />
    <glyph glyph-name="hyphen" unicode="-" horiz-adv-x="700" 
d="M500 630v-210h-500v210h500z" />
    <glyph glyph-name="hyphen" unicode="&#x2010;" horiz-adv-x="700" 
d="M500 630v-210h-500v210h500z" />
    <glyph glyph-name="period" unicode="." horiz-adv-x="465" 
d="M0 245v-245h265v245h-265z" />
    <glyph glyph-name="slash" unicode="/" horiz-adv-x="1060" 
d="M285 0h-285l725 1430h285z" />
    <glyph glyph-name="zero" unicode="0" horiz-adv-x="1375" 
d="M638 220c234.667 0 352 166.333 352 499c0 327.333 -117.333 491 -352 491c-242 0 -363 -163.667 -363 -491c0 -332.667 121 -499 363 -499zM0 713c0 484.667 212.667 727 638 727c418 0 627 -242.333 627 -727c0 -482 -209 -723 -627 -723c-425.333 0 -638 241 -638 723
z" />
    <glyph glyph-name="one" unicode="1" horiz-adv-x="585" 
d="M265 0v1430l-415 -140v-109h150v-1181h265z" />
    <glyph glyph-name="two" unicode="2" horiz-adv-x="1180" 
d="M0 0v200.001c476.667 331.333 715 604.666 715 819.999c0 126.667 -86.667 190 -260 190c-146.667 0 -285 -36.667 -415 -110v240c130 66.667 268.333 100 415 100c350 0 525 -140 525 -420c0 -246.667 -191 -510 -573 -790h573v-230h-980z" />
    <glyph glyph-name="three" unicode="3" horiz-adv-x="1115" 
d="M0 1380c133.333 40 273.333 59.999 420 59.999c356.667 0 535 -130 535 -390c0 -157.333 -62.667 -265.666 -188 -324.999c125.333 -56.667 188 -165 188 -325c0 -273.333 -178.333 -410 -535 -410c-146.667 0 -286.667 20 -420 60v240
c133.333 -46.667 273.333 -70 420 -70c180 0 270 60 270 180c0 140 -64 210 -192 210h-348v230h345c130 0 195 70 195 210c0 106.667 -90 160 -270 160c-146.667 0 -286.667 -23.333 -420 -70v240z" />
    <glyph glyph-name="four" unicode="4" horiz-adv-x="1125" 
d="M868 0h-265v340h-602v230l395 860h264l-386 -860h329v528h265v-528l148 -76v-154h-148v-340z" />
    <glyph glyph-name="five" unicode="5" horiz-adv-x="1175" 
d="M50 1430h894v-230h-656l-24 -272c71.333 8 140 12 206 12c380 0 570 -160 570 -480c0 -313.333 -183.333 -470 -550 -470c-180 0 -336.667 20 -470 60v240c133.333 -46.667 290 -70 470 -70c190 0 285 80 285 240c0 166.667 -101.667 250 -305 250
c-183.333 0 -340 -16.667 -470 -50z" />
    <glyph glyph-name="six" unicode="6" horiz-adv-x="1240" 
d="M0 530c0 310.667 169.333 625.001 508 943.001l201 -157c-171.333 -130.667 -294.333 -270.334 -369 -419.001c67.333 22 132.333 33 195 33c336.667 0 505 -153.333 505 -460c0 -320 -171 -480 -513 -480c-351.333 0 -527 180 -527 540zM536 220.001
c162 0 243 83.333 243 250c0 153.333 -83.667 230 -251 230c-90 0 -175 -12.667 -255 -38c-12 -33.333 -18 -72 -18 -116c0 -217.333 93.667 -326 281 -326z" />
    <glyph glyph-name="seven" unicode="7" horiz-adv-x="1125" 
d="M0 1430h950v-210l-572 -1220h-291l582 1200h-669v230z" />
    <glyph glyph-name="eight" unicode="8" horiz-adv-x="1240" 
d="M0 424c0 148.667 70.667 259 212 331c-114.667 63.333 -172 171 -172 323c0 244 173.333 366 520 366s520 -122 520 -366c0 -152 -59 -259.667 -177 -323c144.667 -72 217 -182.333 217 -331c0 -289.333 -183.333 -434 -550 -434c-380 0 -570 144.667 -570 434zM815 1048
c0 108 -84.333 162 -253 162c-171.333 0 -257 -54 -257 -162c0 -125.333 86.667 -188 260 -188c166.667 0 250 62.667 250 188zM855 418c0 141.333 -97.667 212 -293 212c-198 0 -297 -70.667 -297 -212c0 -132 103.333 -198 310 -198c186.667 0 280 66 280 198z" />
    <glyph glyph-name="nine" unicode="9" horiz-adv-x="1190" 
d="M1040 904c0 -310.667 -169.334 -625 -508.001 -943l-215 165c180.667 125.333 308.334 262.333 383.001 411c-68.667 -42 -140.667 -63 -216 -63c-322.667 0 -484 163.333 -484 490c0 320 177.667 480 533 480c338 0 507 -180 507 -540zM523.999 1214
c-175.333 0 -263 -83.333 -263 -250s77.333 -250 232 -250c102.667 0 194 23 274 69c12 26 18 61 18 105c0 217.333 -87 326 -261 326z" />
    <glyph glyph-name="colon" unicode=":" horiz-adv-x="465" 
d="M0 1050v-245h265v245h-265zM0 245v-245h265v245h-265z" />
    <glyph glyph-name="semicolon" unicode=";" horiz-adv-x="615" 
d="M150 1050v-245h265v245h-265zM150 185l-150 -435h265l150 435h-265z" />
    <glyph glyph-name="less" unicode="&#x3c;" horiz-adv-x="1100" 
d="M0 430v190l900 380v-250l-573 -229l573 -221v-250z" />
    <glyph glyph-name="equal" unicode="=" horiz-adv-x="950" 
d="M0 470v-210h750v210h-750zM0 790v-210h750v210h-750z" />
    <glyph glyph-name="greater" unicode="&#x3e;" horiz-adv-x="1100" 
d="M900 430v190l-900 380v-250l573 -229l-573 -221v-250z" />
    <glyph glyph-name="question" unicode="?" horiz-adv-x="1115" 
d="M150 245v-245h265v245h-265zM0 1380c140 33.333 273.333 50 400 50c343.333 0 515 -130 515 -390c0 -293.333 -166.667 -440 -500 -440v-230h-265v440h265c170 0 255 76.667 255 230c0 120 -90 180 -270 180c-126.667 0 -260 -16.667 -400 -50v210z" />
    <glyph glyph-name="at" unicode="@" horiz-adv-x="2130" 
d="M405 327c0 215.333 142 323 426 323c104.667 0 196 -6.66699 274 -20v69c0 94 -94.333 141 -283 141c-108 0 -218.667 -16.667 -332 -50v210c113.333 33.333 224 50 332 50c365.333 0 548 -112 548 -336v-596c0 -38.667 26.667 -58 80 -58c96.667 0 145 160 145 480
c0 460 -228.667 690 -686 690c-476 0 -714 -230 -714 -690c0 -473.333 215 -710 645 -710v-210c-606.667 0 -910 306.667 -910 920c0 600 321.333 900 964 900c644 0 966 -300 966 -900c0 -460 -149 -690 -447 -690c-200.667 0 -301 74.667 -301 224
c-84.667 -49.333 -188.667 -74 -312 -74c-263.333 0 -395 109 -395 327zM856 450c-127.333 0 -191 -40 -191 -120s53.333 -120 160 -120c108 0 199.667 27.333 275 82v138c-66.667 13.333 -148 20 -244 20z" />
    <glyph glyph-name="A" unicode="A" horiz-adv-x="1562" 
d="M0 0l607 1430h285l620 -1430h-285l-180 390h-458l91 230h297l-234 537l-471 -1157h-272z" />
    <glyph glyph-name="B" unicode="B" horiz-adv-x="1310" 
d="M0 0v1430h670c272 0 408 -111 408 -333c0 -162.667 -88.667 -279 -266 -349c189.333 -35.333 284 -143.666 284 -324.999c0 -282 -149 -423 -447 -423h-649zM638 229.999c117.333 0 176 60 176 180c0 148.667 -87.667 223 -263 223h-80v171
c220 36.667 330 128.667 330 276c0 80 -49.333 120 -148 120h-388v-970h373z" />
    <glyph glyph-name="C" unicode="C" horiz-adv-x="1390" 
d="M1190 300c-123.333 -53.333 -256.666 -80 -399.999 -80c-343.333 0 -515 171.667 -515 515c0 316.667 171.667 475 515 475c143.333 0 276.666 -26.667 399.999 -80v240c-123.333 46.667 -263.333 70 -420 70c-513.333 0 -770 -235 -770 -705
c0 -496.667 256.667 -745 770 -745c156.667 0 296.667 23.333 420 70v240z" />
    <glyph glyph-name="D" unicode="D" horiz-adv-x="1540" 
d="M580 230c296.667 0 445 174.667 445 524c0 297.333 -148.333 446 -445 446h-315v-970h315zM0 0v1430h620c446.667 0 670 -225.333 670 -676c0 -502.667 -223.333 -754 -670 -754h-620z" />
    <glyph glyph-name="E" unicode="E" horiz-adv-x="1238" 
d="M0 1430v-1430h953v230h-693v375h645v237h-642v360h676v228h-939z" />
    <glyph glyph-name="F" unicode="F" horiz-adv-x="1224" 
d="M0 1430v-1430h260v605h645v237h-642v360h676v228h-939z" />
    <glyph glyph-name="G" unicode="G" horiz-adv-x="1390" 
d="M1190 660h-264.998v-416c-61.333 -16 -116 -24 -164 -24c-324 0 -486 171.667 -486 515c0 316.667 171.667 475 515 475c143.333 0 276.666 -26.667 399.999 -80v240c-123.333 46.667 -263.333 70 -420 70c-513.333 0 -770 -235 -770 -705
c0 -496.667 252.333 -745 757 -745c173.333 0 317.666 25.333 432.999 76v594z" />
    <glyph glyph-name="H" unicode="H" horiz-adv-x="1535" 
d="M0 0v1430h265v-590h705v590h265v-1430h-265v610h-705v-610h-265z" />
    <glyph glyph-name="I" unicode="I" horiz-adv-x="565" 
d="M0 1430v-1430h265v1430h-265z" />
    <glyph glyph-name="J" unicode="J" horiz-adv-x="740" 
d="M0 1430v-1018c0 -121.333 -100 -182 -300 -182v-230c376.667 -0 565 137.333 565 412v1018h-265z" />
    <glyph glyph-name="K" unicode="K" horiz-adv-x="1450" 
d="M0 1430v-1430h265v1430h-265zM887 1430l-542 -590v-172l583 -668h367l-714 763l630 667h-324z" />
    <glyph glyph-name="L" unicode="L" horiz-adv-x="1183" 
d="M0 1430v-1430h933v230h-668v1200h-265z" />
    <glyph glyph-name="M" unicode="M" horiz-adv-x="1800" 
d="M0 0v1430h275l485 -1085l475 1085h265v-1430h-245v996l-388 -996h-226l-396 996v-996h-245z" />
    <glyph glyph-name="N" unicode="N" horiz-adv-x="1615" 
d="M0 0v1430h265l795 -1022v1022h255v-1430h-265l-795 1044v-1044h-255z" />
    <glyph glyph-name="O" unicode="O" horiz-adv-x="1625" 
d="M718 220c288 0 432 166.333 432 499c0 327.333 -144 491 -432 491c-295.333 0 -443 -163.667 -443 -491c0 -332.667 147.667 -499 443 -499zM0 713c0 484.667 239.332 727 717.999 727c471.333 0 707 -242.333 707 -727c0 -482 -235.667 -723 -707 -723
c-457.333 0 -696.666 241 -717.999 723z" />
    <glyph glyph-name="P" unicode="P" horiz-adv-x="1243" 
d="M0 0v1430h670c272 0 408 -121 408 -363c0 -284.667 -196.333 -457.667 -589 -519l-38 236c233.333 43.333 350 135 350 275c0 92 -49.333 138 -148 138h-388v-1197h-265z" />
    <glyph glyph-name="Q" unicode="Q" horiz-adv-x="1625" 
d="M718 220c288 0 432 166.333 432 499c0 327.333 -144 491 -432 491c-295.333 0 -443 -163.667 -443 -491c0 -332.667 147.667 -499 443 -499zM0 713c0 484.667 239.333 727 718 727c471.333 0 707 -242.333 707 -727c0 -398.667 -148.333 -634 -445 -706l232 -270
l-209 -159l-325 412c-430.667 0 -656.667 241 -678 723z" />
    <glyph glyph-name="R" unicode="R" horiz-adv-x="1375" 
d="M0 2v1428h650c292 0 438 -127.667 438 -383c0 -172.667 -113.667 -315.667 -341 -429l453 -618h-344l-435 623v121c260 43.333 390 141.666 390 294.999c0 105.333 -59.333 158 -178 158h-363v-1195h-270z" />
    <glyph glyph-name="S" unicode="S" horiz-adv-x="1310" 
d="M40 60v240c143.333 -53.333 305.333 -80 486 -80c219.333 0 329 73.333 329 220c0 106.667 -67.333 160 -202 160h-244c-292.667 0 -439 133.333 -439 400c0 293.333 208.333 440 625 440c160 0 311.667 -23.333 455 -70v-240c-143.333 53.333 -295 80 -455 80
c-240 0 -360 -70 -360 -210c0 -106.667 58 -160 174 -160h244c311.333 0 467 -133.333 467 -400c0 -300 -198 -450 -594 -450c-180.667 0 -342.667 23.333 -486 70z" />
    <glyph glyph-name="T" unicode="T" horiz-adv-x="1085" 
d="M0 1430v-230h410v-1200h265v1200h410v230h-1085z" />
    <glyph glyph-name="U" unicode="U" horiz-adv-x="1530" 
d="M0 562v868h265v-868c0 -228 116.667 -342 350 -342s350 114 350 342v868h265v-868c0 -381.333 -205 -572 -615 -572s-615 190.667 -615 572z" />
    <glyph glyph-name="V" unicode="V" horiz-adv-x="1512" 
d="M1512 1430l-627 -1430h-285l-600 1430h315l443 -1095l442 1095h312z" />
    <glyph glyph-name="W" unicode="W" horiz-adv-x="1820" 
d="M0 1430h259l183 -997l352 997h255l328 -957l192 957h251l-269 -1430h-252l-393 1122l-422 -1122h-249z" />
    <glyph glyph-name="X" unicode="X" horiz-adv-x="1502" 
d="M0 1430h335l1125 -1430h-335zM335 0h-335l1125 1430h335z" />
    <glyph glyph-name="Y" unicode="Y" horiz-adv-x="1300" 
d="M-30 1430h285l402 -689l378 689h275l-526 -930v-500h-265v500z" />
    <glyph glyph-name="Z" unicode="Z" horiz-adv-x="1250" 
d="M20 1430v-230h774l-794 -970v-230h1060v230h-761l761 970v230h-1040z" />
    <glyph glyph-name="bracketleft" unicode="[" horiz-adv-x="680" 
d="M0 1430v-1810h530v210h-265v1390h265v210h-530z" />
    <glyph glyph-name="backslash" unicode="\" horiz-adv-x="1060" 
d="M0 1430h285l725 -1430h-285z" />
    <glyph glyph-name="bracketright" unicode="]" horiz-adv-x="680" 
d="M0 1430v-210h265v-1390h-265v-210h530v1810h-530z" />
    <glyph glyph-name="asciicircum" unicode="^" horiz-adv-x="1050" 
d="M400 1430h150l400 -730h-230l-249 473l-241 -473h-230z" />
    <glyph glyph-name="underscore" unicode="_" horiz-adv-x="1050" 
d="M0 0v-210h1000v210h-1000z" />
    <glyph glyph-name="grave" unicode="`" horiz-adv-x="400" 
d="M400 1385v-210l-400 150v210z" />
    <glyph glyph-name="a" unicode="a" horiz-adv-x="1165" 
d="M0 327c0 215.333 152 323 456 323c91.333 0 172.666 -6.66699 243.999 -20v69c0 94 -91 141 -273 141c-114.667 0 -228.667 -16.667 -342 -50v210c113.333 33.333 227.333 50 342 50c358.667 0 538 -115.333 538 -346v-704h-134l-114 74
c-91.333 -49.333 -188.666 -74 -291.999 -74c-283.333 0 -425 109 -425 327zM456 450c-127.333 0 -191 -40 -191 -120s53.333 -120 160 -120c108 0 199.667 27.333 275 82v138c-66.667 13.333 -148 20 -244 20z" />
    <glyph glyph-name="b" unicode="b" horiz-adv-x="1183" 
d="M265 776c73.333 36 154.667 54 244 54c151.333 0 227 -92.333 227 -277c0 -226 -86.667 -339 -260 -339c-80 0 -150.333 9.66699 -211 29v533zM0.000976562 43c166 -28.667 321 -43 465 -43c355.333 0 533 182 533 546c0 336 -162.667 504 -488 504
c-84 0 -165.667 -16.667 -245 -50v430h-265v-1387z" />
    <glyph glyph-name="c" unicode="c" horiz-adv-x="980" 
d="M870 240c-86.667 -20 -176.667 -30 -270 -30c-223.333 0 -335 111.667 -335 335c0 196.667 111.667 295 335 295c93.333 0 183.333 -10 270 -30v210c-86.667 20 -183.334 30 -290.001 30c-386.667 0 -580 -168.333 -580 -505c0 -363.333 193.333 -545 580 -545
c106.667 0 203.334 10 290.001 30v210z" />
    <glyph glyph-name="d" unicode="d" horiz-adv-x="1220" 
d="M755 776c-68 36 -150 54 -246 54c-164.667 0 -247 -92.333 -247 -277c0 -219.333 82.333 -329 247 -329c96 0 178 13 246 39v513zM1020 63c-160.667 -42 -324.333 -63 -491 -63c-352.667 0 -529 182 -529 546c-0 336 169.333 504 508 504c90.667 0 173 -16.667 247 -50
v430h265v-1367z" />
    <glyph glyph-name="e" unicode="e" horiz-adv-x="1086" 
d="M952 422h-687c0 -141.333 115.333 -212 346 -212c106 0 212 10 318 30v-210c-92.667 -20 -212 -30 -358 -30c-380.667 0 -571 179 -571 537c-0 342 174.333 513 523 513c348 0 491 -209.333 429 -628zM265 616h438c9.33301 150.667 -60.667 226 -210 226
c-140 0 -216 -75.333 -228 -226z" />
    <glyph glyph-name="f" unicode="f" horiz-adv-x="741" 
d="M0 -5v1106c-0 254 157.333 381 472 381c86 0 164 -13.333 234 -40v-210c-66 26.667 -144.333 40 -235 40c-137.333 0 -206 -74 -206 -222h315v-210h-315v-841z" />
    <glyph glyph-name="g" unicode="g" horiz-adv-x="1217" 
d="M752 294c-72.667 -36 -156.999 -54 -252.999 -54c-158 0 -237 97.667 -237 293c0 202 95 303 285 303c93.333 0 161.666 -8 204.999 -24v-518zM1017 1007c-172.667 28.667 -320.001 43 -442.001 43c-383.333 0 -575 -173 -575 -519c0 -340.667 166 -511 498 -511
c90.667 0 175.334 16.667 254.001 50c0 -160 -98.667 -240 -296 -240c-128.667 0 -244 16.667 -346 50v-210c100 -33.333 214.667 -50 344 -50c375.333 0 563 126.667 563 380v1007z" />
    <glyph glyph-name="h" unicode="h" 
d="M0 0v1430h265v-494c109.333 76 228.333 114 357 114c242 0 363 -130.333 363 -391v-659h-265v662c0 116 -57.667 174 -173 174c-92.667 0 -186.667 -44.333 -282 -133v-703h-265z" />
    <glyph glyph-name="i" unicode="i" horiz-adv-x="515" 
d="M265 1430v-210h-265v210h265zM265 1050v-1050h-265v1050h265z" />
    <glyph glyph-name="j" unicode="j" horiz-adv-x="515" 
d="M0 1430v-210h265v210h-265zM0 1050v-970c-0 -158.667 -41.667 -283 -125 -373l208 -145c121.333 133.333 182 306 182 518v970h-265z" />
    <glyph glyph-name="k" unicode="k" horiz-adv-x="1221" 
d="M0 0v1430h265v-462c108.667 54.667 229.667 82 363 82c254.667 0 382 -111 382 -333c0 -126.667 -93.333 -228 -280 -304l316 -413h-314l-334 445v83c231.333 20.667 347 84 347 190c0 81.333 -56.667 122 -170 122c-102 0 -205.333 -31.333 -310 -94v-746h-265z" />
    <glyph glyph-name="l" unicode="l" horiz-adv-x="515" 
d="M0 1430v-1430h265v1430h-265z" />
    <glyph glyph-name="m" unicode="m" horiz-adv-x="1835" 
d="M0 0l-0.000976562 1050h205l31 -132c120.667 88 240.334 132 359.001 132c132 0 225.667 -48 281 -144c134 96 259.667 144 377 144c221.333 0 332 -133 332 -399v-651h-265v661c0 116.667 -49.333 175 -148 175c-78.667 0 -161 -45.333 -247 -136v-700h-265v658
c0 118.667 -48.667 178 -146 178c-84 0 -167 -45.333 -249 -136v-700h-265z" />
    <glyph glyph-name="n" unicode="n" 
d="M0 0v1050h205l33 -134c127.333 89.333 255.333 134 384 134c242 0 363 -130.333 363 -391v-659h-265v662c0 116 -57.667 174 -173 174c-92.667 0 -186.667 -44.333 -282 -133v-703h-265z" />
    <glyph glyph-name="o" unicode="o" horiz-adv-x="1180" 
d="M530 200c176.667 0 265 109.667 265 329c0 214 -88.333 321 -265 321s-265 -107 -265 -321c0 -219.333 88.333 -329 265 -329zM0 525c0 356.667 176.667 535 530 535s530 -178.333 530 -535c0 -356 -176.667 -534 -530 -534c-352 0 -528.667 178 -530 534z" />
    <glyph glyph-name="p" unicode="p" horiz-adv-x="1202" 
d="M185 274c72.667 -36 153.667 -54 243 -54c164.667 0 247 111 247 333c0 188.667 -94 283 -282 283c-88.667 0 -158 -4.66699 -208 -14v-548zM-80 1007c139.333 28.667 293.333 43 462 43c370 0 555 -166.333 555 -499c0 -367.333 -169.333 -551 -508 -551
c-84 0 -165.333 16.667 -244 50v-430h-265v1387z" />
    <glyph glyph-name="q" unicode="q" horiz-adv-x="1217" 
d="M752 274c-72.667 -36 -157 -54 -253 -54c-158 0 -237 104.333 -237 313c0 202 88.333 303 265 303c86.667 0 161.667 -8 225 -24v-538zM1017 1007c-172.667 28.667 -330.001 43 -472.001 43c-363.333 0 -545 -173 -545 -519c0 -354 166 -531 498 -531
c90.667 0 175.334 16.667 254.001 50v-430h265v1387z" />
    <glyph glyph-name="r" unicode="r" horiz-adv-x="680" 
d="M0 0v1050h205l33 -134c92 89.333 189.333 134 292 134v-214c-98.667 0 -187 -44.333 -265 -133v-703h-265z" />
    <glyph glyph-name="s" unicode="s" horiz-adv-x="1025" 
d="M30 50v220c116.667 -46.667 251.334 -70 404.001 -70c114 0 171 36.667 171 110c0 66.667 -38.333 100 -115 100h-190c-213.333 0 -320 106.667 -320 320c0 220 155.667 330 467 330c132 0 256.333 -20 373 -60v-220c-116.667 46.667 -243.334 70 -380.001 70
c-143.333 0 -215 -36.667 -215 -110c0 -66.667 41.667 -100 125 -100h170c233.333 0 350 -106.667 350 -320c0 -220 -148.667 -330 -446 -330c-146 0 -277.333 20 -394 60z" />
    <glyph glyph-name="t" unicode="t" horiz-adv-x="680" 
d="M0 1220h196l40 -170h244v-210h-215v-483c0 -98 42.333 -147 127 -147h88v-210h-216c-176 -0 -264 94.333 -264 283v937z" />
    <glyph glyph-name="u" unicode="u" 
d="M985 1050v-1050h-207l-32 134c-127.333 -89.333 -255.333 -134 -384 -134c-241.333 -0 -362 130.333 -362 391v659h265v-662c0 -116 57.333 -174 172 -174c92.667 0 187 44.333 283 133v703h265z" />
    <glyph glyph-name="v" unicode="v" horiz-adv-x="1080" 
d="M0 1050h280l255 -734l265 734h280l-427 -1050h-252z" />
    <glyph glyph-name="w" unicode="w" horiz-adv-x="1599" 
d="M1 1050h267l156 -711l233 711h227l252 -711l138 711h276l-284 -1050h-249l-247 725l-250 -725h-253z" />
    <glyph glyph-name="x" unicode="x" horiz-adv-x="1080" 
d="M0 1050h295l785 -1050h-295zM295 0h-295l785 1050h295z" />
    <glyph glyph-name="y" unicode="y" horiz-adv-x="1081" 
d="M0 1050l281.001 0.000976562l265 -756l259 756h276l-436 -1081c-77.333 -190.667 -201 -326.334 -371 -407.001l-128 181c117.333 51.333 202.666 135 255.999 251z" />
    <glyph glyph-name="z" unicode="z" horiz-adv-x="990" 
d="M20 1050h810v-210l-537 -640h517v-200h-810v200l545 640h-525v210z" />
    <glyph glyph-name="braceleft" unicode="{" horiz-adv-x="755" 
d="M340 1430c-86.667 -117.333 -130 -276.666 -130 -477.999c0 -208 -70 -312 -210 -312v-230c140 0 210 -104 210 -312c0 -201.333 43.333 -360.666 130 -477.999h265c-86.667 117.333 -130 276.666 -130 477.999c0 234.667 -83.333 377 -250 427
c166.667 50 250 192.333 250 427c0 201.333 43.333 360.666 130 477.999h-265z" />
    <glyph glyph-name="bar" unicode="|" horiz-adv-x="565" 
d="M0 1430v-1810h265v1810h-265z" />
    <glyph glyph-name="braceright" unicode="}" horiz-adv-x="755" 
d="M0 1430c86.667 -117.333 130 -276.666 130 -477.999c0 -234.667 56.667 -377 170 -427c-113.333 -50 -170 -192.333 -170 -427c0 -201.333 -43.333 -360.666 -130 -477.999h265c86.667 117.333 130 276.666 130 477.999c0 208 70 312 210 312v230
c-140 0 -210 104 -210 312c0 201.333 -43.333 360.666 -130 477.999h-265z" />
    <glyph glyph-name="asciitilde" unicode="~" horiz-adv-x="950" 
d="M365 630c173.333 -60 301.666 -53.333 384.999 20v-210c-70 -73.333 -191.667 -80 -365 -20s-301.666 53.333 -384.999 -20v210c70 73.333 191.667 80 365 20z" />
    <glyph glyph-name="nonbreakingspace" unicode="&#xa0;" horiz-adv-x="498" 
 />
    <glyph glyph-name="exclamdown" unicode="&#xa1;" horiz-adv-x="565" 
d="M0 -380v1060h265v-1060h-265zM0 805v245h265v-245h-265z" />
    <glyph glyph-name="cent" unicode="&#xa2;" horiz-adv-x="1050" 
d="M850 220c-51.333 -16.667 -113.001 -26.668 -185.001 -30.001v-190h-255v190c-273.333 34.667 -410 216.334 -410 545.001c0 300.667 136.667 469 410 505v190h255v-190c58.667 -0.666992 120.334 -10.667 185.001 -30v-210c-86.667 20 -173.334 30 -260.001 30
c-216.667 0 -325 -98.333 -325 -295c0 -223.333 108.333 -335 325 -335c86.667 0 173.334 10 260.001 30v-210z" />
    <glyph glyph-name="sterling" unicode="&#xa3;" horiz-adv-x="1217" 
d="M65 182c124 50 185.999 126.997 185.999 230.997c0 78 -25.667 175 -77 291s-77 223.667 -77 323c0 275.333 186 413 558 413c180 0 322.333 -33.333 427 -100v-240c-105.333 86.667 -250 130 -434 130c-182.667 0 -274 -67 -274 -201c0 -96 11.667 -162.333 35 -199h386
v-210h-314c26 -69.333 39 -137.333 39 -204c0 -91.333 -21.333 -150.666 -64 -177.999c61.333 12 148.5 -1 261.5 -39s234.5 -11 364.5 81v-230c-125.333 -87.333 -287.166 -106.166 -485.499 -56.499s-375.5 41.834 -531.5 -23.499v212z" />
    <glyph glyph-name="currency" unicode="&#xa4;" horiz-adv-x="1139" 
d="M116 756l-116 120l109 112l125 -121c72 45.333 152.667 68 242 68c82.667 0 157.667 -22.667 225 -68l128 121l110 -112l-118 -120c38.667 -55.333 58 -132.333 58 -231c0 -92.667 -22.667 -170 -68 -232l128 -120l-110 -112l-128 123c-72 -40 -149.667 -60 -233 -60
c-82.667 0 -163.667 20 -243 60l-116 -123l-109 112l116 120c-38 68.667 -57 146 -57 232c0 91.333 19 168.333 57 231zM222 529c0 -164 81.667 -246 245 -246s245 82 245 246c0 162.667 -81.667 244 -245 244s-245 -81.333 -245 -244z" />
    <glyph glyph-name="yen" unicode="&#xa5;" horiz-adv-x="1250" 
d="M0 1430h275l292 -510l298 510h285l-413 -660h293v-210h-336v-111h336v-210h-336v-239h-265v239h-309v210h309v111h-309v210h267z" />
    <glyph glyph-name="brokenbar" unicode="&#xa6;" horiz-adv-x="201" 
 />
    <glyph glyph-name="section" unicode="&#xa7;" horiz-adv-x="1090" 
d="M50 40v220c116.667 -40 238 -60 364 -60c140.667 0 211 30 211 90c0 66.667 -51.667 100 -155 100h-70c-266.667 0 -400 103.333 -400 310c0 105.333 43.667 177.333 131 216c-87.333 40 -131 114.667 -131 224c0 200 155.667 300 467 300c132 0 256.333 -16.667 373 -50
v-220c-116.667 40 -241 60 -373 60c-148 0 -222 -30 -222 -90c0 -66.667 51.667 -100 155 -100h70c280 0 420 -102.333 420 -307c0 -100 -37 -174 -111 -222c74 -36 111 -109.667 111 -221c0 -200 -158.667 -300 -476 -300c-126 0 -247.333 16.667 -364 50zM400 598h70
c103.333 0 155 35.333 155 106c0 84.667 -51.667 127 -155 127h-70c-103.333 0 -155 -38 -155 -114c0 -79.333 51.667 -119 155 -119z" />
    <glyph glyph-name="dieresis" unicode="&#xa8;" horiz-adv-x="555" 
d="M555 1430v-190h-215v190h215zM215 1430v-190h-215v190h215z" />
    <glyph glyph-name="copyright" unicode="&#xa9;" horiz-adv-x="1163" 
d="M430 664c240 0 360 120.333 360 361c0 246 -120 369 -360 369c-238 0 -357 -123 -357 -369c0 -240.667 119 -361 357 -361zM0 1023c0 284.667 143.333 427 430 427c288.667 0 433 -142.333 433 -427c0 -276.667 -144.333 -415 -433 -415
c-278.667 0 -422 138.333 -430 415zM615 830c-47.333 -18 -96 -27 -146 -27c-150.667 0 -226 76.333 -226 229c0 142 75.333 213 226 213c50 0 98.667 -9 146 -27v62c-47.333 15.333 -98.666 23 -153.999 23c-192.667 0 -289 -90.333 -289 -271
c0 -191.333 96.333 -287 289 -287c55.333 0 106.666 7.66699 153.999 23v62z" />
    <glyph glyph-name="ordfeminine" unicode="&#xaa;" horiz-adv-x="576" 
 />
    <glyph glyph-name="guillemotleft" unicode="&#xab;" horiz-adv-x="1079" 
d="M707 150h272l-258 375l258 375h-272l-258 -375zM258 150h272l-258 375l258 375h-272l-258 -375z" />
    <glyph glyph-name="logicalnot" unicode="&#xac;" horiz-adv-x="1395" 
 />
    <glyph glyph-name="minus" unicode="&#xad;" horiz-adv-x="636" 
 />
    <glyph glyph-name="minus" unicode="&#x2212;" horiz-adv-x="636" 
 />
    <glyph glyph-name="registered" unicode="&#xae;" horiz-adv-x="1163" 
d="M254 756v535.999h229c102 0 153 -42.667 153 -128c0 -70 -50 -121.667 -150 -155l184 -253h-91l-171 241v45c102.667 16.667 154 56.334 154 119.001c0 49.333 -28.667 74 -86 74h-153v-479h-69zM430 663.999c240 0 360 120.333 360 361c0 246 -120 369 -360 369
c-238 0 -357 -123 -357 -369c0 -240.667 119 -361 357 -361zM0 1023c0 284.667 143.333 427 430 427c288.667 0 433 -142.333 433 -427c0 -276.667 -144.333 -415 -433 -415c-278.667 0 -422 138.333 -430 415z" />
    <glyph glyph-name="macron" unicode="&#xaf;" horiz-adv-x="360" 
 />
    <glyph glyph-name="macron" unicode="&#x2c9;" horiz-adv-x="360" 
 />
    <glyph glyph-name="degree" unicode="&#xb0;" horiz-adv-x="872" 
d="M338 965c96 0 144 49 144 147c0 96 -48 144 -144 144c-98.667 0 -148 -48 -148 -144c0 -98 49.333 -147 148 -147zM0 1110c0 213.333 112.667 320 338 320c222.667 0 334 -106.667 334 -320c0 -212.667 -111.333 -319 -334 -319c-225.333 0 -338 106.333 -338 319z" />
    <glyph glyph-name="plusminus" unicode="&#xb1;" horiz-adv-x="636" 
 />
    <glyph glyph-name="twosuperior" unicode="&#xb2;" horiz-adv-x="300" 
 />
    <glyph glyph-name="threesuperior" unicode="&#xb3;" horiz-adv-x="300" 
 />
    <glyph glyph-name="acute" unicode="&#xb4;" horiz-adv-x="400" 
d="M400 1535v-210l-400 -150v210z" />
    <glyph glyph-name="mu" unicode="&#xb5;" 
d="M985 1050l-0.000976562 -1050h-207l-32 134c-100.667 -89.333 -198.667 -134 -294 -134c-93.333 0 -155.666 20 -186.999 60v-440h-265v1430h265v-552c0 -189.333 64 -284 192 -284c106 0 193.667 44.333 263 133v703h265z" />
    <glyph glyph-name="mu" unicode="&#x3bc;" 
d="M985 1050l-0.000976562 -1050h-207l-32 134c-100.667 -89.333 -198.667 -134 -294 -134c-93.333 0 -155.666 20 -186.999 60v-440h-265v1430h265v-552c0 -189.333 64 -284 192 -284c106 0 193.667 44.333 263 133v703h265z" />
    <glyph glyph-name="paragraph" unicode="&#xb6;" horiz-adv-x="953" 
d="M443 -434v972c-295.333 0 -443 149.333 -443 448c0 296 147.667 444 443 444h510v-90h-150v-1774h-100v1774h-160v-1774h-100z" />
    <glyph glyph-name="periodcentered" unicode="&#xb7;" horiz-adv-x="450" 
d="M0 525c0 83.333 41.667 125 125 125s125 -41.667 125 -125s-41.667 -125 -125 -125s-125 41.667 -125 125z" />
    <glyph glyph-name="periodcentered" unicode="&#x2219;" horiz-adv-x="450" 
d="M0 525c0 83.333 41.667 125 125 125s125 -41.667 125 -125s-41.667 -125 -125 -125s-125 41.667 -125 125z" />
    <glyph glyph-name="cedilla" unicode="&#xb8;" horiz-adv-x="487" 
d="M0 -372c72 -33.333 144 -50 216 -50c180.667 0 271 61 271 183c0 108 -71.333 162 -214 162l81 152h-165l-131 -270h183c55.333 0 83 -14.667 83 -44c0 -36.667 -36 -55 -108 -55s-144 16.667 -216 50v-128z" />
    <glyph glyph-name="onesuperior" unicode="&#xb9;" horiz-adv-x="300" 
 />
    <glyph glyph-name="ordmasculine" unicode="&#xba;" horiz-adv-x="451" 
d="M405 487c0 362 170.667 543 512 543c183.333 0 334.333 -46.667 453 -140v-772c0 -38.667 26.667 -58 80 -58c96.667 0 145 160 145 480c0 460 -228.667 690 -686 690c-476 0 -714 -230 -714 -690c0 -473.333 215 -710 645 -710v-210c-606.667 0 -910 306.667 -910 920
c0 600 321.333 900 964 900c644 0 966 -300 966 -900c0 -460 -149 -690 -447 -690c-200.667 0 -301 74.667 -301 224c-84.667 -49.333 -188.667 -74 -312 -74c-263.333 -0 -395 162.333 -395 487zM876 810c-140.667 0 -211 -106.667 -211 -320
c0 -186.667 53.333 -280 160 -280c108 0 199.667 27.333 275 82v468c-60 33.333 -134.667 50 -224 50z" />
    <glyph glyph-name="guillemotright" unicode="&#xbb;" horiz-adv-x="1079" 
d="M530 525l-258 375h-272l258 -375l-258 -375h272zM979 525l-258 375h-272l258 -375l-258 -375h272z" />
    <glyph glyph-name="onequarter" unicode="&#xbc;" horiz-adv-x="786" 
 />
    <glyph glyph-name="onehalf" unicode="&#xbd;" horiz-adv-x="786" 
 />
    <glyph glyph-name="threequarters" unicode="&#xbe;" horiz-adv-x="786" 
 />
    <glyph glyph-name="questiondown" unicode="&#xbf;" horiz-adv-x="1115" 
d="M415 805v245h-265v-245h265zM0 -120c140 -33.333 273.333 -50 400 -50c180 0 270 60 270 180c0 153.333 -85 230 -255 230h-265v440h265v-230c333.333 0 500 -146.667 500 -440c0 -260 -171.667 -390 -515 -390c-126.667 0 -260 16.667 -400 50v210z" />
    <glyph glyph-name="Agrave" unicode="&#xc0;" horiz-adv-x="1562" 
d="M0 0l607 1430h285l620 -1430h-285l-180 390h-458l91 230h297l-234 537l-471 -1157h-272zM947 1698v-210l-400 150v210z" />
    <glyph glyph-name="Aacute" unicode="&#xc1;" horiz-adv-x="1562" 
d="M0 0l607 1430h285l620 -1430h-285l-180 390h-458l91 230h297l-234 537l-471 -1157h-272zM947 1848v-210l-400 -150v210z" />
    <glyph glyph-name="Acircumflex" unicode="&#xc2;" horiz-adv-x="1562" 
d="M0 0l607 1430h285l620 -1430h-285l-180 390h-458l91 230h297l-234 537l-471 -1157h-272zM490 1574h180l70 130l70 -130h180l-175 260h-150z" />
    <glyph glyph-name="Atilde" unicode="&#xc3;" horiz-adv-x="1562" 
d="M0 0l607 1430h285l620 -1430h-285l-180 390h-458l91 230h297l-234 537l-471 -1157h-272zM735 1819c90 -40 176.667 -33.333 260 20v-210c-70 -53.333 -150 -60 -240 -20s-176.667 33.333 -260 -20v210c70 53.333 150 60 240 20z" />
    <glyph glyph-name="Adieresis" unicode="&#xc4;" horiz-adv-x="1562" 
d="M0 0l607 1430h285l620 -1430h-285l-180 390h-458l91 230h297l-234 537l-471 -1157h-272zM1024 1789v-190h-215v190h215zM684 1789v-190h-215v190h215z" />
    <glyph glyph-name="Aring" unicode="&#xc5;" horiz-adv-x="1562" 
d="M0 0l607 1430h285l620 -1430h-285l-180 390h-458l91 230h297l-234 537l-471 -1157h-272zM739 1441c82.667 0 124 42.333 124 127c0 76 -41.333 114 -124 114c-78.667 0 -118 -38 -118 -114c0 -84.667 39.333 -127 118 -127zM451 1566c0 180 96 270 288 270
c196 0 294 -90 294 -270c0 -186 -98 -279 -294 -279c-192 0 -288 93 -288 279z" />
    <glyph glyph-name="AE" unicode="&#xc6;" horiz-adv-x="1885" 
d="M0 0l607 1430h1098v-230h-738l160 -360h543v-230h-444l166 -380h333v-230h-528l-460 1144l-220 -544h250l68 -210h-399l-154 -390h-282z" />
    <glyph glyph-name="Ccedilla" unicode="&#xc7;" horiz-adv-x="1390" 
d="M483 -372c72 -33.333 144 -50 216 -50c180.667 0 271 61 271 183c0 108 -71.333 162 -214 162l81 152h-165l-131 -270h183c55.333 0 83 -14.667 83 -44c0 -36.667 -36 -55 -108 -55s-144 16.667 -216 50v-128zM1190 300c-123.333 -53.333 -256.666 -80 -399.999 -80
c-343.333 0 -515 171.667 -515 515c0 316.667 171.667 475 515 475c143.333 0 276.666 -26.667 399.999 -80v240c-123.333 46.667 -263.333 70 -420 70c-513.333 0 -770 -235 -770 -705c0 -496.667 256.667 -745 770 -745c156.667 0 296.667 23.333 420 70v240z" />
    <glyph glyph-name="Egrave" unicode="&#xc8;" horiz-adv-x="1238" 
d="M0 1430v-1430h953v230h-693v375h645v237h-642v360h676v228h-939zM671 1698v-210l-400 150v210z" />
    <glyph glyph-name="Eacute" unicode="&#xc9;" horiz-adv-x="1238" 
d="M0 1430v-1430h953v230h-693v375h645v237h-642v360h676v228h-939zM671 1848v-210l-400 -150v210z" />
    <glyph glyph-name="Ecircumflex" unicode="&#xca;" horiz-adv-x="1238" 
d="M0 1430v-1430h953v230h-693v375h645v237h-642v360h676v228h-939zM226 1574h180l70 130l70 -130h180l-175 260h-150z" />
    <glyph glyph-name="Edieresis" unicode="&#xcb;" horiz-adv-x="1238" 
d="M0 1430v-1430h953v230h-693v375h645v237h-642v360h676v228h-939zM737 1789v-190h-215v190h215zM397 1789v-190h-215v190h215z" />
    <glyph glyph-name="Igrave" unicode="&#xcc;" horiz-adv-x="565" 
d="M265 1430v-1430h-265v1430h265zM335 1698v-210l-400 150v210z" />
    <glyph glyph-name="Iacute" unicode="&#xcd;" horiz-adv-x="565" 
d="M265 1430v-1430h-265v1430h265zM335 1848v-210l-400 -150v210z" />
    <glyph glyph-name="Icircumflex" unicode="&#xce;" horiz-adv-x="565" 
d="M265 1430v-1430h-265v1430h265zM60 1834h150l175 -260h-180l-70 130l-70 -130h-180z" />
    <glyph glyph-name="Idieresis" unicode="&#xcf;" horiz-adv-x="515" 
d="M265 1430v-1430h-265v1430h265zM410 1789v-190h-214v190h214zM70 1789v-190h-214v190h214z" />
    <glyph glyph-name="Eth" unicode="&#xd0;" horiz-adv-x="663" 
 />
    <glyph glyph-name="Ntilde" unicode="&#xd1;" horiz-adv-x="1615" 
d="M0 0v1430h265l795 -1022v1022h255v-1430h-265l-795 1044v-1044h-255zM654 1819c90 -40 176.667 -33.333 260 20v-210c-70 -53.333 -150 -60 -240 -20s-176.667 33.333 -260 -20v210c70 53.333 150 60 240 20z" />
    <glyph glyph-name="Ograve" unicode="&#xd2;" horiz-adv-x="1625" 
d="M718 220c288 0 432 166.333 432 499c0 327.333 -144 491 -432 491c-295.333 0 -443 -163.667 -443 -491c0 -332.667 147.667 -499 443 -499zM0 713c0 484.667 239.332 727 717.999 727c471.333 0 707 -242.333 707 -727c0 -482 -235.667 -723 -707 -723
c-457.333 0 -696.666 241 -717.999 723zM905.999 1698v-210l-400 150v210z" />
    <glyph glyph-name="Oacute" unicode="&#xd3;" horiz-adv-x="1625" 
d="M718 220c288 0 432 166.333 432 499c0 327.333 -144 491 -432 491c-295.333 0 -443 -163.667 -443 -491c0 -332.667 147.667 -499 443 -499zM0 713c0 484.667 239.332 727 717.999 727c471.333 0 707 -242.333 707 -727c0 -482 -235.667 -723 -707 -723
c-457.333 0 -696.666 241 -717.999 723zM905.999 1848v-210l-400 -150v210z" />
    <glyph glyph-name="Ocircumflex" unicode="&#xd4;" horiz-adv-x="1625" 
d="M718 220c288 0 432 166.333 432 499c0 327.333 -144 491 -432 491c-295.333 0 -443 -163.667 -443 -491c0 -332.667 147.667 -499 443 -499zM0 713c0 484.667 239.332 727 717.999 727c471.333 0 707 -242.333 707 -727c0 -482 -235.667 -723 -707 -723
c-457.333 0 -696.666 241 -717.999 723zM475.999 1574h180l70 130l70 -130h180l-175 260h-150z" />
    <glyph glyph-name="Otilde" unicode="&#xd5;" horiz-adv-x="1625" 
d="M718 220c288 0 432 166.333 432 499c0 327.333 -144 491 -432 491c-295.333 0 -443 -163.667 -443 -491c0 -332.667 147.667 -499 443 -499zM0 713c0 484.667 239.332 727 717.999 727c471.333 0 707 -242.333 707 -727c0 -482 -235.667 -723 -707 -723
c-457.333 0 -696.666 241 -717.999 723zM699.999 1819c90 -40 176.667 -33.333 260 20v-210c-70 -53.333 -150 -60 -240 -20s-176.667 33.333 -260 -20v210c70 53.333 150 60 240 20z" />
    <glyph glyph-name="Odieresis" unicode="&#xd6;" horiz-adv-x="1625" 
d="M718 220c288 0 432 166.333 432 499c0 327.333 -144 491 -432 491c-295.333 0 -443 -163.667 -443 -491c0 -332.667 147.667 -499 443 -499zM0 713c0 484.667 239.332 727 717.999 727c471.333 0 707 -242.333 707 -727c0 -482 -235.667 -723 -707 -723
c-457.333 0 -696.666 241 -717.999 723zM978.999 1789v-190h-215v190h215zM638.999 1789v-190h-215v190h215z" />
    <glyph glyph-name="multiply" unicode="&#xd7;" horiz-adv-x="636" 
 />
    <glyph glyph-name="Oslash" unicode="&#xd8;" horiz-adv-x="1625" 
d="M38 0l1083 1430h258l-1084 -1430h-257zM718 220c288 0 432 166.333 432 499c0 327.333 -144 491 -432 491c-295.333 0 -443 -163.667 -443 -491c0 -332.667 147.667 -499 443 -499zM0 713c0 484.667 239.332 727 717.999 727c471.333 0 707 -242.333 707 -727
c0 -482 -235.667 -723 -707 -723c-457.333 0 -696.666 241 -717.999 723z" />
    <glyph glyph-name="Ugrave" unicode="&#xd9;" horiz-adv-x="1530" 
d="M0 562v868h265v-868c0 -228 116.667 -342 350 -342s350 114 350 342v868h265v-868c0 -381.333 -205 -572 -615 -572s-615 190.667 -615 572zM816 1698v-210l-400 150v210z" />
    <glyph glyph-name="Uacute" unicode="&#xda;" horiz-adv-x="1530" 
d="M0 562v868h265v-868c0 -228 116.667 -342 350 -342s350 114 350 342v868h265v-868c0 -381.333 -205 -572 -615 -572s-615 190.667 -615 572zM816 1848v-210l-400 -150v210z" />
    <glyph glyph-name="Ucircumflex" unicode="&#xdb;" horiz-adv-x="1530" 
d="M0 562v868h265v-868c0 -228 116.667 -342 350 -342s350 114 350 342v868h265v-868c0 -381.333 -205 -572 -615 -572s-615 190.667 -615 572zM365 1574h180l70 130l70 -130h180l-175 260h-150z" />
    <glyph glyph-name="Udieresis" unicode="&#xdc;" horiz-adv-x="1530" 
d="M0 562v868h265v-868c0 -228 116.667 -342 350 -342s350 114 350 342v868h265v-868c0 -381.333 -205 -572 -615 -572s-615 190.667 -615 572zM897 1789v-190h-215v190h215zM557 1789v-190h-215v190h215z" />
    <glyph glyph-name="Yacute" unicode="&#xdd;" horiz-adv-x="526" 
 />
    <glyph glyph-name="Thorn" unicode="&#xde;" horiz-adv-x="576" 
 />
    <glyph glyph-name="germandbls" unicode="&#xdf;" horiz-adv-x="1216" 
d="M0 0v959c0 312 168 468 504 468c313.333 0 470 -132.333 470 -397v-135c-202.667 -35.333 -304 -101.333 -304 -198c0 -47.333 61.833 -89.833 185.5 -127.5s185.5 -120.167 185.5 -247.5c0 -214.667 -141.333 -322 -424 -322h-212v210h214c98 0 147 30.667 147 92
c0 54 -58.5 99.833 -175.5 137.5s-175.5 122.5 -175.5 254.5c0 138.667 96 250.667 288 336c0 124.667 -68.667 187 -206 187c-154.667 0 -232 -87 -232 -261v-956h-265z" />
    <glyph glyph-name="agrave" unicode="&#xe0;" horiz-adv-x="1165" 
d="M0 327c0 215.333 152 323 456 323c91.333 0 172.666 -6.66699 243.999 -20v69c0 94 -91 141 -273 141c-114.667 0 -228.667 -16.667 -342 -50v210c113.333 33.333 227.333 50 342 50c358.667 0 538 -115.333 538 -346v-704h-134l-114 74
c-91.333 -49.333 -188.666 -74 -291.999 -74c-283.333 0 -425 109 -425 327zM456 450c-127.333 0 -191 -40 -191 -120s53.333 -120 160 -120c108 0 199.667 27.333 275 82v138c-66.667 13.333 -148 20 -244 20zM693 1385v-210l-400 150v210z" />
    <glyph glyph-name="aacute" unicode="&#xe1;" horiz-adv-x="1165" 
d="M0 327c0 215.333 152 323 456 323c91.333 0 172.666 -6.66699 243.999 -20v69c0 94 -91 141 -273 141c-114.667 0 -228.667 -16.667 -342 -50v210c113.333 33.333 227.333 50 342 50c358.667 0 538 -115.333 538 -346v-704h-134l-114 74
c-91.333 -49.333 -188.666 -74 -291.999 -74c-283.333 0 -425 109 -425 327zM456 450c-127.333 0 -191 -40 -191 -120s53.333 -120 160 -120c108 0 199.667 27.333 275 82v138c-66.667 13.333 -148 20 -244 20zM693 1535v-210l-400 -150v210z" />
    <glyph glyph-name="acircumflex" unicode="&#xe2;" horiz-adv-x="1165" 
d="M0 327c0 215.333 152 323 456 323c91.333 0 172.666 -6.66699 243.999 -20v69c0 94 -91 141 -273 141c-114.667 0 -228.667 -16.667 -342 -50v210c113.333 33.333 227.333 50 342 50c358.667 0 538 -115.333 538 -346v-704h-134l-114 74
c-91.333 -49.333 -188.666 -74 -291.999 -74c-283.333 0 -425 109 -425 327zM456 450c-127.333 0 -191 -40 -191 -120s53.333 -120 160 -120c108 0 199.667 27.333 275 82v138c-66.667 13.333 -148 20 -244 20zM264 1278h180l70 130l70 -130h180l-175 260h-150z" />
    <glyph glyph-name="atilde" unicode="&#xe3;" horiz-adv-x="1165" 
d="M0 327c0 215.333 152 323 456 323c91.333 0 172.666 -6.66699 243.999 -20v69c0 94 -91 141 -273 141c-114.667 0 -228.667 -16.667 -342 -50v210c113.333 33.333 227.333 50 342 50c358.667 0 538 -115.333 538 -346v-704h-134l-114 74
c-91.333 -49.333 -188.666 -74 -291.999 -74c-283.333 0 -425 109 -425 327zM456 450c-127.333 0 -191 -40 -191 -120s53.333 -120 160 -120c108 0 199.667 27.333 275 82v138c-66.667 13.333 -148 20 -244 20zM484 1459c90 -40 176.667 -33.333 260 20v-210
c-70 -53.333 -150 -60 -240 -20s-176.667 33.333 -260 -20v210c70 53.333 150 60 240 20z" />
    <glyph glyph-name="adieresis" unicode="&#xe4;" horiz-adv-x="1165" 
d="M0 327c0 215.333 152 323 456 323c91.333 0 172.666 -6.66699 243.999 -20v69c0 94 -91 141 -273 141c-114.667 0 -228.667 -16.667 -342 -50v210c113.333 33.333 227.333 50 342 50c358.667 0 538 -115.333 538 -346v-704h-134l-114 74
c-91.333 -49.333 -188.666 -74 -291.999 -74c-283.333 0 -425 109 -425 327zM456 450c-127.333 0 -191 -40 -191 -120s53.333 -120 160 -120c108 0 199.667 27.333 275 82v138c-66.667 13.333 -148 20 -244 20zM793 1430v-190h-215v190h215zM453 1430v-190h-215v190h215z
" />
    <glyph glyph-name="aring" unicode="&#xe5;" horiz-adv-x="1165" 
d="M475 1404c82.667 0 124 42.333 124 127c0 76 -41.333 114 -124 114c-78.667 0 -118 -38 -118 -114c0 -84.667 39.333 -127 118 -127zM187 1529c0 180 96 270 288 270c196 0 294 -90 294 -270c0 -186 -98 -279 -294 -279c-192 0 -288 93 -288 279zM0 327
c0 215.333 152 323 456 323c91.333 0 172.666 -6.66699 243.999 -20v69c0 94 -91 141 -273 141c-114.667 0 -228.667 -16.667 -342 -50v210c113.333 33.333 227.333 50 342 50c358.667 0 538 -115.333 538 -346v-704h-134l-114 74
c-91.333 -49.333 -188.666 -74 -291.999 -74c-283.333 0 -425 109 -425 327zM456 450c-127.333 0 -191 -40 -191 -120s53.333 -120 160 -120c108 0 199.667 27.333 275 82v138c-66.667 13.333 -148 20 -244 20z" />
    <glyph glyph-name="ae" unicode="&#xe6;" horiz-adv-x="1745" 
d="M436 450c-114 0 -171 -40 -171 -120s50 -120 150 -120c101.333 0 183 27.333 245 82v138c-73.333 13.333 -148 20 -224 20zM926 656h438c-4 122.667 -67.333 184 -190 184c-153.333 0 -236 -61.333 -248 -184zM89 792l0.00195312 205c112 35.333 223.333 53 334 53
c199.333 0 331.333 -45.333 396 -136c84.667 90.667 212 136 382 136c325.333 0 456.666 -202.667 393.999 -608h-667c0 -154.667 120 -232 360 -232c98.667 0 193.667 9.66699 285 29v-209c-97.333 -20 -211 -30 -341 -30c-183.333 -0 -322.666 37.333 -417.999 112
c-128.667 -74.667 -261.334 -112 -398.001 -112c-277.333 0 -416 109.667 -416 329c0 220.667 145.667 331 437 331c69.333 0 144.666 -7.33301 225.999 -22c0 134.667 -80.667 202 -242 202c-113.333 0 -224 -16 -332 -48z" />
    <glyph glyph-name="ccedilla" unicode="&#xe7;" horiz-adv-x="980" 
d="M298 -372c72 -33.333 144 -50 216 -50c180.667 0 271 57.667 271 173c0 114.667 -71.333 172 -214 172l81 151h-165l-131 -269h183c55.333 0 83 -18 83 -54c0 -30 -36 -45 -108 -45s-144 16.667 -216 50v-128zM870 240c-86.667 -20 -176.667 -30 -270 -30
c-223.333 0 -335 111.667 -335 335c0 196.667 111.667 295 335 295c93.333 0 183.333 -10 270 -30v210c-86.667 20 -183.334 30 -290.001 30c-386.667 0 -580 -168.333 -580 -505c0 -363.333 193.333 -545 580 -545c106.667 0 203.334 10 290.001 30v210z" />
    <glyph glyph-name="egrave" unicode="&#xe8;" horiz-adv-x="1086" 
d="M952 422h-687c0 -141.333 115.333 -212 346 -212c106 0 212 10 318 30v-210c-92.667 -20 -212 -30 -358 -30c-380.667 0 -571 179 -571 537c-0 342 174.333 513 523 513c348 0 491 -209.333 429 -628zM265 616h438c9.33301 150.667 -60.667 226 -210 226
c-140 0 -216 -75.333 -228 -226zM670 1385v-210l-400 150v210z" />
    <glyph glyph-name="eacute" unicode="&#xe9;" horiz-adv-x="1086" 
d="M952 422h-687c0 -141.333 115.333 -212 346 -212c106 0 212 10 318 30v-210c-92.667 -20 -212 -30 -358 -30c-380.667 0 -571 179 -571 537c-0 342 174.333 513 523 513c348 0 491 -209.333 429 -628zM265 616h438c9.33301 150.667 -60.667 226 -210 226
c-140 0 -216 -75.333 -228 -226zM670 1535v-210l-400 -150v210z" />
    <glyph glyph-name="ecircumflex" unicode="&#xea;" horiz-adv-x="1086" 
d="M952 422h-687c0 -141.333 115.333 -212 346 -212c106 0 212 10 318 30v-210c-92.667 -20 -212 -30 -358 -30c-380.667 0 -571 179 -571 537c-0 342 174.333 513 523 513c348 0 491 -209.333 429 -628zM265 616h438c9.33301 150.667 -60.667 226 -210 226
c-140 0 -216 -75.333 -228 -226zM231 1278h180l70 130l70 -130h180l-175 260h-150z" />
    <glyph glyph-name="edieresis" unicode="&#xeb;" horiz-adv-x="1086" 
d="M952 422h-687c0 -141.333 115.333 -212 346 -212c106 0 212 10 318 30v-210c-92.667 -20 -212 -30 -358 -30c-380.667 0 -571 179 -571 537c-0 342 174.333 513 523 513c348 0 491 -209.333 429 -628zM265 616h438c9.33301 150.667 -60.667 226 -210 226
c-140 0 -216 -75.333 -228 -226zM759 1430v-190h-215v190h215zM419 1430v-190h-215v190h215z" />
    <glyph glyph-name="igrave" unicode="&#xec;" horiz-adv-x="515" 
d="M265 1050v-1050h-265v1050h265zM335 1385v-210l-400 150v210z" />
    <glyph glyph-name="iacute" unicode="&#xed;" horiz-adv-x="515" 
d="M265 1050v-1050h-265v1050h265zM335 1535v-210l-400 -150v210z" />
    <glyph glyph-name="icircumflex" unicode="&#xee;" horiz-adv-x="515" 
d="M265 1050v-1050h-265v1050h265zM-115 1278h180l70 130l70 -130h180l-175 260h-150z" />
    <glyph glyph-name="idieresis" unicode="&#xef;" horiz-adv-x="515" 
d="M265 1050v-1050h-265v1050h265zM410 1430v-190h-215v190h215zM70 1430v-190h-215v190h215z" />
    <glyph glyph-name="eth" unicode="&#xf0;" horiz-adv-x="483" 
 />
    <glyph glyph-name="ntilde" unicode="&#xf1;" 
d="M0 0v1050h205l33 -134c127.333 89.333 255.333 134 384 134c242 0 363 -130.333 363 -391v-659h-265v662c0 116 -57.667 174 -173 174c-92.667 0 -186.667 -44.333 -282 -133v-703h-265zM481 1459c90 -40 176.667 -33.333 260 20v-210c-70 -53.333 -150 -60 -240 -20
s-176.667 33.333 -260 -20v210c70 53.333 150 60 240 20z" />
    <glyph glyph-name="ograve" unicode="&#xf2;" horiz-adv-x="1180" 
d="M530 200c176.667 0 265 109.667 265 329c0 214 -88.333 321 -265 321s-265 -107 -265 -321c0 -219.333 88.333 -329 265 -329zM0 525c0 356.667 176.667 535 530 535s530 -178.333 530 -535c0 -356 -176.667 -534 -530 -534c-352 0 -528.667 178 -530 534zM724 1385v-210
l-400 150v210z" />
    <glyph glyph-name="oacute" unicode="&#xf3;" horiz-adv-x="1180" 
d="M530 200c176.667 0 265 109.667 265 329c0 214 -88.333 321 -265 321s-265 -107 -265 -321c0 -219.333 88.333 -329 265 -329zM0 525c0 356.667 176.667 535 530 535s530 -178.333 530 -535c0 -356 -176.667 -534 -530 -534c-352 0 -528.667 178 -530 534zM724 1535v-210
l-400 -150v210z" />
    <glyph glyph-name="ocircumflex" unicode="&#xf4;" horiz-adv-x="1180" 
d="M530 200c176.667 0 265 109.667 265 329c0 214 -88.333 321 -265 321s-265 -107 -265 -321c0 -219.333 88.333 -329 265 -329zM0 525c0 356.667 176.667 535 530 535s530 -178.333 530 -535c0 -356 -176.667 -534 -530 -534c-352 0 -528.667 178 -530 534zM278 1278h180
l70 130l70 -130h180l-175 260h-150z" />
    <glyph glyph-name="otilde" unicode="&#xf5;" horiz-adv-x="1180" 
d="M530 200c176.667 0 265 109.667 265 329c0 214 -88.333 321 -265 321s-265 -107 -265 -321c0 -219.333 88.333 -329 265 -329zM0 525c0 356.667 176.667 535 530 535s530 -178.333 530 -535c0 -356 -176.667 -534 -530 -534c-352 0 -528.667 178 -530 534zM517 1459
c90 -40 176.667 -33.333 260 20v-210c-70 -53.333 -150 -60 -240 -20s-176.667 33.333 -260 -20v210c70 53.333 150 60 240 20z" />
    <glyph glyph-name="odieresis" unicode="&#xf6;" horiz-adv-x="1180" 
d="M530 200c176.667 0 265 109.667 265 329c0 214 -88.333 321 -265 321s-265 -107 -265 -321c0 -219.333 88.333 -329 265 -329zM0 525c0 356.667 176.667 535 530 535s530 -178.333 530 -535c0 -356 -176.667 -534 -530 -534c-352 0 -528.667 178 -530 534zM803 1430v-190
h-215v190h215zM463 1430v-190h-215v190h215z" />
    <glyph glyph-name="divide" unicode="&#xf7;" horiz-adv-x="985" 
d="M0 630v-210h785v210h-785zM505 340v-190h-225v190h225zM505 900v-190h-225v190h225z" />
    <glyph glyph-name="oslash" unicode="&#xf8;" horiz-adv-x="1180" 
d="M-5 0l800 1050h258l-801 -1050h-257zM530 200c176.667 0 265 109.667 265 329c0 214 -88.333 321 -265 321s-265 -107 -265 -321c0 -219.333 88.333 -329 265 -329zM0 525c0 356.667 176.667 535 530 535s530 -178.333 530 -535c0 -356 -176.667 -534 -530 -534
c-352 0 -528.667 178 -530 534z" />
    <glyph glyph-name="ugrave" unicode="&#xf9;" 
d="M985 1050v-1050h-207l-32 134c-127.333 -89.333 -255.333 -134 -384 -134c-241.333 -0 -362 130.333 -362 391v659h265v-662c0 -116 57.333 -174 172 -174c92.667 0 187 44.333 283 133v703h265zM694 1385v-210l-400 150v210z" />
    <glyph glyph-name="uacute" unicode="&#xfa;" 
d="M985 1050v-1050h-207l-32 134c-127.333 -89.333 -255.333 -134 -384 -134c-241.333 -0 -362 130.333 -362 391v659h265v-662c0 -116 57.333 -174 172 -174c92.667 0 187 44.333 283 133v703h265zM694 1535v-210l-400 -150v210z" />
    <glyph glyph-name="ucircumflex" unicode="&#xfb;" 
d="M985 1050v-1050h-207l-32 134c-127.333 -89.333 -255.333 -134 -384 -134c-241.333 -0 -362 130.333 -362 391v659h265v-662c0 -116 57.333 -174 172 -174c92.667 0 187 44.333 283 133v703h265zM244 1278h180l70 130l70 -130h180l-175 260h-150z" />
    <glyph glyph-name="udieresis" unicode="&#xfc;" 
d="M985 1050v-1050h-207l-32 134c-127.333 -89.333 -255.333 -134 -384 -134c-241.333 -0 -362 130.333 -362 391v659h265v-662c0 -116 57.333 -174 172 -174c92.667 0 187 44.333 283 133v703h265zM775 1430v-190h-215v190h215zM435 1430v-190h-215v190h215z" />
    <glyph glyph-name="yacute" unicode="&#xfd;" horiz-adv-x="393" 
 />
    <glyph glyph-name="thorn" unicode="&#xfe;" horiz-adv-x="348" 
 />
    <glyph glyph-name="ydieresis" unicode="&#xff;" horiz-adv-x="393" 
 />
    <glyph glyph-name="Aogonek" unicode="&#x104;" horiz-adv-x="1562" 
d="M0 0l607 1430h285l620 -1430h-285l-180 390h-458l91 230h297l-234 537l-471 -1157h-272zM1512 0c-158.667 -64 -238 -129.999 -238 -197.999c0 -45.333 28.333 -68 85 -68s102.334 6.66699 137.001 20v-160c-40.667 -13.333 -90.334 -20 -149.001 -20
c-174 0 -261 67.667 -261 203c0 87.333 47 161.666 141 222.999h285z" />
    <glyph glyph-name="aogonek" unicode="&#x105;" horiz-adv-x="1165" 
d="M965 0c-134.667 -64 -202 -129.999 -202 -197.999c0 -45.333 28.333 -68 85 -68s102.334 6.66699 137.001 20v-160c-40.667 -13.333 -90.334 -20 -149.001 -20c-174 0 -261 67.667 -261 203c0 87.333 53.667 161.666 161 222.999h229zM0 327.001
c0 215.333 152 323 456 323c91.333 0 172.666 -6.66699 243.999 -20v69c0 94 -91 141 -273 141c-114.667 0 -228.667 -16.667 -342 -50v210c113.333 33.333 227.333 50 342 50c358.667 0 538 -115.333 538 -346v-704h-229l-19 74c-91.333 -49.333 -188.666 -74 -291.999 -74
c-283.333 0 -425 109 -425 327zM456 450.001c-127.333 0 -191 -40 -191 -120s53.333 -120 160 -120c108 0 199.667 27.333 275 82v138c-66.667 13.333 -148 20 -244 20z" />
    <glyph glyph-name="Cacute" unicode="&#x106;" horiz-adv-x="1390" 
d="M1190 300c-123.333 -53.333 -256.666 -80 -399.999 -80c-343.333 0 -515 171.667 -515 515c0 316.667 171.667 475 515 475c143.333 0 276.666 -26.667 399.999 -80v240c-123.333 46.667 -263.333 70 -420 70c-513.333 0 -770 -235 -770 -705
c0 -496.667 256.667 -745 770 -745c156.667 0 296.667 23.333 420 70v240zM871 1843v-210l-400 -150v210z" />
    <glyph glyph-name="cacute" unicode="&#x107;" horiz-adv-x="980" 
d="M870 240c-86.667 -20 -176.667 -30 -270 -30c-223.333 0 -335 111.667 -335 335c0 196.667 111.667 295 335 295c93.333 0 183.333 -10 270 -30v210c-86.667 20 -183.334 30 -290.001 30c-386.667 0 -580 -168.333 -580 -505c0 -363.333 193.333 -545 580 -545
c106.667 0 203.334 10 290.001 30v210zM689 1535v-210l-400 -150v210z" />
    <glyph glyph-name="Eogonek" unicode="&#x118;" horiz-adv-x="1238" 
d="M939 1430v-228h-676v-360h642v-237h-645v-375h693v-230h-953v1430h939zM953 0c-134.667 -64 -202 -129.999 -202 -197.999c0 -45.333 28.333 -68 85 -68s102.334 6.66699 137.001 20v-160c-40.667 -13.333 -90.334 -20 -149.001 -20c-174 0 -261 67.667 -261 203
c0 87.333 53.667 161.666 161 222.999h229z" />
    <glyph glyph-name="eogonek" unicode="&#x119;" horiz-adv-x="1086" 
d="M952 422h-687c0 -141.333 115.333 -212 346 -212c106 0 212 10 318 30v-210c-92.667 -20 -212 -30 -358 -30c-380.667 0 -571 179 -571 537c-0 342 174.333 513 523 513c348 0 491 -209.333 429 -628zM265 616h438c9.33301 150.667 -60.667 226 -210 226
c-140 0 -216 -75.333 -228 -226zM929 30c-134.667 -84 -202 -159.999 -202 -227.999c0 -45.333 28.333 -68 85 -68s102.334 6.66699 137.001 20v-160c-40.667 -13.333 -90.334 -20 -149.001 -20c-174 0 -261 67.667 -261 203c0 87.333 53.667 171.666 161 252.999h229z" />
    <glyph glyph-name="dotlessi" unicode="&#x131;" horiz-adv-x="234" 
 />
    <glyph glyph-name="Lslash" unicode="&#x141;" horiz-adv-x="1333" 
d="M-150 402l658 484v230l-658 -484v-230zM0 1430v-1430h933v230h-668v1200h-265z" />
    <glyph glyph-name="lslash" unicode="&#x142;" horiz-adv-x="565" 
d="M-150 402l565 420v230l-565 -420v-230zM0 1430v-1430h265v1430h-265z" />
    <glyph glyph-name="Nacute" unicode="&#x143;" horiz-adv-x="1615" 
d="M0 0v1430h265l795 -1022v1022h255v-1430h-265l-795 1044v-1044h-255zM888 1843v-210l-400 -150v210z" />
    <glyph glyph-name="nacute" unicode="&#x144;" 
d="M0 0v1050h205l33 -134c127.333 89.333 255.333 134 384 134c242 0 363 -130.333 363 -391v-659h-265v662c0 116 -57.667 174 -173 174c-92.667 0 -186.667 -44.333 -282 -133v-703h-265zM698 1535v-210l-400 -150v210z" />
    <glyph glyph-name="OE" unicode="&#x152;" horiz-adv-x="2215" 
d="M718 230c281.333 0 422 163 422 489c0 320.667 -140.667 481 -422 481c-295.333 0 -443 -160.333 -443 -481c0 -326 147.667 -489 443 -489zM0 713c0 478 239.332 717 717.999 717h1257v-230h-700c73.333 -74.667 120 -194.667 140 -360h525v-230h-525
c-14 -161.333 -57.667 -288 -131 -380h706v-230h-1272c-457.333 0 -696.666 237.667 -717.999 713z" />
    <glyph glyph-name="oe" unicode="&#x153;" horiz-adv-x="1837" 
d="M520 210c170 0 255 106.333 255 319c0 207.333 -85 311 -255 311s-255 -103.667 -255 -311c0 -212.667 85 -319 255 -319zM1050 616h408c9.33301 150.667 -54 226 -190 226c-133.333 0 -206 -75.333 -218 -226zM4 522c0 352 170.001 528 510.001 528
c176 0 304.333 -56.333 385 -169c78.667 112.667 207.667 169 387 169c344.667 0 484.667 -209.333 420 -628h-663c0 -141.333 120.667 -212 362 -212c98 0 191 9.33301 279 28v-206c-91.333 -21.333 -202.333 -32 -333 -32c-214.667 0 -365 48.667 -451 146
c-76.667 -97.333 -205.334 -146 -386.001 -146c-326 0 -496 174 -510 522z" />
    <glyph glyph-name="Sacute" unicode="&#x15a;" horiz-adv-x="1310" 
d="M40 60v240c143.333 -53.333 305.333 -80 486 -80c219.333 0 329 73.333 329 220c0 106.667 -67.333 160 -202 160h-244c-292.667 0 -439 133.333 -439 400c0 293.333 208.333 440 625 440c160 0 311.667 -23.333 455 -70v-240c-143.333 53.333 -295 80 -455 80
c-240 0 -360 -70 -360 -210c0 -106.667 58 -160 174 -160h244c311.333 0 467 -133.333 467 -400c0 -300 -198 -450 -594 -450c-180.667 0 -342.667 23.333 -486 70zM742 1843v-210l-400 -150v210z" />
    <glyph glyph-name="sacute" unicode="&#x15b;" horiz-adv-x="1025" 
d="M30 50v220c116.667 -46.667 251.334 -70 404.001 -70c114 0 171 36.667 171 110c0 66.667 -38.333 100 -115 100h-190c-213.333 0 -320 106.667 -320 320c0 220 155.667 330 467 330c132 0 256.333 -20 373 -60v-220c-116.667 46.667 -243.334 70 -380.001 70
c-143.333 0 -215 -36.667 -215 -110c0 -66.667 41.667 -100 125 -100h180c226.667 0 340 -106.667 340 -320c0 -220 -148.667 -330 -446 -330c-146 0 -277.333 20 -394 60zM605 1535v-210l-400 -150v210z" />
    <glyph glyph-name="Scaron" unicode="&#x160;" horiz-adv-x="621" 
 />
    <glyph glyph-name="scaron" unicode="&#x161;" horiz-adv-x="342" 
 />
    <glyph glyph-name="Ydieresis" unicode="&#x178;" horiz-adv-x="526" 
 />
    <glyph glyph-name="Zacute" unicode="&#x179;" horiz-adv-x="1250" 
d="M20 1430v-230h774l-794 -970v-230h1040v230h-741l761 970v230h-1040zM746 1843v-210l-400 -150v210z" />
    <glyph glyph-name="zacute" unicode="&#x17a;" horiz-adv-x="990" 
d="M20 1050h810v-210l-537 -640h537v-200h-830v200l545 640h-525v210zM618 1535v-210l-400 -150v210z" />
    <glyph glyph-name="Zdot" unicode="&#x17b;" horiz-adv-x="1250" 
d="M20 1430v-230h774l-794 -970v-230h1040v230h-741l761 970v230h-1040zM655 1789v-220h-245v220h245z" />
    <glyph glyph-name="zdot" unicode="&#x17c;" horiz-adv-x="990" 
d="M20 1050h810v-210l-537 -640h537v-200h-830v200l545 640h-525v210zM314 1430v-220h235v220h-235z" />
    <glyph glyph-name="Zcaron" unicode="&#x17d;" horiz-adv-x="690" 
 />
    <glyph glyph-name="zcaron" unicode="&#x17e;" horiz-adv-x="462" 
 />
    <glyph glyph-name="florin" unicode="&#x192;" horiz-adv-x="576" 
 />
    <glyph glyph-name="circumflex" unicode="&#x2c6;" horiz-adv-x="550" 
d="M0 1278h180l70 130l70 -130h180l-175 260h-150z" />
    <glyph glyph-name="caron" unicode="&#x2c7;" horiz-adv-x="360" 
 />
    <glyph glyph-name="breve" unicode="&#x2d8;" horiz-adv-x="360" 
 />
    <glyph glyph-name="dotaccent" unicode="&#x2d9;" horiz-adv-x="183" 
 />
    <glyph glyph-name="ring" unicode="&#x2da;" horiz-adv-x="582" 
d="M288 1441c82.667 0 124 42.333 124 127c0 76 -41.333 114 -124 114c-78.667 0 -118 -38 -118 -114c0 -84.667 39.333 -127 118 -127zM0 1566c0 180 96 270 288 270c196 0 294 -90 294 -270c0 -186 -98 -279 -294 -279c-192 0 -288 93 -288 279z" />
    <glyph glyph-name="ogonek" unicode="&#x2db;" horiz-adv-x="270" 
 />
    <glyph glyph-name="tilde" unicode="&#x2dc;" horiz-adv-x="700" 
d="M240 630c90 -40 176.667 -33.333 260 20v-210c-70 -53.333 -150 -60 -240 -20s-176.667 33.333 -260 -20v210c70 53.333 150 60 240 20z" />
    <glyph glyph-name="hungarumlaut" unicode="&#x2dd;" horiz-adv-x="468" 
 />
    <glyph glyph-name="Delta" unicode="&#x394;" horiz-adv-x="366" 
 />
    <glyph glyph-name="Delta" unicode="&#x2206;" horiz-adv-x="366" 
 />
    <glyph glyph-name="Omega" unicode="&#x3a9;" horiz-adv-x="1443" 
 />
    <glyph glyph-name="Omega" unicode="&#x2126;" horiz-adv-x="1443" 
 />
    <glyph glyph-name="pi" unicode="&#x3c0;" horiz-adv-x="798" 
 />
    <glyph glyph-name="endash" unicode="&#x2013;" horiz-adv-x="684" 
 />
    <glyph glyph-name="emdash" unicode="&#x2014;" horiz-adv-x="894" 
 />
    <glyph glyph-name="quoteleft" unicode="&#x2018;" horiz-adv-x="595" 
d="M-1 1430l150 -435h245l-150 435h-245z" />
    <glyph glyph-name="quoteright" unicode="&#x2019;" horiz-adv-x="595" 
d="M150 1430l-150 -435h245l150 435h-245z" />
    <glyph glyph-name="quotesinglbase" unicode="&#x201a;" horiz-adv-x="234" 
 />
    <glyph glyph-name="quotedblleft" unicode="&#x201c;" horiz-adv-x="1025" 
d="M580 1430l-150 -435h245l150 435h-245zM150 1430l-150 -435h245l150 435h-245z" />
    <glyph glyph-name="quotedblright" unicode="&#x201d;" horiz-adv-x="1025" 
d="M0 1430l150 -435h245l-150 435h-245zM430 1430l150 -435h245l-150 435h-245z" />
    <glyph glyph-name="quotedblbase" unicode="&#x201e;" horiz-adv-x="1025" 
d="M580 185l-150 -435h245l150 435h-245zM150 185l-150 -435h245l150 435h-245z" />
    <glyph glyph-name="dagger" unicode="&#x2020;" horiz-adv-x="1115" 
d="M265 1430v-420h370v-230h-370v-780h-265v780h-380v230h380v420h265z" />
    <glyph glyph-name="daggerdbl" unicode="&#x2021;" horiz-adv-x="336" 
 />
    <glyph glyph-name="bullet" unicode="&#x2022;" horiz-adv-x="630" 
d="M0 725c0 143.333 71.667 215 215 215s215 -71.667 215 -215s-71.667 -215 -215 -215s-215 71.667 -215 215z" />
    <glyph glyph-name="ellipsis" unicode="&#x2026;" horiz-adv-x="792" 
 />
    <glyph glyph-name="perthousand" unicode="&#x2030;" horiz-adv-x="2231" 
d="M265 0h-265l1017 1430h265zM328 995c89.333 0 134 49 134 147c0 82.667 -44.667 124 -134 124c-92 0 -138 -41.333 -138 -124c0 -98 46 -147 138 -147zM0 1140c0 200 109.333 300 328 300c216 0 324 -100 324 -300c0 -212.667 -108 -319 -324 -319
c-218.667 0 -328 106.333 -328 319zM1707 164c89.333 0 134 45.667 134 137c0 89.333 -44.667 134 -134 134c-92 0 -138 -44.667 -138 -134c0 -91.333 46 -137 138 -137zM1379 299c0 206.667 109.333 310 328 310c216 0 324 -103.333 324 -310c0 -206 -108 -309 -324 -309
c-218.667 0 -328 103 -328 309zM978 164c89.333 0 134 45.667 134 137c0 89.333 -44.667 134 -134 134c-92 0 -138 -44.667 -138 -134c0 -91.333 46 -137 138 -137zM650 299c0 206.667 109.333 310 328 310c216 0 324 -103.333 324 -310c0 -206 -108 -309 -324 -309
c-218.667 0 -328 103 -328 309z" />
    <glyph glyph-name="guilsinglleft" unicode="&#x2039;" horiz-adv-x="630" 
d="M258 150h272l-258 375l258 375h-272l-258 -375z" />
    <glyph glyph-name="guilsinglright" unicode="&#x203a;" horiz-adv-x="630" 
d="M530 525l-258 375h-272l258 -375l-258 -375h272z" />
    <glyph glyph-name="fraction" unicode="&#x2044;" horiz-adv-x="234" 
 />
    <glyph glyph-name="Euro" unicode="&#x20ac;" horiz-adv-x="1385" 
d="M1150 290c-123.333 -46.667 -250.001 -70 -380.001 -70c-285.333 0 -447 90.667 -485 272h673v210h-693v70h693v210h-673c44.667 152 206.334 228 485.001 228c130 0 256.667 -23.333 380 -70v240c-123.333 40 -256.666 60 -399.999 60c-500 0 -750 -235 -750 -705
c0 -496.667 250 -745 750 -745c143.333 0 276.666 20 399.999 60v240z" />
    <glyph glyph-name="trademark" unicode="&#x2122;" horiz-adv-x="1606" 
d="M511 1430v-71h-212v-602h-87v602h-212v71h511zM600 757v673h110l248 -561l242 561h106v-673h-78v543l-239 -543h-69l-243 543v-543h-77z" />
    <glyph glyph-name="partialdiff" unicode="&#x2202;" horiz-adv-x="483" 
 />
    <glyph glyph-name="product" unicode="&#x220f;" horiz-adv-x="798" 
 />
    <glyph glyph-name="summation" unicode="&#x2211;" horiz-adv-x="1398" 
 />
    <glyph glyph-name="radical" unicode="&#x221a;" horiz-adv-x="819" 
 />
    <glyph glyph-name="infinity" unicode="&#x221e;" horiz-adv-x="669" 
 />
    <glyph glyph-name="integral" unicode="&#x222b;" horiz-adv-x="1398" 
 />
    <glyph glyph-name="approxequal" unicode="&#x2248;" horiz-adv-x="636" 
 />
    <glyph glyph-name="approxequal" unicode="&#x22f2;" horiz-adv-x="636" 
 />
    <glyph glyph-name="notequal" unicode="&#x2260;" horiz-adv-x="636" 
 />
    <glyph glyph-name="lessequal" unicode="&#x2264;" horiz-adv-x="342" 
 />
    <glyph glyph-name="greaterequal" unicode="&#x2265;" horiz-adv-x="342" 
 />
    <glyph glyph-name="lozenge" unicode="&#x25ca;" horiz-adv-x="243" 
 />
    <glyph glyph-name="apple" unicode="&#xf000;" horiz-adv-x="588" 
 />
    <glyph glyph-name="fi" unicode="&#xf001;" horiz-adv-x="525" 
 />
    <glyph glyph-name="fl" unicode="&#xf002;" horiz-adv-x="480" 
 />
    <glyph glyph-name=".null" horiz-adv-x="0" 
 />
    <glyph glyph-name="nonmarkingreturn" horiz-adv-x="390" 
 />
    </font>
</defs>
</svg>
