<?xml version="1.0" standalone="no"?>
<!DOCTYPE svg PUBLIC "-//W3C//DTD SVG 1.1//EN" "http://www.w3.org/Graphics/SVG/1.1/DTD/svg11.dtd" >
<svg xmlns="http://www.w3.org/2000/svg">
<metadata></metadata>
<defs>
<font id="surf_lightultralight" horiz-adv-x="817" >
<font-face units-per-em="2048" ascent="1614" descent="-434" />
<missing-glyph horiz-adv-x="583" />
<glyph horiz-adv-x="0" />
<glyph unicode="&#xd;" horiz-adv-x="583" />
<glyph horiz-adv-x="0" />
<glyph horiz-adv-x="0" />
<glyph unicode=" "  horiz-adv-x="583" />
<glyph unicode="&#x09;" horiz-adv-x="583" />
<glyph unicode="&#xa0;" horiz-adv-x="583" />
<glyph unicode="!" horiz-adv-x="229" d="M57 41v27q0 16 10.5 28.5t30.5 12.5h25q16 0 28.5 -11.5t12.5 -29.5v-27q0 -41 -41 -41h-25q-41 0 -41 41zM57 399v1010q0 16 10.5 28.5t30.5 12.5h23q16 0 29.5 -11.5t13.5 -29.5v-1010q0 -41 -43 -41h-23q-41 0 -41 41z" />
<glyph unicode="&#x22;" horiz-adv-x="464" d="M82 1184v250q0 16 10 28.5t31 12.5h22q16 0 29.5 -11.5t13.5 -29.5v-250q0 -43 -43 -43h-22q-41 0 -41 43zM274 1184v250q0 16 10.5 28.5t30.5 12.5h23q16 0 29.5 -11.5t13.5 -29.5v-250q0 -43 -43 -43h-23q-41 0 -41 43z" />
<glyph unicode="#" horiz-adv-x="796" d="M41 483v23q0 41 43 41h94v334h-94q-43 0 -43 43v22q0 41 43 41h94v354q0 16 10.5 28.5t30.5 12.5h23q16 0 29.5 -11t13.5 -30v-354h227v354q0 16 10 28.5t31 12.5h22q16 0 29.5 -11t13.5 -30v-354h97q16 0 28.5 -10t12.5 -31v-22q0 -16 -11.5 -29.5t-29.5 -13.5h-97v-334 h97q16 0 28.5 -10.5t12.5 -30.5v-23q0 -16 -11.5 -29.5t-29.5 -13.5h-97v-397q0 -43 -43 -43h-22q-41 0 -41 43v397h-227v-397q0 -43 -43 -43h-23q-41 0 -41 43v397h-94q-43 0 -43 43zM285 547h227v334h-227v-334z" />
<glyph unicode="$" horiz-adv-x="684" d="M31 291v31q0 16 10 28t31 12h22q16 0 29.5 -11t13.5 -29v-9q0 -35 5 -71.5t21.5 -69.5t44.5 -58.5t75 -35.5v600l-162 186q-41 49 -63.5 104.5t-22.5 123.5q0 57 18.5 108t51 91t78.5 69t100 39v174q0 16 10 28.5t31 12.5h22q16 0 29.5 -11.5t13.5 -29.5v-172 q57 -8 105.5 -36t83 -69t55 -94t20.5 -110v-25q0 -16 -10 -28.5t-31 -12.5h-22q-39 0 -43 41q-4 92 -38 153.5t-120 77.5v-585l166 -193q29 -35 48.5 -62.5t31.5 -54t17 -53t5 -59.5q0 -55 -20.5 -107.5t-56 -94.5t-85 -71.5t-106.5 -37.5v-197q0 -43 -43 -43h-22 q-41 0 -41 43v199q-59 8 -106.5 36.5t-80.5 69.5t-49 93t-16 110zM137 1092q0 -41 13.5 -81t46.5 -75q23 -25 43 -50.5t43 -49.5v456q-63 -20 -104.5 -74t-41.5 -126zM389 76q72 16 119 76.5t47 138.5q0 41 -23.5 83t-52.5 77l-90 104v-479z" />
<glyph unicode="%" horiz-adv-x="1216" d="M49 901v248q0 51 20.5 98t55.5 82t81 55.5t99 20.5q51 0 98.5 -20.5t82 -55.5t55 -82t20.5 -98v-248q0 -53 -20.5 -99t-55 -81t-82 -55.5t-98.5 -20.5q-53 0 -99 20.5t-81 55.5t-55.5 81t-20.5 99zM156 901q0 -59 44 -103t105 -44q59 0 102.5 44t43.5 103v248 q0 59 -43 104t-103 45q-61 0 -105 -45t-44 -104v-248zM299 39l502 1302q10 27 22.5 34t34.5 7h27q29 0 34 -10t-6 -39l-507 -1304q-12 -29 -46 -29h-38q-37 0 -23 39zM653 227v248q0 51 20.5 98.5t55.5 82t81 55t99 20.5q51 0 98.5 -20.5t82 -55t55 -82t20.5 -98.5v-248 q0 -53 -20.5 -99t-55 -81t-81.5 -55.5t-99 -20.5q-53 0 -99 20.5t-81 55.5t-55.5 81t-20.5 99zM760 227q0 -59 44 -103t105 -44q59 0 102.5 44t43.5 103v248q0 59 -43 104.5t-103 45.5q-61 0 -105 -45t-44 -105v-248z" />
<glyph unicode="&#x26;" horiz-adv-x="923" d="M70 305v146q0 51 9 90t26.5 70.5t43 58t60.5 57.5q-139 117 -139 274v121q0 68 25.5 128.5t69.5 104.5t104.5 69.5t127.5 25.5h76q16 0 28.5 -10t12.5 -31v-23q0 -16 -11 -29.5t-30 -13.5h-76q-45 0 -85 -17t-70.5 -48t-48 -71t-17.5 -85v-121q0 -45 17.5 -84.5t48 -70.5 t70.5 -48.5t85 -17.5h224v144q0 16 10 28.5t31 12.5h22q16 0 29.5 -11.5t13.5 -29.5v-144h143q16 0 28.5 -10t12.5 -31v-22q0 -16 -11 -29.5t-30 -13.5h-143v-369q0 -68 -25.5 -128t-70.5 -105t-104.5 -71t-129.5 -26q-68 0 -128 26t-104 71t-69.5 105.5t-25.5 127.5z M176 305q0 -47 17.5 -87t48 -70.5t70.5 -48t85 -17.5t86 17.5t72 48t48.5 70.5t17.5 87v369h-224q-45 0 -85 -17.5t-70.5 -48t-48 -71.5t-17.5 -86v-146z" />
<glyph unicode="'" horiz-adv-x="276" d="M80 1186v250q0 16 10 28.5t31 12.5h22q16 0 29.5 -11.5t13.5 -29.5v-250q0 -43 -43 -43h-22q-41 0 -41 43z" />
<glyph unicode="(" horiz-adv-x="425" d="M70 -94v1216q0 63 23.5 120.5t63.5 100.5t94.5 71t117.5 34q16 0 28.5 -10.5t12.5 -30.5v-23q0 -18 -11.5 -30.5t-29.5 -12.5q-86 -10 -139.5 -71.5t-53.5 -147.5v-1216q0 -86 53.5 -147.5t139.5 -73.5q16 0 28.5 -10.5t12.5 -30.5v-23q0 -18 -11.5 -30.5t-29.5 -12.5 q-63 6 -117.5 34t-94.5 71t-63.5 100t-23.5 123z" />
<glyph unicode=")" horiz-adv-x="428" d="M16 -356q0 20 12.5 30.5t28.5 10.5q86 12 139.5 73.5t53.5 147.5v1216q0 86 -53.5 147.5t-139.5 71.5q-18 0 -29.5 12.5t-11.5 30.5v23q0 20 12.5 30.5t28.5 10.5q63 -6 117.5 -34t94.5 -71t63.5 -100t23.5 -121v-1216q0 -66 -23.5 -123t-63.5 -100t-94 -71t-118 -34 q-18 0 -29.5 12.5t-11.5 30.5v23z" />
<glyph unicode="*" horiz-adv-x="724" d="M35 694v23q0 41 43 41h190l-92 157q-20 39 17 60l18 10q37 23 57 -14l90 -158l93 158q23 35 57 14l18 -10q37 -20 17 -60l-92 -157h200q16 0 28.5 -10.5t12.5 -30.5v-23q0 -16 -11 -29.5t-30 -13.5h-198l104 -178q8 -12 5 -28.5t-21 -24.5l-19 -12q-14 -10 -30.5 -7.5 t-26.5 19.5l-107 180l-104 -180q-10 -16 -26.5 -19.5t-30.5 7.5l-19 12q-18 8 -21 24.5t5 28.5l102 178h-186q-43 0 -43 43z" />
<glyph unicode="+" horiz-adv-x="679" d="M12 684v23q0 41 43 41h232v233q0 43 43 43h22q41 0 41 -43v-233h236q16 0 28.5 -10.5t12.5 -30.5v-23q0 -16 -11.5 -29.5t-29.5 -13.5h-236v-233q0 -16 -10 -28.5t-31 -12.5h-22q-16 0 -29.5 11t-13.5 30v233h-232q-43 0 -43 43z" />
<glyph unicode="," horiz-adv-x="219" d="M51 41v25q0 41 41 40h29q16 0 28.5 -10t12.5 -30v-66q0 -41 -9.5 -71.5t-22.5 -49t-26.5 -25t-21.5 2.5l-12 12q-6 8 -3 16.5t10 18.5t14 23.5t7 31.5v21q0 10 -1 15t-11 5q-35 4 -35 41z" />
<glyph unicode="-" d="M80 541v22q0 41 43 41h573q16 0 28.5 -10t12.5 -31v-22q0 -16 -11 -29.5t-30 -13.5h-573q-43 0 -43 43z" />
<glyph unicode="." horiz-adv-x="253" d="M74 41v25q0 16 10 28t31 12h24q16 0 28.5 -11t12.5 -29v-25q0 -41 -41 -41h-24q-41 0 -41 41z" />
<glyph unicode="/" horiz-adv-x="651" d="M20 39l502 1302q10 27 22.5 34t35.5 7h26q29 0 34 -10t-5 -39l-508 -1304q-12 -29 -45 -29h-39q-37 0 -23 39z" />
<glyph unicode="0" horiz-adv-x="804" d="M72 305v776q0 68 25.5 128.5t70.5 104.5t105.5 69.5t127.5 25.5q68 0 128.5 -25.5t105.5 -69.5t70.5 -104.5t25.5 -128.5v-776q0 -68 -25.5 -128t-70.5 -105t-105.5 -71t-128.5 -26t-128 26t-105 71t-70.5 105.5t-25.5 127.5zM180 305q0 -47 17.5 -87t47 -70.5t69.5 -48 t87 -17.5q45 0 86 17.5t71 48t47.5 70.5t17.5 87v776q0 45 -17.5 85t-47.5 71t-71 48.5t-86 17.5q-47 0 -87 -17.5t-69.5 -48.5t-47 -71t-17.5 -85v-776z" />
<glyph unicode="1" horiz-adv-x="356" d="M20 1262q-16 37 23 55l137 59q8 6 25 6h22q16 0 29.5 -11t13.5 -30v-1298q0 -43 -43 -43h-22q-41 0 -41 43v1208l-78 -32q-41 -18 -57 22z" />
<glyph unicode="2" horiz-adv-x="800" d="M66 0v102q33 47 97 135.5t167 217.5q102 129 167.5 217t94.5 135q16 29 20 52.5t4 45.5v150q0 45 -17 85t-47 70.5t-71 48t-86 17.5q-47 0 -87 -17.5t-70.5 -48t-48 -70.5t-17.5 -85v-29q0 -18 -13.5 -29.5t-29.5 -11.5h-23q-20 0 -30 12.5t-10 28.5v29q0 68 25.5 128 t70.5 104t105.5 69.5t127.5 25.5q68 0 128.5 -25.5t105.5 -69.5t70.5 -104.5t25.5 -127.5v-150q0 -59 -25.5 -114.5t-62.5 -104.5l-438 -580h526q16 0 28.5 -10t12.5 -30v-23q0 -16 -11.5 -29.5t-29.5 -13.5h-659z" />
<glyph unicode="3" horiz-adv-x="778" d="M55 305q0 47 41 47h23q18 0 30.5 -11t12.5 -36q0 -47 17.5 -87t48 -70.5t70.5 -48t85 -17.5t86 17.5t71.5 48t48 70.5t17.5 87v158q0 86 -56 142.5t-142 66.5q-16 0 -28.5 10t-12.5 31v22q0 18 11 30.5t30 12.5q86 10 142 67.5t56 143.5v64q0 45 -17.5 85t-48 70.5 t-71.5 48t-86 17.5t-85 -17.5t-70.5 -48t-48 -70.5t-17.5 -85v-29q0 -18 -12.5 -29.5t-30.5 -11.5h-23q-20 0 -30.5 12.5t-10.5 28.5v29q0 68 25.5 128t70 104t104.5 69.5t128 25.5q70 0 129 -25.5t104.5 -69.5t71 -104.5t25.5 -127.5v-64q0 -29 -8.5 -66.5t-25.5 -75.5 t-43 -71t-63 -51q33 -23 59.5 -55.5t44 -68.5t27 -71.5t9.5 -66.5v-158q0 -68 -25.5 -128t-71 -105t-104.5 -71t-129 -26q-68 0 -128 26t-104.5 71t-70 105.5t-25.5 127.5z" />
<glyph unicode="4" horiz-adv-x="741" d="M6 272v66l481 1003q8 16 18.5 27.5t29.5 11.5h22q16 0 29.5 -11t13.5 -30v-1001h51q16 -2 28.5 -12.5t12.5 -30.5v-23q0 -16 -11 -29.5t-30 -13.5h-51v-186q0 -43 -43 -43h-22q-41 0 -41 43v186h-445q-43 0 -43 43zM121 338h373v764z" />
<glyph unicode="5" horiz-adv-x="774" d="M72 305v25q0 16 10 28.5t31 12.5h22q39 0 43 -41q2 -31 9.5 -74t30 -82t65.5 -65.5t116 -26.5q45 0 86 17.5t72 48t48.5 70.5t17.5 87v289q0 45 -18.5 86t-50.5 71.5t-75 48t-94 17.5q-18 0 -48 -2t-61.5 -11t-59.5 -29.5t-40 -59.5h-104v667h616q16 0 28.5 -10t12.5 -31 v-22q0 -18 -11 -30.5t-30 -12.5h-510v-418q23 29 79 47.5t126 18.5q74 0 137.5 -27t109.5 -72t72.5 -104t26.5 -127v-289q0 -68 -25.5 -128t-70.5 -105t-104.5 -71t-129.5 -26q-68 0 -128 26t-104 71t-69.5 105.5t-25.5 127.5z" />
<glyph unicode="6" horiz-adv-x="794" d="M72 305v748q0 68 25.5 128t70.5 104t105.5 69.5t127.5 25.5q63 0 118.5 -21.5t99 -59t71 -89t35.5 -112.5q0 -18 -12.5 -29.5t-30.5 -11.5h-23q-20 0 -27 12t-14 29q-10 31 -21 62.5t-33.5 57t-60.5 41t-102 15.5q-45 0 -85 -17.5t-70.5 -48t-48 -70.5t-17.5 -85v-246 q49 35 104.5 59.5t116.5 24.5q68 0 128.5 -25.5t105.5 -70.5t70.5 -104.5t25.5 -129.5v-256q0 -68 -25.5 -128t-70.5 -105t-105.5 -71t-128.5 -26t-128 26t-105 71t-70.5 105.5t-25.5 127.5zM180 305q0 -47 17.5 -87t48 -70.5t70.5 -48t85 -17.5t86 17.5t71 48t47.5 70.5 t17.5 87v256q0 45 -17.5 86t-47.5 72t-71 48t-86 17q-43 0 -82.5 -16t-70.5 -44t-49.5 -67t-18.5 -84v-268z" />
<glyph unicode="7" horiz-adv-x="669" d="M33 1319v22q0 41 43 41h542q18 0 31 -12t13 -31v-34q0 -12 -5 -29l-497 -1239q-10 -25 -21.5 -31t-25.5 -6h-45q-18 0 -23.5 7t-3.5 16.5t7 20.5t9 22l494 1210h-475q-43 0 -43 43z" />
<glyph unicode="8" horiz-adv-x="794" d="M68 305v144q0 31 6 71.5t26 79.5q23 41 46.5 68.5t64.5 58.5q-82 53 -112.5 130t-30.5 142v56q0 68 25.5 128t70.5 104t105.5 69.5t127.5 25.5q68 0 128.5 -25.5t105.5 -69.5t70.5 -104.5t25.5 -127.5v-56q0 -31 -8 -68.5t-25.5 -74.5t-43 -70.5t-62.5 -58.5 q39 -25 65.5 -59.5t43 -72.5t23.5 -76t7 -70v-144q0 -68 -25.5 -128t-70.5 -105t-105.5 -71t-128.5 -26t-128 26t-105 71t-70.5 105.5t-25.5 127.5zM174 305q0 -47 17.5 -87t48 -70.5t70.5 -48t87 -17.5q45 0 85 17.5t71 48t48 70.5t17 87v144q0 43 -16 82.5t-45 70.5 t-70 49.5t-90 18.5q-47 0 -87 -17.5t-70.5 -47.5t-48 -70.5t-17.5 -85.5v-144zM174 999q0 -45 17.5 -85t48 -70.5t70.5 -48t87 -17.5q45 0 85 17.5t71 48t48 70.5t17 85v56q0 45 -17 85t-48 70.5t-71 48t-85 17.5q-47 0 -87 -17.5t-70.5 -48t-48 -70.5t-17.5 -85v-56z" />
<glyph unicode="9" horiz-adv-x="796" d="M63 795v256q0 68 26 128t71 105t105.5 70.5t127.5 25.5q68 0 128.5 -25.5t105.5 -70.5t70.5 -105.5t25.5 -127.5v-748q0 -68 -25.5 -128t-70.5 -104t-105.5 -70t-128.5 -26q-63 0 -118.5 21.5t-98.5 59.5t-70.5 89.5t-35.5 112.5q0 18 12 29.5t31 11.5h22 q20 0 27.5 -12.5t13.5 -28.5q10 -31 21.5 -62.5t34 -57t60.5 -41t101 -15.5q45 0 85 17.5t71 48t48 70.5t17 85v246q-49 -35 -104 -59.5t-117 -24.5q-68 0 -128 25.5t-105 69.5t-71 104.5t-26 130.5zM172 795q0 -47 17.5 -87t47 -71t69.5 -48.5t87 -17.5q43 0 83 16.5t71 44 t49 66.5t18 84v269q0 45 -17 86t-48 71.5t-71 48t-85 17.5q-47 0 -87 -17.5t-69.5 -48t-47 -71.5t-17.5 -86v-256z" />
<glyph unicode=":" horiz-adv-x="225" d="M66 41v25q0 16 10 28t31 12h24q16 0 28.5 -11t12.5 -29v-25q0 -41 -41 -41h-24q-41 0 -41 41zM66 811v25q0 16 10 28t31 12h24q16 0 28.5 -11t12.5 -29v-25q0 -41 -41 -41h-24q-41 0 -41 41z" />
<glyph unicode=";" horiz-adv-x="135" d="M19 811v25q0 16 10 28t31 12h24q16 0 28.5 -11t12.5 -29v-25q0 -41 -41 -41h-24q-41 0 -41 41zM24 41v25q0 41 41 40h29q16 0 28.5 -10t12.5 -30v-66q0 -41 -9.5 -71.5t-22.5 -49t-26.5 -25t-21.5 2.5l-12 12q-6 8 -3 16.5t10 18.5t14 23.5t7 31.5v21q0 10 -1 15t-11 5 q-35 4 -35 41z" />
<glyph unicode="&#x3c;" horiz-adv-x="602" d="M29 487q-25 25 4 54l407 407q14 14 29.5 12t30.5 -14l16 -14q16 -12 14 -29.5t-14 -30.5l-360 -360l360 -360q12 -12 11 -30t-13 -30l-16 -16q-29 -29 -58 0z" />
<glyph unicode="=" horiz-adv-x="821" d="M82 573v23q0 41 43 41h573q16 0 28.5 -10.5t12.5 -30.5v-23q0 -16 -11 -29.5t-30 -13.5h-573q-43 0 -43 43zM82 786v23q0 41 43 41h573q16 0 28.5 -10.5t12.5 -30.5v-23q0 -16 -11 -29.5t-30 -13.5h-573q-43 0 -43 43z" />
<glyph unicode="&#x3e;" horiz-adv-x="602" d="M72 902q-2 18 14 30l16 14q14 12 29.5 14.5t30.5 -12.5l407 -407q29 -29 4 -54l-411 -411q-12 -12 -27.5 -13.5t-30.5 13.5l-16 16q-12 12 -13 29.5t11 30.5l360 360l-360 360q-12 12 -14 30z" />
<glyph unicode="?" horiz-adv-x="690" d="M12 1118v29q0 68 25.5 128t70 104t104.5 70t128 26q70 0 129 -26t104 -70t71 -104.5t26 -127.5v-170q0 -43 -17.5 -82t-46 -75t-64.5 -67.5t-73 -62.5q-47 -41 -74.5 -87t-27.5 -101v-144q0 -18 -13.5 -29.5t-29.5 -11.5h-23q-20 0 -30.5 12.5t-10.5 28.5v144 q0 51 15.5 94t42 81t62.5 71.5t79 68.5q37 31 56.5 55.5t29.5 38.5q18 25 18 76v160q0 45 -17.5 85t-48 70.5t-71.5 48t-86 17.5t-85 -17.5t-70.5 -48t-48 -70.5t-17.5 -85v-29q0 -18 -13.5 -29.5t-29.5 -11.5h-23q-20 0 -30.5 12.5t-10.5 28.5zM260 43v23q0 16 10.5 28 t30.5 12h23q16 0 29.5 -11t13.5 -29v-23q0 -43 -43 -43h-23q-41 0 -41 43z" />
<glyph unicode="@" horiz-adv-x="772" d="M74 291v801q0 66 24.5 123t66.5 99t99.5 66.5t122.5 24.5q66 0 123 -24.5t99 -66.5t66.5 -99.5t24.5 -122.5v-631q0 -27 -26 -27h-51q-25 0 -25 27v14q-12 -18 -31.5 -28.5t-40 -16.5t-39 -8t-26.5 -2q-86 0 -145.5 58.5t-59.5 144.5t59.5 141t145.5 55h137v273 q0 43 -16.5 81.5t-45 67.5t-67.5 45.5t-82 16.5t-82 -16.5t-67.5 -45.5t-45 -67.5t-16.5 -81.5v-801q0 -43 16.5 -82t45 -67.5t67.5 -45t82 -16.5q88 0 147.5 61.5t59.5 149.5q0 16 10 28.5t31 12.5h22q16 0 29.5 -11.5t13.5 -29.5q0 -66 -24.5 -123t-66.5 -99t-99 -67 t-123 -25t-123 25t-99 67t-66.5 99t-24.5 123zM352 623q0 -47 35 -80t86 -33q47 0 84 26.5t41 75.5v119h-125q-51 0 -86 -30.5t-35 -77.5z" />
<glyph unicode="A" horiz-adv-x="749" d="M41 39l260 1300q4 18 14.5 30.5t28.5 12.5h62q18 0 28 -12t15 -31l260 -1300q1 -6 1 -12q0 -27 -34 -27h-27q-39 0 -47 39l-33 151h-391l-26 -151q-6 -39 -48 -39h-24q-40 0 -40 28q0 5 1 11zM201 289h350l-174 866z" />
<glyph unicode="B" horiz-adv-x="778" d="M82 43v1296q0 18 12 30.5t31 12.5h272q66 0 123.5 -24.5t99.5 -66.5t66.5 -99t24.5 -123v-129q0 -27 -8.5 -60.5t-24.5 -67.5t-42 -62.5t-61 -42.5q20 -12 45 -36t44.5 -57.5t33 -79t13.5 -102.5v-119q0 -66 -24.5 -123t-66.5 -99t-99.5 -66.5t-123.5 -24.5h-272 q-18 0 -30.5 12.5t-12.5 30.5zM184 102h213q43 0 81 16.5t67.5 45.5t46 67.5t16.5 81.5v117q0 43 -16.5 82t-46 67.5t-67.5 45t-81 16.5h-213v-539zM184 743h213q43 0 81 16.5t67.5 45.5t46 67.5t16.5 81.5v115q0 43 -16.5 81t-46 67.5t-67.5 46t-81 16.5h-213v-537z" />
<glyph unicode="C" horiz-adv-x="755" d="M74 291v801q0 66 24.5 123t66.5 99t99.5 66.5t122.5 24.5q66 0 123 -24.5t99 -66.5t66.5 -99t24.5 -123q0 -16 -10 -28.5t-33 -12.5h-16q-14 0 -27.5 11t-13.5 30q0 43 -16.5 81.5t-46 67.5t-68.5 45.5t-82 16.5t-81 -16.5t-67.5 -45.5t-46 -67.5t-16.5 -81.5v-801 q0 -43 16.5 -82t46 -67.5t67.5 -45t81 -16.5t82 16.5t68.5 45t46 67.5t16.5 82q0 16 10.5 28.5t32.5 12.5h16q41 0 41 -41q0 -66 -24.5 -123t-66.5 -99t-99 -67t-123 -25q-72 0 -130 25t-99 67t-62.5 99t-21.5 123z" />
<glyph unicode="D" horiz-adv-x="782" d="M82 43v1296q0 18 12 30.5t31 12.5h270q66 0 123 -21.5t99 -62.5t67 -99t25 -130v-756q0 -66 -25 -123t-67 -99t-99 -66.5t-123 -24.5h-270q-18 0 -30.5 12.5t-12.5 30.5zM184 102h211q43 0 81 16.5t67.5 45.5t46 67.5t16.5 81.5v756q0 43 -16.5 81t-46 67.5t-67.5 46 t-81 16.5h-211v-1178z" />
<glyph unicode="E" horiz-adv-x="663" d="M82 41v1300q0 16 10 28.5t31 12.5h487q16 0 28.5 -10t12.5 -31v-22q0 -16 -11 -29.5t-30 -13.5h-422v-533h340q16 0 28.5 -10t12.5 -31v-22q0 -16 -11 -29.5t-30 -13.5h-340v-531h422q16 0 28.5 -10t12.5 -30v-23q0 -16 -11 -29.5t-30 -13.5h-487q-41 0 -41 41z" />
<glyph unicode="F" horiz-adv-x="712" d="M82 41v1300q0 16 10 28.5t31 12.5h549q16 0 28.5 -10t12.5 -31v-22q0 -16 -11.5 -29.5t-29.5 -13.5h-484v-533h381q16 0 28.5 -10t12.5 -31v-22q0 -16 -11 -29.5t-30 -13.5h-381v-596q0 -41 -43 -41h-22q-41 0 -41 41z" />
<glyph unicode="G" horiz-adv-x="763" d="M74 291v801q0 66 24.5 123t66.5 99t99.5 66.5t122.5 24.5q66 0 122 -21.5t98 -60.5t66.5 -93t26.5 -120q0 -18 -12 -30.5t-31 -12.5h-16q-18 0 -30.5 12.5t-12.5 30.5q0 88 -61.5 140.5t-149.5 52.5q-43 0 -82 -16.5t-67.5 -45.5t-45 -67.5t-16.5 -81.5v-801 q0 -43 16.5 -82t45 -67.5t67.5 -45t82 -16.5t82 16.5t67.5 45t45 67.5t16.5 82v303h-76q-18 0 -30.5 12t-12.5 31v16q0 18 12.5 30.5t30.5 12.5h135q18 0 30.5 -12t12.5 -31v-362q0 -66 -24.5 -123t-66.5 -99t-99 -67t-123 -25t-123 25t-99 67t-66.5 99t-24.5 123z" />
<glyph unicode="H" horiz-adv-x="794" d="M82 41v1300q0 16 10 28.5t31 12.5h22q16 0 29.5 -11t13.5 -30v-598h416v598q0 16 10.5 28.5t30.5 12.5h23q16 0 29.5 -11t13.5 -30v-1300q0 -41 -43 -41h-23q-41 0 -41 41v596h-416v-596q0 -41 -43 -41h-22q-41 0 -41 41z" />
<glyph unicode="I" horiz-adv-x="282" d="M82 43v1298q0 16 10 28.5t31 12.5h22q16 0 29.5 -11t13.5 -30v-1298q0 -43 -43 -43h-22q-41 0 -41 43z" />
<glyph unicode="J" horiz-adv-x="636" d="M1 88q-1 4 -1 7q0 12 10 22l21 20q12 12 29.5 12.5t29.5 -12.5q25 -23 60.5 -40t95.5 -17q88 0 147.5 61.5t59.5 149.5v1050q0 16 10 28.5t31 12.5h22q16 0 29.5 -11t13.5 -30v-1050q0 -66 -24.5 -123t-66.5 -99t-99.5 -67t-122.5 -25q-66 0 -128.5 19.5t-103.5 64.5 q-10 12 -13 27z" />
<glyph unicode="K" horiz-adv-x="659" d="M82 43v1298q0 16 10 28.5t31 12.5h24q16 0 28.5 -11t12.5 -30v-651l285 639q16 39 27.5 46t36.5 7h34q35 0 30 -19.5t-15 -43.5l-262 -586l303 -667q12 -27 12 -42q0 -24 -27 -24h-49q-25 0 -43 39l-256 563l-76 -172v-387q0 -43 -43 -43h-22q-41 0 -41 43z" />
<glyph unicode="L" horiz-adv-x="706" d="M82 41v1300q0 16 10 28.5t31 12.5h22q16 0 29.5 -11t13.5 -30v-1235h478q16 0 28.5 -10t12.5 -30v-23q0 -16 -11.5 -29.5t-29.5 -13.5h-543q-41 0 -41 41z" />
<glyph unicode="M" horiz-adv-x="1052" d="M82 43v1298q0 16 10 28.5t31 12.5h37q18 0 27.5 -11t15.5 -30l321 -911l322 911q6 18 15 29.5t28 11.5h37q16 0 29.5 -11t13.5 -30v-1298q0 -43 -43 -43h-23q-41 0 -41 43v1018l-284 -797q-12 -37 -43 -37h-23q-29 0 -41 37l-283 797v-1018q0 -43 -43 -43h-22 q-41 0 -41 43z" />
<glyph unicode="N" horiz-adv-x="802" d="M82 43v1296q0 18 13.5 30.5t29.5 12.5h37q18 0 26.5 -12t16.5 -31l407 -1040v1042q0 16 10.5 28.5t30.5 12.5h23q16 0 29.5 -11t13.5 -30v-1298q0 -18 -12.5 -30.5t-30.5 -12.5h-37q-18 0 -27.5 13.5t-15.5 29.5l-408 1036v-1036q0 -43 -43 -43h-22q-41 0 -41 43z" />
<glyph unicode="O" horiz-adv-x="774" d="M74 291v801q0 66 24.5 123t66.5 99t99.5 66.5t122.5 24.5q66 0 123 -24.5t99 -66.5t66.5 -99.5t24.5 -122.5v-801q0 -66 -24.5 -123t-66.5 -99t-99 -67t-123 -25t-123 25t-99 67t-66.5 99t-24.5 123zM176 291q0 -43 16.5 -82t45 -67.5t67.5 -45t82 -16.5t82 16.5t67.5 45 t45 67.5t16.5 82v801q0 43 -16.5 81.5t-45 67.5t-67.5 45.5t-82 16.5t-82 -16.5t-67.5 -45.5t-45 -67.5t-16.5 -81.5v-801z" />
<glyph unicode="P" horiz-adv-x="735" d="M82 43v1296q0 18 12 30.5t31 12.5h270q66 0 123 -21.5t99 -62.5t67 -98t25 -129v-375q0 -66 -25 -122t-67 -99t-99 -67.5t-123 -24.5h-207v-340q0 -43 -43 -43h-22q-41 0 -41 43zM188 485h207q43 0 81 16.5t67.5 46.5t46 67.5t16.5 80.5v373q0 43 -16.5 81t-46 67.5 t-67.5 46t-81 16.5h-207v-795z" />
<glyph unicode="Q" horiz-adv-x="749" d="M61 291v801q0 66 25 123t67 99t99 66.5t123 24.5t123 -24.5t99 -66.5t66.5 -99.5t24.5 -122.5v-801q0 -117 -73.5 -203t-190.5 -111v-141q0 -41 -43 -41h-23q-41 0 -41 43v139q-117 35 -186.5 116t-69.5 198zM164 291q0 -43 16.5 -82t45 -67.5t67.5 -45t82 -16.5t82 16.5 t67.5 45t45 67.5t16.5 82v801q0 43 -16.5 81.5t-45 67.5t-67.5 45.5t-82 16.5t-82 -16.5t-67.5 -45.5t-45 -67.5t-16.5 -81.5v-801z" />
<glyph unicode="R" horiz-adv-x="794" d="M82 43v1298q0 16 10 28.5t31 12.5h272q66 0 123 -22.5t100.5 -63.5t68 -99t24.5 -128v-115q0 -92 -50.5 -164.5t-121.5 -113.5l182 -615q5 -17 5 -29q0 -32 -34 -32h-28q-37 0 -50 43l-174 598h-252v-598q0 -43 -43 -43h-22q-41 0 -41 43zM188 743h207q43 0 82 16.5 t68.5 45.5t46 67.5t16.5 81.5v115q0 43 -16.5 81t-46 67.5t-68.5 46t-82 16.5h-207v-537z" />
<glyph unicode="S" horiz-adv-x="743" d="M59 291v31q0 16 10.5 28t30.5 12h23q16 0 29.5 -11t13.5 -29v-9q0 -39 7 -82t29.5 -77.5t63.5 -58t107 -23.5q43 0 81 17t67.5 47t46 70t16.5 85q0 41 -22.5 83t-53.5 77l-358 413q-41 49 -64 104.5t-23 123.5q0 66 24 123t66 99t98 66.5t122 24.5t122 -24.5t98 -66.5 t65.5 -99.5t23.5 -122.5v-25q0 -16 -10 -28.5t-31 -12.5h-23q-16 0 -29.5 11.5t-13.5 29.5q-2 49 -13 92t-34.5 75t-61.5 50.5t-93 18.5q-43 0 -81 -16.5t-65.5 -45.5t-44 -67.5t-16.5 -81.5q0 -84 59 -156l359 -416q29 -35 48 -62.5t31.5 -54t17.5 -53t5 -59.5 q0 -61 -24.5 -117.5t-66.5 -100.5t-99.5 -71t-122.5 -27q-74 0 -132.5 25t-98.5 68t-61.5 100t-21.5 123z" />
<glyph unicode="T" horiz-adv-x="663" d="M16 1319v22q0 41 41 41h549q16 0 28.5 -10t12.5 -31v-22q0 -16 -11 -29.5t-30 -13.5h-219v-1235q0 -41 -43 -41h-22q-41 0 -41 41v1235h-224q-41 0 -41 43z" />
<glyph unicode="U" horiz-adv-x="782" d="M78 291v1050q0 16 10 28.5t31 12.5h22q16 0 29.5 -11t13.5 -30v-1050q0 -43 16.5 -82t44 -67.5t65.5 -45t81 -16.5q88 0 147.5 61.5t59.5 149.5v1050q0 16 10 28.5t31 12.5h23q16 0 29.5 -11t13.5 -30v-1050q0 -66 -25 -123t-67 -99t-99 -67t-123 -25t-123 25t-99 67 t-66.5 99t-24.5 123z" />
<glyph unicode="V" horiz-adv-x="686" d="M37 1335q-1 6 -1 12q0 11 5 21q8 14 31 14h26q20 0 29.5 -7t13.5 -29l201 -1024l203 1028q6 32 41 32h2h30q18 0 26 -15q6 -10 7 -21q0 -5 -2 -11l-252 -1292q-4 -20 -15 -31.5t-40 -11.5q-27 0 -38 11.5t-15 31.5z" />
<glyph unicode="W" horiz-adv-x="1310" d="M80 291v1050q0 16 10 28.5t31 12.5h22q16 0 29.5 -11t13.5 -30v-1050q0 -88 59.5 -149.5t147.5 -61.5q39 0 77 16.5t67.5 45t47 67.5t17.5 82v1048q0 16 11.5 29.5t31.5 13.5h21q16 0 29.5 -11t13.5 -32v-1048q0 -43 17 -82t46 -67.5t67 -45t79 -16.5q43 0 80.5 18.5 t65.5 47t44 66.5t16 79v1050q0 16 10.5 28.5t30.5 12.5h23q16 0 29.5 -11t13.5 -30v-1050q0 -66 -24.5 -123t-66.5 -99t-99.5 -67t-122.5 -25q-29 0 -62 5.5t-67.5 18.5t-68.5 36.5t-63 62.5q-72 -78 -139 -100.5t-125 -22.5q-66 0 -123 25t-99 67t-66.5 99t-24.5 123z" />
<glyph unicode="X" horiz-adv-x="772" d="M73 1372q5 10 33 10h27q23 0 35 -7t22 -34l197 -532l197 532q10 27 22 34t35 7h27q29 0 34 -10q2 -3 1 -8q0 -11 -7 -31l-254 -649l250 -645q14 -39 -22 -39h-39q-35 0 -45 29l-199 530l-199 -530q-10 -29 -45 -29h-39q-37 0 -22 39l248 645l-252 649q-7 19 -7 30 q0 6 2 9z" />
<glyph unicode="Y" horiz-adv-x="737" d="M49 1317q-9 23 -9 37q0 28 31 28h1h20q23 0 35 -4t20 -22l224 -568l217 568q8 18 21.5 22t33.5 4h21q38 0 38 -18q0 -4 -2 -8l-14 -39q-74 -203 -121 -324t-74.5 -189.5t-41 -100t-21.5 -58.5v-602q0 -43 -43 -43h-23q-41 0 -40 43v600z" />
<glyph unicode="Z" horiz-adv-x="702" d="M37 43v49q0 12 6 25l512 1159h-475q-43 0 -43 43v22q0 41 43 41h543q18 0 30.5 -12t12.5 -31v-49q0 -20 -9 -28l-503 -1156h471q16 0 28.5 -10t12.5 -30v-23q0 -16 -11.5 -29.5t-29.5 -13.5h-545q-18 0 -30.5 12.5t-12.5 30.5z" />
<glyph unicode="[" horiz-adv-x="380" d="M82 -381v1790q0 16 10 28.5t31 12.5h205q16 0 29.5 -11.5t13.5 -29.5v-23q0 -43 -43 -43h-140v-1660h140q16 0 29.5 -11.5t13.5 -29.5v-23q0 -43 -43 -43h-205q-41 0 -41 43z" />
<glyph unicode="\" horiz-adv-x="651" d="M11 1372q5 10 34 10h27q23 0 35 -7t22 -34l502 -1302q14 -39 -23 -39h-39q-33 0 -45 29l-508 1304q-10 29 -5 39z" />
<glyph unicode="]" horiz-adv-x="382" d="M8 -358q0 18 13.5 29.5t29.5 11.5h139v1660h-139q-43 0 -43 43v23q0 18 13.5 29.5t29.5 11.5h205q20 0 30.5 -12.5t10.5 -28.5v-1790q0 -43 -41 -43h-205q-43 0 -43 43v23z" />
<glyph unicode="^" horiz-adv-x="677" d="M35 1486.5q2 14.5 12 29.5l266 266q25 25 54 -4l264 -265q14 -14 11 -30.5t-15 -26.5l-15 -18q-14 -14 -30.5 -12.5t-26.5 12.5l-215 217l-217 -217q-12 -12 -29.5 -11.5t-30.5 15.5l-16 14q-14 16 -12 30.5z" />
<glyph unicode="_" horiz-adv-x="1083" d="M80 43v23q0 41 43 40h840q16 0 28.5 -10t12.5 -30v-23q0 -16 -11.5 -29.5t-29.5 -13.5h-840q-43 0 -43 43z" />
<glyph unicode="`" horiz-adv-x="335" d="M57 1454q-41 72 6 72h37q10 0 24.5 -2t35.5 -37l112 -201q43 -76 -6 -76h-43q-33 0 -51 35z" />
<glyph unicode="a" horiz-adv-x="784" d="M51 305q0 68 25.5 126t71 100t105.5 67t128 25h221q0 96 -14.5 158.5t-42 98t-69.5 49t-95 13.5q-59 0 -98 -20t-68 -45q-12 -10 -29.5 -13.5t-29.5 13.5l-15 16q-10 12 -12 29.5t10 29.5q41 47 106.5 72t135.5 25q68 0 128 -19.5t104 -69t70 -131t26 -206.5v-580 q0 -43 -43 -43h-23q-41 0 -41 43v23q-18 -29 -49 -45.5t-64.5 -26.5t-63.5 -13.5t-44 -3.5q-68 0 -128 26t-105.5 70t-71 104.5t-25.5 127.5zM160 305q0 -47 17.5 -87t47 -70.5t69.5 -48t87 -17.5q92 0 156.5 56.5t64.5 166.5v209h-221q-47 0 -87 -16.5t-69.5 -44t-47 -65.5 t-17.5 -83z" />
<glyph unicode="b" horiz-adv-x="770" d="M82 41v1300q0 18 12 29.5t31 11.5h22q20 0 30.5 -12t10.5 -29v-376q31 27 64 43t63.5 25t55 12.5t39.5 3.5q68 0 128 -26t105 -71t70.5 -105.5t25.5 -127.5v-414q0 -68 -25.5 -128t-70.5 -104t-105.5 -70t-127.5 -26q-76 0 -131.5 26t-90.5 56v-18q0 -18 -13 -29.5 t-30 -11.5h-22q-20 0 -30.5 12.5t-10.5 28.5zM188 305q0 -47 17.5 -87t48.5 -69.5t71 -47t85 -17.5t86 17.5t70.5 47t47 69.5t17.5 87v414q0 45 -17.5 86t-47 71.5t-70.5 48t-86 17.5t-85 -17.5t-71 -48t-48.5 -71.5t-17.5 -86v-414z" />
<glyph unicode="c" horiz-adv-x="770" d="M68 305v414q0 68 25.5 128t69.5 105t104.5 71t129.5 26q61 0 114.5 -21.5t95.5 -56.5t71 -80t40 -92q4 -18 -9 -29.5t-29 -11.5h-29q-16 0 -25.5 12t-15.5 29q-10 25 -26.5 50t-43 45.5t-61.5 34t-82 13.5t-87 -17.5t-70.5 -48t-48 -71.5t-17.5 -86v-414q0 -47 17.5 -87 t48 -70.5t70.5 -48t87 -17.5q92 0 141.5 41t67.5 92q12 35 20.5 46t24.5 11h29q18 0 30 -10q10 -9 9 -25v-6q-10 -53 -38 -99t-70 -81t-96 -55.5t-118 -20.5q-70 0 -130 26t-104 71t-69.5 105.5t-25.5 127.5z" />
<glyph unicode="d" horiz-adv-x="772" d="M31 305v414q0 68 25.5 128t70.5 105t105.5 71t127.5 26q14 0 39 -3.5t55.5 -12.5t63.5 -25.5t64 -42.5v376q0 16 10 28.5t31 12.5h22q18 0 30.5 -11t12.5 -30v-1300q0 -16 -10 -28.5t-31 -12.5h-22q-16 0 -29.5 11.5t-13.5 29.5v18q-35 -31 -90.5 -56.5t-131.5 -25.5 q-68 0 -128 26t-105 70t-70.5 104.5t-25.5 127.5zM139 305q0 -47 17.5 -87t47 -69.5t69.5 -47t87 -17.5q45 0 85 17.5t71 47t48.5 69.5t17.5 87v414q0 45 -17.5 86t-48.5 71.5t-70.5 48t-85.5 17.5q-47 0 -87 -17.5t-69.5 -48t-47 -71.5t-17.5 -86v-414z" />
<glyph unicode="e" horiz-adv-x="782" d="M68 305v365q0 88 25.5 158.5t70.5 119.5t105.5 75t127.5 26q68 0 128.5 -25t105.5 -73t70.5 -118.5t25.5 -162.5v-95q0 -18 -12.5 -30.5t-30.5 -12.5h-508v-227q0 -47 17.5 -87t47 -70.5t69.5 -48t87 -17.5q55 0 93 12t63 34t39 48.5t22 54.5q4 16 12.5 28.5t35.5 12.5 h22q37 0 37 -41q-10 -51 -38 -97t-71 -82t-97 -56.5t-118 -20.5q-68 0 -128 26t-105 71t-70.5 105.5t-25.5 127.5zM178 637h445q0 84 -18.5 143.5t-49.5 96t-72 54t-86 17.5q-39 0 -77.5 -16.5t-70.5 -53t-51.5 -96t-19.5 -145.5z" />
<glyph unicode="f" horiz-adv-x="563" d="M10 895v23q0 20 12.5 30t28.5 10h150v123q0 63 23.5 121t64.5 101t95.5 70.5t117.5 33.5q16 0 28.5 -10.5t12.5 -30.5v-23q0 -16 -11.5 -29.5t-29.5 -13.5q-86 -10 -140.5 -71.5t-54.5 -147.5v-123h195q16 0 28.5 -10t12.5 -30v-23q0 -16 -11.5 -29.5t-29.5 -13.5h-195 v-811q0 -18 -13 -29.5t-30 -11.5h-22q-20 0 -30.5 12.5t-10.5 28.5v811h-150q-18 0 -29.5 13.5t-11.5 29.5z" />
<glyph unicode="g" horiz-adv-x="792" d="M55 307v412q0 68 25.5 128t71 105t105.5 71t128 26q39 0 77 -9.5t67.5 -22.5t50 -29.5t26.5 -29.5v25q0 41 41 41h25q43 0 43 -41v-1032q0 -68 -25.5 -128.5t-71 -104.5t-105.5 -69.5t-128 -25.5t-131.5 23.5t-108.5 70.5q-13 15 -13 30t13 30l17 14q14 12 30.5 13 t28.5 -11q27 -23 62.5 -43t101.5 -20q45 0 86 17t70.5 48t47 71t17.5 85v112q-47 -51 -109.5 -68.5t-111.5 -17.5q-68 0 -128 26t-105.5 71t-71 105.5t-25.5 127.5zM164 307q0 -47 17.5 -87t48 -70.5t70.5 -48t85 -17.5t86 17.5t70.5 48t47 70.5t17.5 87v412q0 45 -17.5 86 t-47 71.5t-70.5 48t-86 17.5t-85 -17.5t-70.5 -48t-48 -71.5t-17.5 -86v-412z" />
<glyph unicode="h" horiz-adv-x="772" d="M82 43v1298q0 16 10 28.5t31 12.5h22q16 0 29.5 -11t13.5 -30v-378q29 33 62 50t63.5 25.5t56 9.5t40.5 1q70 0 129 -26t104 -71t70.5 -105.5t25.5 -127.5v-676q0 -43 -43 -43h-22q-41 0 -41 43v676q0 43 -17.5 83t-48 70.5t-71.5 50t-86 19.5q-43 0 -83 -18.5t-71 -48 t-49.5 -68.5t-18.5 -78v-686q0 -43 -43 -43h-22q-41 0 -41 43z" />
<glyph unicode="i" horiz-adv-x="231" d="M57 41v942q0 41 41 41h23q43 0 43 -41v-942q0 -18 -13.5 -29.5t-29.5 -11.5h-23q-20 0 -30.5 12.5t-10.5 28.5zM57 1315v26q0 41 41 41h25q41 0 41 -41v-26q0 -18 -12.5 -29.5t-28.5 -11.5h-25q-20 0 -30.5 12t-10.5 29z" />
<glyph unicode="j" horiz-adv-x="221" d="M-172 -297q0 37 41 41q41 2 76 21.5t61.5 50t40.5 68.5t14 79v1020q0 41 41 41h23q43 0 43 -41v-1020q0 -66 -23.5 -122t-63.5 -99t-94.5 -70.5t-117.5 -33.5q-16 0 -28.5 10t-12.5 30v25zM63 1315v26q0 41 41 41h25q41 0 41 -41v-26q0 -18 -12.5 -29.5t-28.5 -11.5h-25 q-20 0 -30.5 12t-10.5 29z" />
<glyph unicode="k" horiz-adv-x="624" d="M82 41v1302q0 41 41 41h22q43 0 43 -41v-731l273 377q20 29 35.5 32t35.5 3h33q24 0 24 -18q0 -20 -30 -62l-305 -422l338 -469q12 -18 12 -30q0 -4 -1 -8q-5 -15 -30 -15h-43q-18 0 -28 5t-33 36l-281 389v-389q0 -18 -13 -29.5t-30 -11.5h-22q-20 0 -30.5 12.5 t-10.5 28.5z" />
<glyph unicode="l" horiz-adv-x="417" d="M76 281v1060q0 16 10 28.5t31 12.5h24q41 0 41 -41v-1060q0 -94 53.5 -142.5t139.5 -56.5q16 0 28.5 -10.5t12.5 -30.5v-25q0 -18 -12 -30q-10 -11 -24 -11h-5q-63 2 -117.5 21.5t-94.5 56.5t-63.5 93.5t-23.5 134.5z" />
<glyph unicode="m" horiz-adv-x="1368" d="M82 41v942q0 41 41 41h22q43 0 43 -41v-20q41 37 100.5 61.5t123.5 24.5q29 0 66.5 -9.5t75.5 -28t74 -44t60 -58.5q47 68 125 104t150 36q68 0 128 -26t104 -71t69.5 -105.5t25.5 -127.5v-678q0 -18 -13 -29.5t-30 -11.5h-22q-20 0 -30.5 12.5t-10.5 28.5v678 q0 43 -17.5 83t-48.5 70.5t-70.5 50t-84.5 19.5q-43 0 -84 -17.5t-72 -48t-49.5 -71.5t-18.5 -86v-678q0 -18 -13 -29.5t-30 -11.5h-22q-20 0 -30.5 12.5t-10.5 28.5v678q0 45 -19.5 86t-50.5 71.5t-70.5 48t-80.5 17.5q-47 0 -87 -17.5t-71 -48t-48.5 -71.5t-17.5 -86v-678 q0 -18 -13 -29.5t-30 -11.5h-22q-20 0 -30.5 12.5t-10.5 28.5z" />
<glyph unicode="n" horiz-adv-x="815" d="M82 41v942q0 41 41 41h22q43 0 43 -61q35 33 92.5 59.5t129.5 26.5q70 0 129 -26t104 -71t70.5 -105.5t25.5 -127.5v-678q0 -18 -13 -29.5t-30 -11.5h-22q-20 0 -30.5 12.5t-10.5 28.5v678q0 43 -17.5 83t-48 70.5t-71.5 50t-86 19.5q-43 0 -83 -17.5t-71 -48 t-49.5 -70.5t-18.5 -85v-680q0 -18 -13 -29.5t-30 -11.5h-22q-20 0 -30.5 12.5t-10.5 28.5z" />
<glyph unicode="o" horiz-adv-x="792" d="M68 305v414q0 68 25.5 128t69.5 105t104.5 71t129.5 26q68 0 128.5 -26t104.5 -71t69.5 -105.5t25.5 -127.5v-414q0 -68 -25.5 -128t-69.5 -105t-104.5 -71t-128.5 -26q-70 0 -130 26t-104 71t-69.5 105.5t-25.5 127.5zM174 305q0 -47 17.5 -87t48 -70.5t70.5 -48 t87 -17.5q45 0 85 17.5t71 48t48 70.5t17 87v414q0 45 -17 86t-48 71.5t-71 48t-85 17.5q-47 0 -87 -17.5t-70.5 -48t-48 -71.5t-17.5 -86v-414z" />
<glyph unicode="p" horiz-adv-x="768" d="M82 -322v1301q0 16 10 28.5t31 12.5h22q16 0 29.5 -11.5t13.5 -29.5v-18q35 31 90.5 59.5t131.5 28.5q68 0 128 -27t105 -72t70.5 -106.5t25.5 -128.5v-414q0 -68 -25.5 -128t-70.5 -105t-105.5 -71t-127.5 -26q-14 0 -39 2t-55.5 11.5t-63.5 26t-64 44.5v-377 q0 -16 -10 -28t-31 -12h-22q-18 0 -30.5 11t-12.5 29zM188 301q0 -47 17.5 -87t48.5 -70.5t71 -48t85 -17.5t86 17.5t70.5 48t47 70.5t17.5 87v414q0 45 -17.5 87t-47 72.5t-70.5 49t-86 18.5t-85 -18.5t-71 -49t-48.5 -72.5t-17.5 -87v-414z" />
<glyph unicode="q" horiz-adv-x="770" d="M29 301v414q0 68 25.5 129t70.5 106t105.5 72t127.5 27q76 0 131.5 -29t90.5 -59v18q0 18 13 29.5t30 11.5h22q20 0 30.5 -12.5t10.5 -28.5v-1301q0 -18 -12 -29t-31 -11h-22q-20 0 -30.5 12t-10.5 28v377q-31 -29 -64 -45t-63.5 -25.5t-55 -11.5t-39.5 -2q-68 0 -128 26 t-105 71t-70.5 105t-25.5 128zM137 301q0 -47 17.5 -87t47 -70.5t69.5 -48t87 -17.5q45 0 85 17.5t71 48t48.5 70.5t17.5 87v414q0 45 -17.5 87t-48.5 72.5t-71 49t-85 18.5q-47 0 -87 -18.5t-69.5 -49t-47 -72.5t-17.5 -87v-414z" />
<glyph unicode="r" horiz-adv-x="471" d="M70 43v676q0 68 25.5 128t69.5 105t104.5 71t127.5 26h29q16 0 28.5 -10.5t12.5 -30.5v-23q0 -16 -11.5 -29.5t-29.5 -13.5h-29q-45 0 -85 -17.5t-70.5 -48t-48 -71.5t-17.5 -86v-676q0 -43 -43 -43h-22q-41 0 -41 43z" />
<glyph unicode="s" horiz-adv-x="774" d="M59 231q0 16 10.5 28.5t30.5 12.5h23q16 0 29.5 -11t13.5 -30q0 -41 19.5 -70.5t51 -50t71.5 -29.5t81 -9q45 0 95.5 12t80.5 41q66 59 66 135q0 47 -19.5 81t-52.5 58.5t-77 41t-93 28.5q-45 10 -101.5 29.5t-101.5 54.5q-46 35 -74 87q-27 49 -26 106v8q2 129 82 209.5 t221 85.5h12q55 -1 105 -17q56 -18 98.5 -52t71.5 -80t37 -101q4 -18 -8.5 -29.5t-28.5 -11.5h-23q-27 0 -37 10t-14 31q-6 25 -20.5 51.5t-39 49t-62.5 35.5q-33 11 -77 11h-14q-86 -4 -140 -55t-56 -133q4 -53 26.5 -85t53 -50.5t63.5 -27.5t55 -17q96 -18 163 -51 t107.5 -75t59 -91.5t18.5 -100.5q0 -61 -25.5 -114.5t-70.5 -92.5q-45 -37 -114.5 -58.5t-139.5 -21.5q-68 0 -127 17.5t-103 50.5t-71 81t-29 109z" />
<glyph unicode="t" horiz-adv-x="565" d="M10 963v24q0 20 12.5 30.5t28.5 10.5h152v313q0 16 10 28.5t31 12.5h24q41 0 41 -41v-313h193q16 0 28.5 -10t12.5 -31v-24q0 -41 -41 -41h-193v-641q0 -94 53.5 -142.5t139.5 -56.5q16 0 28.5 -10.5t12.5 -30.5v-25q1 -18 -11 -30q-10 -11 -25 -11h-5q-63 2 -117.5 21.5 t-94.5 56.5t-63.5 93.5t-23.5 134.5v641h-152q-41 0 -41 41z" />
<glyph unicode="u" d="M76 301v682q0 18 13 29.5t30 11.5h22q20 0 30.5 -12.5t10.5 -28.5v-682q0 -43 17.5 -82t48.5 -69.5t70.5 -49t87.5 -18.5q43 0 82.5 17.5t70.5 46t49.5 68.5t18.5 85v684q0 18 13 29.5t30 11.5h22q20 0 30.5 -12.5t10.5 -28.5v-942q0 -41 -41 -41h-22q-45 0 -45 55 q0 10 2 23q-35 -53 -92.5 -78t-128.5 -25q-70 0 -130.5 26t-104.5 70t-69.5 103t-25.5 127z" />
<glyph unicode="v" horiz-adv-x="571" d="M6 977q-1 6 -1 12q0 11 5 21q8 14 31 14h31q29 0 39 -37l174 -727l174 731q8 33 43 33h30q18 0 26 -16q6 -11 6 -21q0 -5 -1 -10l-223 -934q-4 -20 -15.5 -31.5t-39.5 -11.5q-27 0 -38 11.5t-16 31.5z" />
<glyph unicode="w" horiz-adv-x="1363" d="M78 299v680q0 16 10 28.5t31 12.5h22q16 0 29.5 -11.5t13.5 -29.5v-678q0 -49 17.5 -90t48.5 -70.5t70.5 -46t87.5 -16.5q41 0 80.5 17.5t70.5 48t50.5 70.5t19.5 87v678q0 16 10 28.5t31 12.5h22q16 0 29.5 -11.5t13.5 -29.5v-678q0 -47 18.5 -87t49.5 -70.5t71.5 -48 t83.5 -17.5q45 0 85 19.5t71 50t48.5 70.5t17.5 83v678q0 16 10 28.5t31 12.5h22q16 0 29.5 -11.5t13.5 -29.5v-678q0 -68 -25.5 -128t-69.5 -105t-104.5 -71t-128.5 -26q-72 0 -149.5 36t-124.5 104q-49 -68 -128 -104t-148 -36q-47 0 -103.5 18.5t-108 57.5t-85 101.5 t-33.5 150.5z" />
<glyph unicode="x" horiz-adv-x="598" d="M47 39l197 514l-164 422q-10 29 -5 39t34 10h26q23 0 35 -7t23 -34l108 -305l111 305q10 27 22 34t35 7h27q29 0 34 -10t-6 -39l-168 -422l199 -514q4 -11 4 -18q0 -21 -27 -21h-38q-35 0 -45 29l-148 399l-147 -399q-10 -29 -45 -29h-39q-27 0 -27 21q0 7 4 18z" />
<glyph unicode="y" horiz-adv-x="798" d="M61 301v682q0 41 41 41h25q43 0 43 -41v-682q0 -47 17.5 -87t48 -70.5t70.5 -48t85 -17.5t86 17.5t71 48t47 70.5t17 87v682q0 41 41 41h25q43 0 43 -41v-1034q0 -68 -25.5 -128.5t-70.5 -104.5t-105.5 -69.5t-128.5 -25.5t-131 23.5t-108 70.5q-12 15 -12 30t12 30 l16 14q14 12 30.5 13t28.5 -11q27 -23 63 -43t101 -20q45 0 86 17t71 48t47 71t17 85v108q-47 -51 -109.5 -68.5t-111.5 -17.5q-68 0 -128 26t-105 71t-71 105t-26 128z" />
<glyph unicode="z" horiz-adv-x="833" d="M47 961v22q0 20 12.5 30.5t28.5 10.5h617q41 0 40 -41v-49q-2 -25 -10 -33l-518 -795h528q41 0 41 -40v-23q0 -43 -41 -43h-616q-18 0 -29.5 13.5t-11.5 29.5v49q0 14 6 25l535 801h-541q-18 0 -29.5 13t-11.5 30z" />
<glyph unicode="{" horiz-adv-x="569" d="M10 504v24q0 20 12.5 30.5t28.5 10.5h17q53 0 91 39t38 92v422q0 63 23.5 120.5t63.5 100.5t94.5 71t117.5 34q16 0 28.5 -10.5t12.5 -30.5v-25q0 -41 -41 -41q-82 -12 -137.5 -72.5t-55.5 -146.5v-465q0 -31 -20.5 -71.5t-61.5 -69.5q39 -25 60.5 -63.5t21.5 -73.5v-473 q0 -86 55.5 -147.5t137.5 -73.5q16 0 28.5 -10.5t12.5 -30.5v-25q0 -41 -41 -41q-63 6 -117.5 34t-94.5 71t-63.5 100t-23.5 123v432q0 20 -11.5 42.5t-30 41t-41 30t-42.5 11.5h-21q-41 0 -41 41z" />
<glyph unicode="|" horiz-adv-x="282" d="M82 -381v1790q0 16 10 28.5t31 12.5h22q16 0 29.5 -11.5t13.5 -29.5v-1790q0 -43 -43 -43h-22q-41 0 -41 43z" />
<glyph unicode="}" horiz-adv-x="569" d="M33 -356q0 20 12 30.5t29 10.5q82 12 137 73.5t55 147.5v473q0 35 21.5 74t60.5 63q-41 29 -61.5 70t-20.5 71v465q0 86 -55 146.5t-137 72.5q-41 0 -41 41v25q0 20 12.5 30.5t28.5 10.5q63 -6 117.5 -34t94.5 -71t63.5 -100t23.5 -121v-422q0 -53 38 -92t91 -39h16 q16 0 28.5 -10t12.5 -31v-24q0 -41 -41 -41h-20q-23 0 -44.5 -11.5t-40 -30t-29.5 -41t-11 -42.5v-432q0 -66 -23.5 -123t-63.5 -100t-94.5 -71t-117.5 -34q-41 0 -41 41v25z" />
<glyph unicode="~" horiz-adv-x="1101" d="M57.5 455.5q-6.5 15.5 5.5 31.5q53 72 120 119t161 47q98 0 197 -63l86 -55q29 -18 63.5 -28.5t63.5 -10.5q53 0 101 25.5t89 84.5q10 14 24.5 19.5t32.5 -7.5l19 -12q14 -10 19 -25.5t-5 -31.5q-59 -86 -131 -124t-151 -40q-47 0 -95.5 17.5t-95.5 46.5 q-55 33 -104 63.5t-113 30.5q-53 0 -100 -25.5t-90 -87.5q-10 -14 -24.5 -19t-33.5 7l-18 12q-14 10 -20.5 25.5z" />
<glyph unicode="&#xa1;" horiz-adv-x="413" d="M158 -385v1010q0 41 43 41h23q41 0 41 -41v-1010q0 -16 -10.5 -28.5t-30.5 -12.5h-23q-16 0 -29.5 11.5t-13.5 29.5zM158 956v27q0 41 41 41h25q41 0 41 -41v-27q0 -16 -10.5 -28.5t-30.5 -12.5h-25q-16 0 -28.5 11.5t-12.5 29.5z" />
<glyph unicode="&#xa2;" horiz-adv-x="708" d="M39 305v414q0 61 19.5 114.5t55.5 96.5t84 71.5t105 40.5v203q0 16 10.5 28.5t30.5 12.5h23q16 0 29.5 -11t13.5 -30v-198q53 -6 99 -30t83 -57.5t61.5 -75.5t34.5 -85q4 -18 -8 -29.5t-29 -11.5h-28q-16 0 -25.5 12t-15.5 29q-18 45 -58.5 87t-113.5 52v-854 q72 10 111.5 48t56.5 83q12 35 20 46t25 11h28q18 0 29.5 -10t9.5 -31q-16 -98 -93 -168.5t-187 -85.5v-215q0 -43 -43 -43h-23q-41 0 -41 43v220q-57 10 -105 39.5t-84 72.5t-55.5 97.5t-19.5 113.5zM145 305q0 -76 44 -133t114 -80v840q-70 -23 -114 -80t-44 -133v-414z " />
<glyph unicode="&#xa3;" horiz-adv-x="882" d="M29 651v23q0 41 43 41h147v53v6v318q0 66 24.5 123t66.5 99t99.5 66.5t122.5 24.5q66 0 123.5 -24.5t99.5 -66.5t66.5 -99t24.5 -123q0 -18 -13.5 -29.5t-29.5 -11.5h-23q-20 0 -30.5 12t-10.5 29v20q0 88 -59 139.5t-148 51.5q-88 0 -147 -61.5t-59 -149.5v-377h155 q16 0 28.5 -10.5t12.5 -30.5v-23q0 -16 -11 -29.5t-30 -13.5h-155v-502h477q16 0 28.5 -10t12.5 -30v-23q0 -16 -11.5 -29.5t-29.5 -13.5h-543q-41 0 -41 41v567h-147q-43 0 -43 43z" />
<glyph unicode="&#xa5;" horiz-adv-x="751" d="M55 1317q-25 66 23 65h20q23 0 35 -4t21 -22l223 -568l217 568q8 18 21.5 22t33.5 4h21q45 0 37 -26l-15 -39q-49 -131 -85 -225.5t-62.5 -162t-45 -111.5t-30.5 -75h207q16 0 28.5 -10t12.5 -31v-22q0 -16 -11.5 -29.5t-29.5 -13.5h-242v-107h242q16 0 28.5 -10 t12.5 -31v-22q0 -16 -11.5 -29.5t-29.5 -13.5h-242v-381q0 -43 -43 -43h-22q-41 0 -41 43v381h-226q-43 0 -43 43v22q0 41 43 41h226v107h-226q-43 0 -43 43v22q0 41 43 41h185z" />
<glyph unicode="&#xa6;" horiz-adv-x="278" d="M82 313q0 16 10 28.5t31 12.5h22q16 0 29.5 -11t13.5 -30v-694q0 -43 -43 -43h-22q-41 0 -41 43v694zM82 715v694q0 16 10 28.5t31 12.5h22q16 0 29.5 -11.5t13.5 -29.5v-694q0 -43 -43 -43h-22q-41 0 -41 43z" />
<glyph unicode="&#xa8;" horiz-adv-x="552" d="M80 1520v22q0 16 10 28.5t31 12.5h22q16 0 29.5 -11t13.5 -30v-22q0 -43 -43 -43h-22q-41 0 -41 43zM367 1520v22q0 16 10 28.5t31 12.5h22q16 0 29.5 -11t13.5 -30v-22q0 -43 -43 -43h-22q-41 0 -41 43z" />
<glyph unicode="&#xa9;" horiz-adv-x="774" d="M74 291v801q0 66 24.5 123t66.5 99t99.5 66.5t122.5 24.5q66 0 123 -24.5t99 -66.5t66.5 -99.5t24.5 -122.5v-801q0 -66 -24.5 -123t-66.5 -99t-99 -67t-123 -25t-123 25t-99 67t-66.5 99t-24.5 123zM176 291q0 -43 16.5 -82t45 -67.5t67.5 -45t82 -16.5t82 16.5t67.5 45 t45 67.5t16.5 82v801q0 43 -16.5 81.5t-45 67.5t-67.5 45.5t-82 16.5t-82 -16.5t-67.5 -45.5t-45 -67.5t-16.5 -81.5v-801zM213 559v217q0 86 46 147.5t134 61.5q78 0 120 -49.5t54 -110.5q2 -25 -24 -24h-17q-10 0 -16 8t-10 16q-12 33 -29.5 63t-77.5 30q-59 0 -85.5 -41 t-26.5 -101v-217q0 -59 26.5 -100t85.5 -41q57 0 75.5 26.5t29.5 59.5q8 20 13 27.5t15 7.5h17q27 0 26 -27q-12 -66 -54 -114t-122 -48q-88 0 -134 61.5t-46 147.5z" />
<glyph unicode="&#xab;" horiz-adv-x="954" d="M43 498q-25 25 4 53l481 479q14 12 30.5 11t29.5 -13l14 -14q14 -14 13 -30.5t-11 -29.5l-432 -434l432 -432q12 -12 10 -29.5t-12 -27.5l-16 -17q-14 -14 -30.5 -13t-27.5 11zM309 498q-25 25 4 53l482 479q14 12 30.5 11t28.5 -13l14 -14q14 -14 13.5 -30.5 t-11.5 -29.5l-432 -434l432 -432q12 -12 10.5 -29.5t-12.5 -27.5l-16 -17q-14 -14 -30.5 -13t-26.5 11z" />
<glyph unicode="&#xac;" horiz-adv-x="673" d="M6 879v22q0 41 43 41h574q16 0 28.5 -10t12.5 -31v-319q0 -16 -10.5 -28.5t-30.5 -12.5h-23q-16 0 -29.5 11t-13.5 30v254h-508q-43 0 -43 43z" />
<glyph unicode="&#xad;" d="M80 489v23q0 41 43 41h573q16 0 28.5 -10.5t12.5 -30.5v-23q0 -16 -11 -29.5t-30 -13.5h-573q-43 0 -43 43z" />
<glyph unicode="&#xae;" horiz-adv-x="774" d="M74 291v801q0 66 24.5 123t66.5 99t99.5 66.5t122.5 24.5q66 0 123 -24.5t99 -66.5t66.5 -99.5t24.5 -122.5v-801q0 -66 -24.5 -123t-66.5 -99t-99 -67t-123 -25t-123 25t-99 67t-66.5 99t-24.5 123zM176 291q0 -43 16.5 -82t45 -67.5t67.5 -45t82 -16.5t82 16.5t67.5 45 t45 67.5t16.5 82v801q0 43 -16.5 81.5t-45 67.5t-67.5 45.5t-82 16.5t-82 -16.5t-67.5 -45.5t-45 -67.5t-16.5 -81.5v-801zM227 348v445q0 57 21.5 108t59.5 89t88 59.5t108 21.5h22q14 0 24.5 -8t10.5 -27v-18q0 -14 -9 -25.5t-26 -11.5h-22q-78 0 -132.5 -54.5 t-54.5 -133.5v-445q0 -37 -36 -37h-19q-35 0 -35 37z" />
<glyph unicode="&#xb0;" horiz-adv-x="540" d="M57 635q0 43 16.5 82t46.5 68.5t68.5 46t81.5 16.5t82 -16.5t69 -46t46 -68.5t16 -82q0 -45 -16 -84t-46 -67.5t-69 -45t-82 -16.5t-81.5 16.5t-68.5 45t-46.5 67.5t-16.5 84zM135 635q0 -57 39 -96t96 -39t96.5 39t39.5 96q0 55 -39.5 95t-96.5 40t-96 -40t-39 -95z" />
<glyph unicode="&#xb1;" horiz-adv-x="690" d="M16 43v23q0 41 43 40h574q16 0 28.5 -10t12.5 -30v-23q0 -16 -11.5 -29.5t-29.5 -13.5h-574q-43 0 -43 43zM16 684v23q0 41 43 41h232v233q0 43 43 43h22q41 0 41 -43v-233h236q16 0 28.5 -10.5t12.5 -30.5v-23q0 -16 -11.5 -29.5t-29.5 -13.5h-236v-233q0 -16 -10 -28.5 t-31 -12.5h-22q-16 0 -29.5 11t-13.5 30v233h-232q-43 0 -43 43z" />
<glyph unicode="&#xb4;" horiz-adv-x="335" d="M66 1286l112 201q20 35 34.5 37t25.5 2h36q47 0 7 -72l-115 -209q-18 -35 -51 -35h-43q-49 0 -6 76z" />
<glyph unicode="&#xb5;" horiz-adv-x="778" d="M82 -322v1305q0 41 43 41h25q41 0 40 -41v-682q0 -47 17.5 -87t47.5 -70.5t70 -48t87 -17.5q45 0 85 17.5t70.5 48t48 70.5t17.5 87v682q0 41 43 41h24q41 0 41 -41v-942q-2 -16 -12 -28.5t-31 -12.5h-22q-16 0 -29.5 11.5t-13.5 29.5v14q-90 -84 -221 -84 q-25 0 -53.5 4.5t-59.5 13.5t-59.5 26.5t-49.5 41.5v-379q-2 -16 -12 -28t-31 -12h-22q-16 0 -29.5 11t-13.5 29z" />
<glyph unicode="&#xb6;" horiz-adv-x="819" d="M82 -76v1188h653v-1188h-653zM178 4h467v1020h-467v-1020z" />
<glyph unicode="&#xb7;" horiz-adv-x="387" d="M140 641v25q0 16 10 28t31 12h24q16 0 28.5 -11t12.5 -29v-25q0 -41 -41 -41h-24q-41 0 -41 41z" />
<glyph unicode="&#xb8;" horiz-adv-x="329" d="M82 53q0 41 41 41h22q43 0 43 -41v-106q51 -20 83 -65.5t32 -102.5q0 -76 -52 -127t-128 -51q-16 0 -28.5 10t-12.5 31v22q0 16 11.5 29.5t29.5 13.5q31 0 52.5 20.5t21.5 51.5q0 29 -19.5 49t-48.5 25h-6q-20 0 -30.5 12t-10.5 29v159z" />
<glyph unicode="&#xbb;" horiz-adv-x="954" d="M75 982.5q-1 16.5 13 31.5l14 14q29 29 60 2l481 -479q29 -29 4 -53l-485 -486q-10 -10 -26.5 -11t-31.5 13l-16 17q-10 10 -12 27.5t10 29.5l432 432l-432 434q-10 12 -11 28.5zM341 982.5q-1 16.5 13 31.5l15 14q29 29 59 2l481 -479q29 -29 4 -53l-485 -486 q-10 -10 -26.5 -11t-30.5 13l-17 17q-10 10 -12 27.5t10 29.5l432 432l-432 434q-10 12 -11 28.5z" />
<glyph unicode="&#xbf;" horiz-adv-x="780" d="M65 49q0 43 17.5 82t46 75t64.5 67.5t73 62.5q47 41 74.5 87t27.5 101v144q0 18 13.5 29.5t29.5 11.5h23q20 0 30.5 -12.5t10.5 -28.5v-144q0 -51 -15.5 -94t-42 -81t-62.5 -71.5t-79 -68.5q-37 -31 -56.5 -55.5t-29.5 -38.5q-18 -25 -18 -76v-160q0 -45 17.5 -85 t48 -70.5t71.5 -48t86 -17.5t85 17.5t70.5 48t48 70.5t17.5 85v29q0 18 13.5 29.5t29.5 11.5h23q20 0 30.5 -12.5t10.5 -28.5v-29q0 -68 -25.5 -128t-70 -104t-104.5 -70t-128 -26q-70 0 -129 26t-104 70t-71 104.5t-26 127.5v170zM368 960v23q0 43 43 43h23q41 0 41 -43 v-23q0 -16 -10.5 -28t-30.5 -12h-23q-16 0 -29.5 11t-13.5 29z" />
<glyph unicode="&#xc0;" horiz-adv-x="780" d="M55 39l260 1300q4 18 14.5 30.5t28.5 12.5h62q18 0 28 -12t15 -31l260 -1300q8 -39 -33 -39h-27q-39 0 -47 39l-33 151h-391l-26 -151q-6 -39 -48 -39h-24q-47 0 -39 39zM196 1718q-41 72 6 72h37q10 0 24.5 -2t35.5 -37l112 -201q43 -76 -6 -76h-43q-33 0 -51 35z M215 289h350l-174 866z" />
<glyph unicode="&#xc1;" horiz-adv-x="786" d="M66 39l260 1300q4 18 14.5 30.5t28.5 12.5h62q18 0 28 -12t15 -31l260 -1300q8 -39 -33 -39h-27q-39 0 -47 39l-33 151h-391l-26 -151q-6 -39 -48 -39h-24q-47 0 -39 39zM226 289h350l-174 866zM373 1552l112 201q20 35 34.5 37t25.5 2h36q47 0 7 -72l-115 -209 q-18 -35 -51 -35h-43q-49 0 -6 76z" />
<glyph unicode="&#xc2;" horiz-adv-x="763" d="M47 39l260 1300q4 18 14.5 30.5t28.5 12.5h62q18 0 28 -12t15 -31l260 -1300q8 -39 -33 -39h-27q-39 0 -47 39l-33 151h-391l-26 -151q-6 -39 -48 -39h-24q-47 0 -39 39zM108 1536.5q1 15.5 13 27.5l238 238q25 25 53 -4l233 -234q29 -31 0 -59l-14 -14 q-14 -14 -30.5 -13.5t-28.5 11.5l-189 186l-186 -186q-12 -12 -28.5 -12.5t-28.5 12.5l-19 18q-14 14 -13 29.5zM207 289h350l-174 866z" />
<glyph unicode="&#xc3;" horiz-adv-x="753" d="M51 39l260 1300q4 18 14.5 30.5t28.5 12.5h62q18 0 28 -12t15 -31l260 -1300q8 -39 -33 -39h-27q-39 0 -47 39l-33 151h-391l-26 -151q-6 -39 -48 -39h-24q-47 0 -39 39zM120.5 1523.5q2.5 18.5 10.5 37.5q29 72 73 98.5t78 26.5q37 0 63.5 -18.5t48 -40l40 -40 t39.5 -18.5q33 0 51 24.5t35 61.5q10 23 23.5 28t31.5 -4l14 -6q25 -10 20 -35t-15 -39q-39 -59 -73 -89.5t-81 -30.5q-33 0 -60.5 18.5t-50 41t-41 40.5t-32.5 18q-41 0 -58.5 -24.5t-31.5 -54.5q-12 -37 -25.5 -39t-28.5 4l-10 6q-23 16 -20.5 34.5zM211 289h350l-174 866 z" />
<glyph unicode="&#xc4;" horiz-adv-x="737" d="M39 39l260 1300q4 18 14.5 30.5t28.5 12.5h62q18 0 28 -12t15 -31l260 -1300q8 -39 -33 -39h-27q-39 0 -47 39l-33 151h-391l-26 -151q-6 -39 -48 -39h-24q-47 0 -39 39zM172 1565v22q0 16 10 28.5t31 12.5h22q16 0 29.5 -11t13.5 -30v-22q0 -43 -43 -43h-22 q-41 0 -41 43zM199 289h350l-174 866zM459 1565v22q0 16 10 28.5t31 12.5h22q16 0 29.5 -11t13.5 -30v-22q0 -43 -43 -43h-22q-41 0 -41 43z" />
<glyph unicode="&#xc5;" horiz-adv-x="733" d="M35 39l260 1300q4 18 14.5 30.5t28.5 12.5h62q18 0 28 -12t15 -31l260 -1300q8 -39 -33 -39h-27q-39 0 -47 39l-33 151h-391l-26 -151q-6 -39 -48 -39h-24q-47 0 -39 39zM195 289h350l-174 866zM209 1681q0 63 44.5 109.5t110.5 46.5t111 -46t45 -110q0 -66 -45 -110.5 t-111 -44.5t-110.5 45t-44.5 110zM315 1681q0 -20 14.5 -34.5t34.5 -14.5t35 14.5t15 34.5t-14.5 35t-35.5 15q-20 0 -34.5 -15t-14.5 -35z" />
<glyph unicode="&#xc6;" horiz-adv-x="985" d="M41 39l260 1300q4 18 14.5 30.5t28.5 12.5h561q16 0 28.5 -10t12.5 -31v-22q0 -16 -11 -29.5t-30 -13.5h-422v-533h340q16 0 28.5 -10t12.5 -31v-22q0 -16 -11 -29.5t-30 -13.5h-340v-531h422q16 0 28.5 -10t12.5 -30v-23q0 -16 -11 -29.5t-30 -13.5h-487q-41 0 -41 41 v149h-199l-26 -151q-6 -39 -48 -39h-24q-47 0 -39 39zM201 289h176v866z" />
<glyph unicode="&#xc7;" horiz-adv-x="735" d="M74 291v801q0 66 24.5 123t66.5 99t99.5 66.5t122.5 24.5q66 0 123 -24.5t99 -66.5t66.5 -99t24.5 -123q0 -16 -10 -28.5t-33 -12.5h-16q-14 0 -27.5 11t-13.5 30q0 43 -16.5 81.5t-46 67.5t-68.5 45.5t-82 16.5t-81 -16.5t-67.5 -45.5t-46 -67.5t-16.5 -81.5v-801 q0 -43 16.5 -82t46 -67.5t67.5 -45t81 -16.5t82 16.5t68.5 45t46 67.5t16.5 82q0 16 10.5 28.5t32.5 12.5h16q41 0 41 -41q0 -66 -24.5 -123t-66.5 -99t-99 -67t-123 -25q-72 0 -130 25t-99 67t-62.5 99t-21.5 123zM328 39q0 41 41 41h22q43 0 43 -41v-106q51 -20 83 -65.5 t32 -102.5q0 -76 -52 -127t-128 -51q-16 0 -28.5 10t-12.5 31v22q0 16 11.5 29.5t29.5 13.5q31 0 52.5 20.5t21.5 51.5q0 29 -19.5 49t-48.5 25h-6q-20 0 -30.5 12t-10.5 29v159z" />
<glyph unicode="&#xc8;" horiz-adv-x="696" d="M72 41v1300q0 16 10 28.5t31 12.5h487q16 0 28.5 -10t12.5 -31v-22q0 -16 -11 -29.5t-30 -13.5h-422v-533h340q16 0 28.5 -10t12.5 -31v-22q0 -16 -11 -29.5t-30 -13.5h-340v-531h422q16 0 28.5 -10t12.5 -30v-23q0 -16 -11 -29.5t-30 -13.5h-487q-41 0 -41 41zM184 1720 q-41 72 6 72h37q10 0 24.5 -2t35.5 -37l112 -201q43 -76 -6 -76h-43q-33 0 -51 35z" />
<glyph unicode="&#xc9;" horiz-adv-x="684" d="M72 41v1300q0 16 10 28.5t31 12.5h487q16 0 28.5 -10t12.5 -31v-22q0 -16 -11 -29.5t-30 -13.5h-422v-533h340q16 0 28.5 -10t12.5 -31v-22q0 -16 -11 -29.5t-30 -13.5h-340v-531h422q16 0 28.5 -10t12.5 -30v-23q0 -16 -11 -29.5t-30 -13.5h-487q-41 0 -41 41zM330 1552 l112 201q20 35 34.5 37t25.5 2h36q47 0 7 -72l-115 -209q-18 -35 -51 -35h-43q-49 0 -6 76z" />
<glyph unicode="&#xca;" horiz-adv-x="704" d="M80 41v1300q0 16 10 28.5t31 12.5h487q16 0 28.5 -10t12.5 -31v-22q0 -16 -11 -29.5t-30 -13.5h-422v-533h340q16 0 28.5 -10t12.5 -31v-22q0 -16 -11 -29.5t-30 -13.5h-340v-531h422q16 0 28.5 -10t12.5 -30v-23q0 -16 -11 -29.5t-30 -13.5h-487q-41 0 -41 41z M83 1538.5q1 15.5 13 27.5l238 238q25 25 53 -4l233 -234q29 -31 0 -59l-14 -14q-14 -14 -30.5 -13.5t-28.5 11.5l-189 186l-186 -186q-12 -12 -28.5 -12.5t-28.5 12.5l-19 18q-14 14 -13 29.5z" />
<glyph unicode="&#xcb;" horiz-adv-x="675" d="M70 41v1300q0 16 10 28.5t31 12.5h487q16 0 28.5 -10t12.5 -31v-22q0 -16 -11 -29.5t-30 -13.5h-422v-533h340q16 0 28.5 -10t12.5 -31v-22q0 -16 -11 -29.5t-30 -13.5h-340v-531h422q16 0 28.5 -10t12.5 -30v-23q0 -16 -11 -29.5t-30 -13.5h-487q-41 0 -41 41zM146 1567 v22q0 16 10 28.5t31 12.5h22q16 0 29.5 -11t13.5 -30v-22q0 -43 -43 -43h-22q-41 0 -41 43zM433 1567v22q0 16 10 28.5t31 12.5h22q16 0 29.5 -11t13.5 -30v-22q0 -43 -43 -43h-22q-41 0 -41 43z" />
<glyph unicode="&#xcc;" horiz-adv-x="229" d="M-74 1720q-41 72 6 72h37q10 0 24.5 -2t35.5 -37l112 -201q43 -76 -6 -76h-43q-33 0 -51 35zM66 43v1298q0 16 10 28.5t31 12.5h22q16 0 29.5 -11t13.5 -30v-1298q0 -43 -43 -43h-22q-41 0 -41 43z" />
<glyph unicode="&#xcd;" horiz-adv-x="206" d="M47 43v1298q0 16 10 28.5t31 12.5h22q16 0 29.5 -11t13.5 -30v-1298q0 -43 -43 -43h-22q-41 0 -41 43zM66 1552l112 201q20 35 34.5 37t25.5 2h36q47 0 7 -72l-115 -209q-18 -35 -51 -35h-43q-49 0 -6 76z" />
<glyph unicode="&#xce;" horiz-adv-x="239" d="M-150 1538.5q1 15.5 13 27.5l238 238q25 25 53 -4l233 -234q29 -31 0 -59l-14 -14q-14 -14 -30.5 -13.5t-28.5 11.5l-189 186l-186 -186q-12 -12 -28.5 -12.5t-28.5 12.5l-19 18q-14 14 -13 29.5zM70 43v1298q0 16 10 28.5t31 12.5h22q16 0 29.5 -11t13.5 -30v-1298 q0 -43 -43 -43h-22q-41 0 -41 43z" />
<glyph unicode="&#xcf;" horiz-adv-x="270" d="M-57 1567v22q0 16 10 28.5t31 12.5h22q16 0 29.5 -11t13.5 -30v-22q0 -43 -43 -43h-22q-41 0 -41 43zM82 43v1298q0 16 10 28.5t31 12.5h22q16 0 29.5 -11t13.5 -30v-1298q0 -43 -43 -43h-22q-41 0 -41 43zM230 1567v22q0 16 10 28.5t31 12.5h22q16 0 29.5 -11t13.5 -30 v-22q0 -43 -43 -43h-22q-41 0 -41 43z" />
<glyph unicode="&#xd0;" horiz-adv-x="925" d="M33 700v23q0 41 43 41h149v575q0 18 12.5 30.5t30.5 12.5h271q66 0 123 -21.5t99 -62.5t66.5 -99t24.5 -130v-756q0 -66 -24.5 -123t-66.5 -99t-99.5 -66.5t-122.5 -24.5h-271q-18 0 -30.5 12.5t-12.5 30.5v614h-149q-43 0 -43 43zM328 102h211q43 0 80.5 16.5t67.5 45.5 t46.5 67.5t16.5 81.5v756q0 43 -16.5 81t-46.5 67.5t-67.5 46t-80.5 16.5h-211v-516h157q16 0 28.5 -10.5t12.5 -30.5v-23q0 -16 -11 -29.5t-30 -13.5h-157v-555z" />
<glyph unicode="&#xd1;" horiz-adv-x="753" d="M57 43v1296q0 18 13.5 30.5t29.5 12.5h37q18 0 26.5 -12t16.5 -31l407 -1040v1042q0 16 10.5 28.5t30.5 12.5h23q16 0 29.5 -11t13.5 -30v-1298q0 -18 -12.5 -30.5t-30.5 -12.5h-37q-18 0 -27.5 13.5t-15.5 29.5l-408 1036v-1036q0 -43 -43 -43h-22q-41 0 -41 43z M108.5 1523.5q2.5 18.5 10.5 37.5q29 72 73 98.5t78 26.5q37 0 63.5 -18.5t48 -40l40 -40t39.5 -18.5q33 0 51 24.5t35 61.5q10 23 23.5 28t31.5 -4l14 -6q25 -10 20 -35t-15 -39q-39 -59 -73 -89.5t-81 -30.5q-33 0 -60.5 18.5t-50 41t-41 40.5t-32.5 18q-41 0 -58.5 -24.5 t-31.5 -54.5q-12 -37 -25.5 -39t-28.5 4l-10 6q-23 16 -20.5 34.5z" />
<glyph unicode="&#xd2;" horiz-adv-x="735" d="M62 291v801q0 66 24.5 123t66.5 99t99.5 66.5t122.5 24.5q66 0 123 -24.5t99 -66.5t66.5 -99.5t24.5 -122.5v-801q0 -66 -24.5 -123t-66.5 -99t-99 -67t-123 -25t-123 25t-99 67t-66.5 99t-24.5 123zM164 291q0 -43 16.5 -82t45 -67.5t67.5 -45t82 -16.5t82 16.5t67.5 45 t45 67.5t16.5 82v801q0 43 -16.5 81.5t-45 67.5t-67.5 45.5t-82 16.5t-82 -16.5t-67.5 -45.5t-45 -67.5t-16.5 -81.5v-801zM186 1722q-41 72 6 72h37q10 0 24.5 -2t35.5 -37l112 -201q43 -76 -6 -76h-43q-33 0 -51 35z" />
<glyph unicode="&#xd3;" horiz-adv-x="739" d="M64 291v801q0 66 24.5 123t66.5 99t99.5 66.5t122.5 24.5q66 0 123 -24.5t99 -66.5t66.5 -99.5t24.5 -122.5v-801q0 -66 -24.5 -123t-66.5 -99t-99 -67t-123 -25t-123 25t-99 67t-66.5 99t-24.5 123zM166 291q0 -43 16.5 -82t45 -67.5t67.5 -45t82 -16.5t82 16.5t67.5 45 t45 67.5t16.5 82v801q0 43 -16.5 81.5t-45 67.5t-67.5 45.5t-82 16.5t-82 -16.5t-67.5 -45.5t-45 -67.5t-16.5 -81.5v-801zM338 1552l112 201q20 35 34.5 37t25.5 2h36q47 0 7 -72l-115 -209q-18 -35 -51 -35h-43q-49 0 -6 76z" />
<glyph unicode="&#xd4;" horiz-adv-x="770" d="M68 291v801q0 66 24.5 123t66.5 99t99.5 66.5t122.5 24.5q66 0 123 -24.5t99 -66.5t66.5 -99.5t24.5 -122.5v-801q0 -66 -24.5 -123t-66.5 -99t-99 -67t-123 -25t-123 25t-99 67t-66.5 99t-24.5 123zM106 1538.5q1 15.5 13 27.5l238 238q25 25 53 -4l233 -234 q29 -31 0 -59l-14 -14q-14 -14 -30.5 -13.5t-28.5 11.5l-189 186l-186 -186q-12 -12 -28.5 -12.5t-28.5 12.5l-19 18q-14 14 -13 29.5zM170 291q0 -43 16.5 -82t45 -67.5t67.5 -45t82 -16.5t82 16.5t67.5 45t45 67.5t16.5 82v801q0 43 -16.5 81.5t-45 67.5t-67.5 45.5 t-82 16.5t-82 -16.5t-67.5 -45.5t-45 -67.5t-16.5 -81.5v-801z" />
<glyph unicode="&#xd5;" horiz-adv-x="751" d="M62 291v801q0 66 24.5 123t66.5 99t99.5 66.5t122.5 24.5q66 0 123 -24.5t99 -66.5t66.5 -99.5t24.5 -122.5v-801q0 -66 -24.5 -123t-66.5 -99t-99 -67t-123 -25t-123 25t-99 67t-66.5 99t-24.5 123zM106.5 1523.5q2.5 18.5 10.5 37.5q29 72 73 98.5t78 26.5 q37 0 63.5 -18.5t48 -40l40 -40t39.5 -18.5q33 0 51 24.5t35 61.5q10 23 23.5 28t31.5 -4l14 -6q25 -10 20 -35t-15 -39q-39 -59 -73 -89.5t-81 -30.5q-33 0 -60.5 18.5t-50 41t-41 40.5t-32.5 18q-41 0 -58.5 -24.5t-31.5 -54.5q-12 -37 -25.5 -39t-28.5 4l-10 6 q-23 16 -20.5 34.5zM164 291q0 -43 16.5 -82t45 -67.5t67.5 -45t82 -16.5t82 16.5t67.5 45t45 67.5t16.5 82v801q0 43 -16.5 81.5t-45 67.5t-67.5 45.5t-82 16.5t-82 -16.5t-67.5 -45.5t-45 -67.5t-16.5 -81.5v-801z" />
<glyph unicode="&#xd6;" horiz-adv-x="722" d="M56 291v801q0 66 24.5 123t66.5 99t99.5 66.5t122.5 24.5q66 0 123 -24.5t99 -66.5t66.5 -99.5t24.5 -122.5v-801q0 -66 -24.5 -123t-66.5 -99t-99 -67t-123 -25t-123 25t-99 67t-66.5 99t-24.5 123zM158 291q0 -43 16.5 -82t45 -67.5t67.5 -45t82 -16.5t82 16.5t67.5 45 t45 67.5t16.5 82v801q0 43 -16.5 81.5t-45 67.5t-67.5 45.5t-82 16.5t-82 -16.5t-67.5 -45.5t-45 -67.5t-16.5 -81.5v-801zM172 1565v22q0 16 10 28.5t31 12.5h22q16 0 29.5 -11t13.5 -30v-22q0 -43 -43 -43h-22q-41 0 -41 43zM459 1565v22q0 16 10 28.5t31 12.5h22 q16 0 29.5 -11t13.5 -30v-22q0 -43 -43 -43h-22q-41 0 -41 43z" />
<glyph unicode="&#xd7;" horiz-adv-x="727" d="M100.5 478.5q-2.5 17.5 12.5 29.5l166 164l-164 164q-31 31 0 61l16 16q29 29 59 -2l162 -163l166 165q31 31 62 0l16 -16q29 -29 -2 -59l-166 -166l168 -166q12 -10 13 -26.5t-13 -30.5l-16 -17q-12 -12 -30 -13t-30 11l-168 166l-164 -164q-12 -12 -27.5 -13t-29.5 13 l-16 17q-12 12 -14.5 29.5z" />
<glyph unicode="&#xd8;" horiz-adv-x="708" d="M58 291v801q0 66 24.5 123t66.5 99t99.5 66.5t122.5 24.5q66 0 123 -24.5t99 -66.5t66.5 -99.5t24.5 -122.5v-801q0 -66 -24.5 -123t-66.5 -99t-99 -67t-123 -25t-123 25t-99 67t-66.5 99t-24.5 123zM65 39l502 1302q10 27 22.5 34t35.5 7h26q29 0 34 -10t-5 -39 l-508 -1304q-12 -29 -45 -29h-39q-37 0 -23 39zM160 291q0 -43 16.5 -82t45 -67.5t67.5 -45t82 -16.5t82 16.5t67.5 45t45 67.5t16.5 82v801q0 43 -16.5 81.5t-45 67.5t-67.5 45.5t-82 16.5t-82 -16.5t-67.5 -45.5t-45 -67.5t-16.5 -81.5v-801z" />
<glyph unicode="&#xd9;" horiz-adv-x="745" d="M70 291v1050q0 16 10 28.5t31 12.5h22q16 0 29.5 -11t13.5 -30v-1050q0 -43 16.5 -82t44 -67.5t65.5 -45t81 -16.5q88 0 147.5 61.5t59.5 149.5v1050q0 16 10 28.5t31 12.5h23q16 0 29.5 -11t13.5 -30v-1050q0 -66 -25 -123t-67 -99t-99 -67t-123 -25t-123 25t-99 67 t-66.5 99t-24.5 123zM204 1720q-41 72 6 72h37q10 0 24.5 -2t35.5 -37l112 -201q43 -76 -6 -76h-43q-33 0 -51 35z" />
<glyph unicode="&#xda;" horiz-adv-x="753" d="M66 291v1050q0 16 10 28.5t31 12.5h22q16 0 29.5 -11t13.5 -30v-1050q0 -43 16.5 -82t44 -67.5t65.5 -45t81 -16.5q88 0 147.5 61.5t59.5 149.5v1050q0 16 10 28.5t31 12.5h23q16 0 29.5 -11t13.5 -30v-1050q0 -66 -25 -123t-67 -99t-99 -67t-123 -25t-123 25t-99 67 t-66.5 99t-24.5 123zM351 1552l112 201q20 35 34.5 37t25.5 2h36q47 0 7 -72l-115 -209q-18 -35 -51 -35h-43q-49 0 -6 76z" />
<glyph unicode="&#xdb;" horiz-adv-x="733" d="M60 291v1050q0 16 10 28.5t31 12.5h22q16 0 29.5 -11t13.5 -30v-1050q0 -43 16.5 -82t44 -67.5t65.5 -45t81 -16.5q88 0 147.5 61.5t59.5 149.5v1050q0 16 10 28.5t31 12.5h23q16 0 29.5 -11t13.5 -30v-1050q0 -66 -25 -123t-67 -99t-99 -67t-123 -25t-123 25t-99 67 t-66.5 99t-24.5 123zM91 1536.5q1 15.5 13 27.5l238 238q25 25 53 -4l233 -234q29 -31 0 -59l-14 -14q-14 -14 -30.5 -13.5t-28.5 11.5l-189 186l-186 -186q-12 -12 -28.5 -12.5t-28.5 12.5l-19 18q-14 14 -13 29.5z" />
<glyph unicode="&#xdc;" horiz-adv-x="712" d="M45 291v1050q0 16 10 28.5t31 12.5h22q16 0 29.5 -11t13.5 -30v-1050q0 -43 16.5 -82t44 -67.5t65.5 -45t81 -16.5q88 0 147.5 61.5t59.5 149.5v1050q0 16 10 28.5t31 12.5h23q16 0 29.5 -11t13.5 -30v-1050q0 -66 -25 -123t-67 -99t-99 -67t-123 -25t-123 25t-99 67 t-66.5 99t-24.5 123zM158 1567v22q0 16 10 28.5t31 12.5h22q16 0 29.5 -11t13.5 -30v-22q0 -43 -43 -43h-22q-41 0 -41 43zM445 1567v22q0 16 10 28.5t31 12.5h22q16 0 29.5 -11t13.5 -30v-22q0 -43 -43 -43h-22q-41 0 -41 43z" />
<glyph unicode="&#xdd;" horiz-adv-x="729" d="M43 1317q-25 66 23 65h20q23 0 35 -4t20 -22l224 -568l217 568q8 18 21.5 22t33.5 4h21q45 0 36 -26l-14 -39q-74 -203 -121 -324t-74.5 -189.5t-41 -100t-21.5 -58.5v-602q0 -43 -43 -43h-23q-41 0 -40 43v600zM351 1550l112 201q20 35 34.5 37t25.5 2h36q47 0 7 -72 l-115 -209q-18 -35 -51 -35h-43q-49 0 -6 76z" />
<glyph unicode="&#xdf;" horiz-adv-x="757" d="M82 43v1296q0 18 12 30.5t31 12.5h272q59 0 112.5 -24.5t93.5 -66.5t63.5 -99t23.5 -123v-55q0 -59 -29.5 -123t-95.5 -111q57 -23 101.5 -92.5t44.5 -181.5v-193q0 -66 -24.5 -123t-66.5 -99t-99.5 -66.5t-123.5 -24.5h-24q-43 0 -43 39v22q0 41 43 41h24q43 0 81 16.5 t67.5 45.5t46 67.5t16.5 81.5v191q0 43 -16.5 82t-46 67.5t-67.5 45t-81 16.5h-24q-43 0 -43 39v22q0 41 43 41h24q92 0 141.5 59.5t49.5 151.5v41q0 84 -64 148q-31 31 -57.5 47t-69.5 16h-213v-1237q0 -43 -39 -43h-22q-41 0 -41 43z" />
<glyph unicode="&#xe0;" horiz-adv-x="759" d="M51 305q0 68 25.5 126t71 100t105.5 67t128 25h221q0 96 -14.5 158.5t-42 98t-69.5 49t-95 13.5q-59 0 -98 -20t-68 -45q-12 -10 -29.5 -13.5t-29.5 13.5l-15 16q-10 12 -12 29.5t10 29.5q41 47 106.5 72t135.5 25q68 0 128 -19.5t104 -69t70 -131t26 -206.5v-580 q0 -43 -43 -43h-23q-41 0 -41 43v23q-18 -29 -49 -45.5t-64.5 -26.5t-63.5 -13.5t-44 -3.5q-68 0 -128 26t-105.5 70t-71 104.5t-25.5 127.5zM160 305q0 -47 17.5 -87t47 -70.5t69.5 -48t87 -17.5q92 0 156.5 56.5t64.5 166.5v209h-221q-47 0 -87 -16.5t-69.5 -44t-47 -65.5 t-17.5 -83zM223 1358q-41 72 6 72h37q10 0 24.5 -2t35.5 -37l112 -201q43 -76 -6 -76h-43q-33 0 -51 35z" />
<glyph unicode="&#xe1;" horiz-adv-x="745" d="M41 305q0 68 25.5 126t71 100t105.5 67t128 25h221q0 96 -14.5 158.5t-42 98t-69.5 49t-95 13.5q-59 0 -98 -20t-68 -45q-12 -10 -29.5 -13.5t-29.5 13.5l-15 16q-10 12 -12 29.5t10 29.5q41 47 106.5 72t135.5 25q68 0 128 -19.5t104 -69t70 -131t26 -206.5v-580 q0 -43 -43 -43h-23q-41 0 -41 43v23q-18 -29 -49 -45.5t-64.5 -26.5t-63.5 -13.5t-44 -3.5q-68 0 -128 26t-105.5 70t-71 104.5t-25.5 127.5zM150 305q0 -47 17.5 -87t47 -70.5t69.5 -48t87 -17.5q92 0 156.5 56.5t64.5 166.5v209h-221q-47 0 -87 -16.5t-69.5 -44t-47 -65.5 t-17.5 -83zM349 1192l112 201q20 35 34.5 37t25.5 2h36q47 0 7 -72l-115 -209q-18 -35 -51 -35h-43q-49 0 -6 76z" />
<glyph unicode="&#xe2;" horiz-adv-x="759" d="M39 305q0 68 25.5 126t71 100t105.5 67t128 25h221q0 96 -14.5 158.5t-42 98t-69.5 49t-95 13.5q-59 0 -98 -20t-68 -45q-12 -10 -29.5 -13.5t-29.5 13.5l-15 16q-10 12 -12 29.5t10 29.5q41 47 106.5 72t135.5 25q68 0 128 -19.5t104 -69t70 -131t26 -206.5v-580 q0 -43 -43 -43h-23q-41 0 -41 43v23q-18 -29 -49 -45.5t-64.5 -26.5t-63.5 -13.5t-44 -3.5q-68 0 -128 26t-105.5 70t-71 104.5t-25.5 127.5zM126 1176.5q1 15.5 13 27.5l238 238q25 25 53 -4l233 -234q29 -31 0 -59l-14 -14q-14 -14 -30.5 -13.5t-28.5 11.5l-189 186 l-186 -186q-12 -12 -28.5 -12.5t-28.5 12.5l-19 18q-14 14 -13 29.5zM148 305q0 -47 17.5 -87t47 -70.5t69.5 -48t87 -17.5q92 0 156.5 56.5t64.5 166.5v209h-221q-47 0 -87 -16.5t-69.5 -44t-47 -65.5t-17.5 -83z" />
<glyph unicode="&#xe3;" horiz-adv-x="751" d="M39 305q0 68 25.5 126t71 100t105.5 67t128 25h221q0 96 -14.5 158.5t-42 98t-69.5 49t-95 13.5q-59 0 -98 -20t-68 -45q-12 -10 -29.5 -13.5t-29.5 13.5l-15 16q-10 12 -12 29.5t10 29.5q41 47 106.5 72t135.5 25q68 0 128 -19.5t104 -69t70 -131t26 -206.5v-580 q0 -43 -43 -43h-23q-41 0 -41 43v23q-18 -29 -49 -45.5t-64.5 -26.5t-63.5 -13.5t-44 -3.5q-68 0 -128 26t-105.5 70t-71 104.5t-25.5 127.5zM116.5 1222.5q2.5 18.5 10.5 37.5q29 72 73 98.5t78 26.5q37 0 63.5 -18.5t48 -40l40 -40t39.5 -18.5q33 0 51 24.5t35 61.5 q10 23 23.5 28t31.5 -4l14 -6q25 -10 20 -35t-15 -39q-39 -59 -73 -89.5t-81 -30.5q-33 0 -60.5 18.5t-50 41t-41 40.5t-32.5 18q-41 0 -58.5 -24.5t-31.5 -54.5q-12 -37 -25.5 -39t-28.5 4l-10 6q-23 16 -20.5 34.5zM148 305q0 -47 17.5 -87t47 -70.5t69.5 -48t87 -17.5 q92 0 156.5 56.5t64.5 166.5v209h-221q-47 0 -87 -16.5t-69.5 -44t-47 -65.5t-17.5 -83z" />
<glyph unicode="&#xe4;" horiz-adv-x="718" d="M20 305q0 68 25.5 126t71 100t105.5 67t128 25h221q0 96 -14.5 158.5t-42 98t-69.5 49t-95 13.5q-59 0 -98 -20t-68 -45q-12 -10 -29.5 -13.5t-29.5 13.5l-15 16q-10 12 -12 29.5t10 29.5q41 47 106.5 72t135.5 25q68 0 128 -19.5t104 -69t70 -131t26 -206.5v-580 q0 -43 -43 -43h-23q-41 0 -41 43v23q-18 -29 -49 -45.5t-64.5 -26.5t-63.5 -13.5t-44 -3.5q-68 0 -128 26t-105.5 70t-71 104.5t-25.5 127.5zM129 305q0 -47 17.5 -87t47 -70.5t69.5 -48t87 -17.5q92 0 156.5 56.5t64.5 166.5v209h-221q-47 0 -87 -16.5t-69.5 -44t-47 -65.5 t-17.5 -83zM158 1221v22q0 16 10 28.5t31 12.5h22q16 0 29.5 -11t13.5 -30v-22q0 -43 -43 -43h-22q-41 0 -41 43zM445 1221v22q0 16 10 28.5t31 12.5h22q16 0 29.5 -11t13.5 -30v-22q0 -43 -43 -43h-22q-41 0 -41 43z" />
<glyph unicode="&#xe5;" horiz-adv-x="751" d="M51 305q0 68 25.5 126t71 100t105.5 67t128 25h221q0 96 -14.5 158.5t-42 98t-69.5 49t-95 13.5q-59 0 -98 -20t-68 -45q-12 -10 -29.5 -13.5t-29.5 13.5l-15 16q-10 12 -12 29.5t10 29.5q41 47 106.5 72t135.5 25q68 0 128 -19.5t104 -69t70 -131t26 -206.5v-580 q0 -43 -43 -43h-23q-41 0 -41 43v23q-18 -29 -49 -45.5t-64.5 -26.5t-63.5 -13.5t-44 -3.5q-68 0 -128 26t-105.5 70t-71 104.5t-25.5 127.5zM160 305q0 -47 17.5 -87t47 -70.5t69.5 -48t87 -17.5q92 0 156.5 56.5t64.5 166.5v209h-221q-47 0 -87 -16.5t-69.5 -44t-47 -65.5 t-17.5 -83zM246 1333q0 63 44.5 109.5t110.5 46.5t111 -46t45 -110q0 -66 -45 -110.5t-111 -44.5t-110.5 45t-44.5 110zM352 1333q0 -20 14.5 -34.5t34.5 -14.5t35 14.5t15 34.5t-14.5 35t-35.5 15q-20 0 -34.5 -15t-14.5 -35z" />
<glyph unicode="&#xe6;" horiz-adv-x="1277" d="M37 305q0 68 25.5 126t71 100t105.5 67t128 25h221q0 96 -14.5 158.5t-42 98t-69.5 49t-95 13.5q-59 0 -98 -20t-68 -45q-12 -10 -29.5 -13.5t-29.5 13.5l-15 16q-10 12 -12 29.5t10 29.5q41 47 106.5 72t135.5 25q68 0 128 -19.5t104 -69t70 -131t26 -206.5v-580 q0 -43 -43 -43h-23q-41 0 -41 43v23q-18 -29 -49 -45.5t-64.5 -26.5t-63.5 -13.5t-44 -3.5q-68 0 -128 26t-105.5 70t-71 104.5t-25.5 127.5zM146 305q0 -47 17.5 -87t47 -70.5t69.5 -48t87 -17.5q92 0 156.5 56.5t64.5 166.5v209h-221q-47 0 -87 -16.5t-69.5 -44t-47 -65.5 t-17.5 -83zM582 305v365q0 88 25.5 158.5t70.5 119.5t105.5 75t127.5 26q68 0 128.5 -25t105.5 -73t70.5 -118.5t25.5 -162.5v-95q0 -18 -12.5 -30.5t-30.5 -12.5h-508v-227q0 -47 17.5 -87t47 -70.5t69.5 -48t87 -17.5q55 0 93 12t63 34t39 48.5t22 54.5q4 16 12.5 28.5 t35.5 12.5h22q37 0 37 -41q-10 -51 -38 -97t-71 -82t-97 -56.5t-118 -20.5q-68 0 -128 26t-105 71t-70.5 105.5t-25.5 127.5zM692 637h445q0 84 -18.5 143.5t-49.5 96t-72 54t-86 17.5q-39 0 -77.5 -16.5t-70.5 -53t-51.5 -96t-19.5 -145.5z" />
<glyph unicode="&#xe7;" horiz-adv-x="745" d="M54 305v414q0 68 25.5 128t69.5 105t104.5 71t129.5 26q61 0 114.5 -21.5t95.5 -56.5t71 -80t39 -92q4 -18 -8.5 -29.5t-28.5 -11.5h-29q-16 0 -25.5 12t-15.5 29q-10 25 -26.5 50t-43 45.5t-61.5 34t-82 13.5t-87 -17.5t-70.5 -48t-48 -71.5t-17.5 -86v-414 q0 -47 17.5 -87t48 -70.5t70.5 -48t87 -17.5q92 0 141.5 41t67.5 92q12 35 20.5 46t24.5 11h29q18 0 29.5 -10t9.5 -31q-10 -53 -38 -99t-70 -81t-96 -55.5t-118 -20.5q-70 0 -130 26t-104 71t-69.5 105.5t-25.5 127.5zM322 33q0 41 41 41h22q43 0 43 -41v-106 q51 -20 83 -65.5t32 -102.5q0 -76 -52 -127t-128 -51q-16 0 -28.5 10t-12.5 31v22q0 16 11.5 29.5t29.5 13.5q31 0 52.5 20.5t21.5 51.5q0 29 -19.5 49t-48.5 25h-6q-20 0 -30.5 12t-10.5 29v159z" />
<glyph unicode="&#xe8;" horiz-adv-x="755" d="M56 305v365q0 88 25.5 158.5t70.5 119.5t105.5 75t127.5 26q68 0 128.5 -25t105.5 -73t70.5 -118.5t25.5 -162.5v-95q0 -18 -12.5 -30.5t-30.5 -12.5h-508v-227q0 -47 17.5 -87t47 -70.5t69.5 -48t87 -17.5q55 0 93 12t63 34t39 48.5t22 54.5q4 16 12.5 28.5t35.5 12.5 h22q37 0 37 -41q-10 -51 -38 -97t-71 -82t-97 -56.5t-118 -20.5q-68 0 -128 26t-105 71t-70.5 105.5t-25.5 127.5zM166 637h445q0 84 -18.5 143.5t-49.5 96t-72 54t-86 17.5q-39 0 -77.5 -16.5t-70.5 -53t-51.5 -96t-19.5 -145.5zM215 1360q-41 72 6 72h37q10 0 24.5 -2 t35.5 -37l112 -201q43 -76 -6 -76h-43q-33 0 -51 35z" />
<glyph unicode="&#xe9;" horiz-adv-x="759" d="M64 305v365q0 88 25.5 158.5t70.5 119.5t105.5 75t127.5 26q68 0 128.5 -25t105.5 -73t70.5 -118.5t25.5 -162.5v-95q0 -18 -12.5 -30.5t-30.5 -12.5h-508v-227q0 -47 17.5 -87t47 -70.5t69.5 -48t87 -17.5q55 0 93 12t63 34t39 48.5t22 54.5q4 16 12.5 28.5t35.5 12.5 h22q37 0 37 -41q-10 -51 -38 -97t-71 -82t-97 -56.5t-118 -20.5q-68 0 -128 26t-105 71t-70.5 105.5t-25.5 127.5zM174 637h445q0 84 -18.5 143.5t-49.5 96t-72 54t-86 17.5q-39 0 -77.5 -16.5t-70.5 -53t-51.5 -96t-19.5 -145.5zM365 1190l112 201q20 35 34.5 37t25.5 2h36 q47 0 7 -72l-115 -209q-18 -35 -51 -35h-43q-49 0 -6 76z" />
<glyph unicode="&#xea;" horiz-adv-x="751" d="M60 305v365q0 88 25.5 158.5t70.5 119.5t105.5 75t127.5 26q68 0 128.5 -25t105.5 -73t70.5 -118.5t25.5 -162.5v-95q0 -18 -12.5 -30.5t-30.5 -12.5h-508v-227q0 -47 17.5 -87t47 -70.5t69.5 -48t87 -17.5q55 0 93 12t63 34t39 48.5t22 54.5q4 16 12.5 28.5t35.5 12.5 h22q37 0 37 -41q-10 -51 -38 -97t-71 -82t-97 -56.5t-118 -20.5q-68 0 -128 26t-105 71t-70.5 105.5t-25.5 127.5zM110 1176.5q1 15.5 13 27.5l238 238q25 25 53 -4l233 -234q29 -31 0 -59l-14 -14q-14 -14 -30.5 -13.5t-28.5 11.5l-189 186l-186 -186q-12 -12 -28.5 -12.5 t-28.5 12.5l-19 18q-14 14 -13 29.5zM170 637h445q0 84 -18.5 143.5t-49.5 96t-72 54t-86 17.5q-39 0 -77.5 -16.5t-70.5 -53t-51.5 -96t-19.5 -145.5z" />
<glyph unicode="&#xeb;" horiz-adv-x="753" d="M56 305v365q0 88 25.5 158.5t70.5 119.5t105.5 75t127.5 26q68 0 128.5 -25t105.5 -73t70.5 -118.5t25.5 -162.5v-95q0 -18 -12.5 -30.5t-30.5 -12.5h-508v-227q0 -47 17.5 -87t47 -70.5t69.5 -48t87 -17.5q55 0 93 12t63 34t39 48.5t22 54.5q4 16 12.5 28.5t35.5 12.5 h22q37 0 37 -41q-10 -51 -38 -97t-71 -82t-97 -56.5t-118 -20.5q-68 0 -128 26t-105 71t-70.5 105.5t-25.5 127.5zM166 637h445q0 84 -18.5 143.5t-49.5 96t-72 54t-86 17.5q-39 0 -77.5 -16.5t-70.5 -53t-51.5 -96t-19.5 -145.5zM195 1221v22q0 16 10 28.5t31 12.5h22 q16 0 29.5 -11t13.5 -30v-22q0 -43 -43 -43h-22q-41 0 -41 43zM482 1221v22q0 16 10 28.5t31 12.5h22q16 0 29.5 -11t13.5 -30v-22q0 -43 -43 -43h-22q-41 0 -41 43z" />
<glyph unicode="&#xec;" horiz-adv-x="225" d="M-76 1354q-41 72 6 71h37q10 0 24.5 -2t35.5 -37l112 -200q43 -76 -6 -76h-43q-33 0 -51 35zM57 41v942q0 41 41 41h23q43 0 43 -41v-942q0 -18 -13.5 -29.5t-29.5 -11.5h-23q-20 0 -30.5 12.5t-10.5 28.5z" />
<glyph unicode="&#xed;" horiz-adv-x="227" d="M57 41v942q0 41 41 41h23q43 0 43 -41v-942q0 -18 -13.5 -29.5t-29.5 -11.5h-23q-20 0 -30.5 12.5t-10.5 28.5zM86 1184l113 200q20 35 34.5 37t24.5 2h37q47 0 6 -71l-115 -209q-18 -35 -51 -35h-43q-49 0 -6 76z" />
<glyph unicode="&#xee;" horiz-adv-x="227" d="M-165 1168.5q1 15.5 13 27.5l238 238q25 25 53 -4l234 -234q29 -31 0 -59l-15 -15q-14 -14 -30.5 -13t-28.5 11l-188 187l-187 -187q-12 -12 -28.5 -12t-28.5 12l-19 19q-14 14 -13 29.5zM57 41v942q0 41 41 41h23q43 0 43 -41v-942q0 -18 -13.5 -29.5t-29.5 -11.5h-23 q-20 0 -30.5 12.5t-10.5 28.5z" />
<glyph unicode="&#xef;" horiz-adv-x="217" d="M-86 1214v23q0 16 10 28.5t31 12.5h22q16 0 29.5 -11.5t13.5 -29.5v-23q0 -43 -43 -43h-22q-41 0 -41 43zM57 41v942q0 41 41 41h23q43 0 43 -41v-942q0 -18 -13.5 -29.5t-29.5 -11.5h-23q-20 0 -30.5 12.5t-10.5 28.5zM201 1214v23q0 16 10 28.5t31 12.5h22 q16 0 29.5 -11.5t13.5 -29.5v-23q0 -43 -43 -43h-22q-41 0 -41 43z" />
<glyph unicode="&#xf1;" horiz-adv-x="804" d="M82 41v942q0 41 41 41h22q43 0 43 -61q35 33 92.5 59.5t129.5 26.5q70 0 129 -26t104 -71t70.5 -105.5t25.5 -127.5v-678q0 -18 -13 -29.5t-30 -11.5h-22q-20 0 -30.5 12.5t-10.5 28.5v678q0 43 -17.5 83t-48 70.5t-71.5 50t-86 19.5q-43 0 -83 -17.5t-71 -48 t-49.5 -70.5t-18.5 -85v-680q0 -18 -13 -29.5t-30 -11.5h-22q-20 0 -30.5 12.5t-10.5 28.5zM130.5 1226.5q2.5 18.5 10.5 37.5q29 72 73 98.5t78 26.5q37 0 63.5 -18.5t48 -40l40 -40t39.5 -18.5q33 0 51 24.5t35 61.5q10 23 23.5 28t31.5 -4l14 -6q25 -10 20 -35t-15 -39 q-39 -59 -73 -89.5t-81 -30.5q-33 0 -60.5 18.5t-50 41t-41 40.5t-32.5 18q-41 0 -58.5 -24.5t-31.5 -54.5q-12 -37 -25.5 -39t-28.5 4l-10 6q-23 16 -20.5 34.5z" />
<glyph unicode="&#xf2;" horiz-adv-x="806" d="M78 305v414q0 68 25.5 128t69.5 105t104.5 71t129.5 26q68 0 128.5 -26t104.5 -71t69.5 -105.5t25.5 -127.5v-414q0 -68 -25.5 -128t-69.5 -105t-104.5 -71t-128.5 -26q-70 0 -130 26t-104 71t-69.5 105.5t-25.5 127.5zM184 305q0 -47 17.5 -87t48 -70.5t70.5 -48 t87 -17.5q45 0 85 17.5t71 48t48 70.5t17 87v414q0 45 -17 86t-48 71.5t-71 48t-85 17.5q-47 0 -87 -17.5t-70.5 -48t-48 -71.5t-17.5 -86v-414zM237 1362q-41 72 6 72h37q10 0 24.5 -2t35.5 -37l112 -201q43 -76 -6 -76h-43q-33 0 -51 35z" />
<glyph unicode="&#xf3;" horiz-adv-x="759" d="M56 305v414q0 68 25.5 128t69.5 105t104.5 71t129.5 26q68 0 128.5 -26t104.5 -71t69.5 -105.5t25.5 -127.5v-414q0 -68 -25.5 -128t-69.5 -105t-104.5 -71t-128.5 -26q-70 0 -130 26t-104 71t-69.5 105.5t-25.5 127.5zM162 305q0 -47 17.5 -87t48 -70.5t70.5 -48 t87 -17.5q45 0 85 17.5t71 48t48 70.5t17 87v414q0 45 -17 86t-48 71.5t-71 48t-85 17.5q-47 0 -87 -17.5t-70.5 -48t-48 -71.5t-17.5 -86v-414zM355 1190l112 201q20 35 34.5 37t25.5 2h36q47 0 7 -72l-115 -209q-18 -35 -51 -35h-43q-49 0 -6 76z" />
<glyph unicode="&#xf4;" horiz-adv-x="768" d="M66 305v414q0 68 25.5 128t69.5 105t104.5 71t129.5 26q68 0 128.5 -26t104.5 -71t69.5 -105.5t25.5 -127.5v-414q0 -68 -25.5 -128t-69.5 -105t-104.5 -71t-128.5 -26q-70 0 -130 26t-104 71t-69.5 105.5t-25.5 127.5zM124 1174.5q1 15.5 13 27.5l238 238q25 25 53 -4 l233 -234q29 -31 0 -59l-14 -14q-14 -14 -30.5 -13.5t-28.5 11.5l-189 186l-186 -186q-12 -12 -28.5 -12.5t-28.5 12.5l-19 18q-14 14 -13 29.5zM172 305q0 -47 17.5 -87t48 -70.5t70.5 -48t87 -17.5q45 0 85 17.5t71 48t48 70.5t17 87v414q0 45 -17 86t-48 71.5t-71 48 t-85 17.5q-47 0 -87 -17.5t-70.5 -48t-48 -71.5t-17.5 -86v-414z" />
<glyph unicode="&#xf5;" horiz-adv-x="790" d="M72 305v414q0 68 25.5 128t69.5 105t104.5 71t129.5 26q68 0 128.5 -26t104.5 -71t69.5 -105.5t25.5 -127.5v-414q0 -68 -25.5 -128t-69.5 -105t-104.5 -71t-128.5 -26q-70 0 -130 26t-104 71t-69.5 105.5t-25.5 127.5zM141.5 1224.5q2.5 18.5 10.5 37.5q29 72 73 98.5 t78 26.5q37 0 63.5 -18.5t48 -40l40 -40t39.5 -18.5q33 0 51 24.5t35 61.5q10 23 23.5 28t31.5 -4l14 -6q25 -10 20 -35t-15 -39q-39 -59 -73 -89.5t-81 -30.5q-33 0 -60.5 18.5t-50 41t-41 40.5t-32.5 18q-41 0 -58.5 -24.5t-31.5 -54.5q-12 -37 -25.5 -39t-28.5 4l-10 6 q-23 16 -20.5 34.5zM178 305q0 -47 17.5 -87t48 -70.5t70.5 -48t87 -17.5q45 0 85 17.5t71 48t48 70.5t17 87v414q0 45 -17 86t-48 71.5t-71 48t-85 17.5q-47 0 -87 -17.5t-70.5 -48t-48 -71.5t-17.5 -86v-414z" />
<glyph unicode="&#xf6;" horiz-adv-x="735" d="M48 305v414q0 68 25.5 128t69.5 105t104.5 71t129.5 26q68 0 128.5 -26t104.5 -71t69.5 -105.5t25.5 -127.5v-414q0 -68 -25.5 -128t-69.5 -105t-104.5 -71t-128.5 -26q-70 0 -130 26t-104 71t-69.5 105.5t-25.5 127.5zM154 305q0 -47 17.5 -87t48 -70.5t70.5 -48 t87 -17.5q45 0 85 17.5t71 48t48 70.5t17 87v414q0 45 -17 86t-48 71.5t-71 48t-85 17.5q-47 0 -87 -17.5t-70.5 -48t-48 -71.5t-17.5 -86v-414zM178 1221v22q0 16 10 28.5t31 12.5h22q16 0 29.5 -11t13.5 -30v-22q0 -43 -43 -43h-22q-41 0 -41 43zM465 1221v22 q0 16 10 28.5t31 12.5h22q16 0 29.5 -11t13.5 -30v-22q0 -43 -43 -43h-22q-41 0 -41 43z" />
<glyph unicode="&#xf7;" horiz-adv-x="661" d="M2 461v22q0 41 43 41h573q16 0 28.5 -10t12.5 -31v-22q0 -16 -11 -29.5t-30 -13.5h-573q-43 0 -43 43zM276 811v25q0 16 10.5 28.5t30.5 12.5h25q16 0 28.5 -11.5t12.5 -29.5v-25q0 -41 -41 -41h-25q-41 0 -41 41zM279 41v25q0 16 10 28t30 12h25q16 0 28.5 -11t12.5 -29 v-25q0 -41 -41 -41h-25q-41 0 -40 41z" />
<glyph unicode="&#xf8;" horiz-adv-x="792" d="M68 305v414q0 68 25.5 128t69.5 105t104.5 71t129.5 26q68 0 128.5 -26t104.5 -71t69.5 -105.5t25.5 -127.5v-414q0 -68 -25.5 -128t-69.5 -105t-104.5 -71t-128.5 -26q-70 0 -130 26t-104 71t-69.5 105.5t-25.5 127.5zM90 -119l502 1302q10 27 22.5 34t35.5 7h26 q29 0 34 -10t-5 -39l-508 -1304q-12 -29 -45 -29h-39q-37 0 -23 39zM174 305q0 -47 17.5 -87t48 -70.5t70.5 -48t87 -17.5q45 0 85 17.5t71 48t48 70.5t17 87v414q0 45 -17 86t-48 71.5t-71 48t-85 17.5q-47 0 -87 -17.5t-70.5 -48t-48 -71.5t-17.5 -86v-414z" />
<glyph unicode="&#xf9;" horiz-adv-x="876" d="M107 301v682q0 18 13 29.5t30 11.5h22q20 0 30.5 -12.5t10.5 -28.5v-682q0 -43 17.5 -82t48.5 -69.5t70.5 -49t87.5 -18.5q43 0 82.5 17.5t70.5 46t49.5 68.5t18.5 85v684q0 18 13 29.5t30 11.5h22q20 0 30.5 -12.5t10.5 -28.5v-942q0 -41 -41 -41h-22q-53 0 -43 78 q-35 -53 -92.5 -78t-128.5 -25q-70 0 -130.5 26t-104.5 70t-69.5 103t-25.5 127zM260 1358q-41 72 6 72h37q10 0 24.5 -2t35.5 -37l112 -201q43 -76 -6 -76h-43q-33 0 -51 35z" />
<glyph unicode="&#xfa;" horiz-adv-x="882" d="M111 301v682q0 18 13 29.5t30 11.5h22q20 0 30.5 -12.5t10.5 -28.5v-682q0 -43 17.5 -82t48.5 -69.5t70.5 -49t87.5 -18.5q43 0 82.5 17.5t70.5 46t49.5 68.5t18.5 85v684q0 18 13 29.5t30 11.5h22q20 0 30.5 -12.5t10.5 -28.5v-942q0 -41 -41 -41h-22q-53 0 -43 78 q-35 -53 -92.5 -78t-128.5 -25q-70 0 -130.5 26t-104.5 70t-69.5 103t-25.5 127zM412 1192l112 201q20 35 34.5 37t25.5 2h36q47 0 7 -72l-115 -209q-18 -35 -51 -35h-43q-49 0 -6 76z" />
<glyph unicode="&#xfb;" horiz-adv-x="897" d="M117 301v682q0 18 13 29.5t30 11.5h22q20 0 30.5 -12.5t10.5 -28.5v-682q0 -43 17.5 -82t48.5 -69.5t70.5 -49t87.5 -18.5q43 0 82.5 17.5t70.5 46t49.5 68.5t18.5 85v684q0 18 13 29.5t30 11.5h22q20 0 30.5 -12.5t10.5 -28.5v-942q0 -41 -41 -41h-22q-53 0 -43 78 q-35 -53 -92.5 -78t-128.5 -25q-70 0 -130.5 26t-104.5 70t-69.5 103t-25.5 127zM165 1180.5q1 15.5 13 27.5l238 238q25 25 53 -4l233 -234q29 -31 0 -59l-14 -14q-14 -14 -30.5 -13.5t-28.5 11.5l-189 186l-186 -186q-12 -12 -28.5 -12.5t-28.5 12.5l-19 18 q-14 14 -13 29.5z" />
<glyph unicode="&#xfc;" horiz-adv-x="872" d="M105 301v682q0 18 13 29.5t30 11.5h22q20 0 30.5 -12.5t10.5 -28.5v-682q0 -43 17.5 -82t48.5 -69.5t70.5 -49t87.5 -18.5q43 0 82.5 17.5t70.5 46t49.5 68.5t18.5 85v684q0 18 13 29.5t30 11.5h22q20 0 30.5 -12.5t10.5 -28.5v-942q0 -41 -41 -41h-22q-53 0 -43 78 q-35 -53 -92.5 -78t-128.5 -25q-70 0 -130.5 26t-104.5 70t-69.5 103t-25.5 127zM254 1221v22q0 16 10 28.5t31 12.5h22q16 0 29.5 -11t13.5 -30v-22q0 -43 -43 -43h-22q-41 0 -41 43zM541 1221v22q0 16 10 28.5t31 12.5h22q16 0 29.5 -11t13.5 -30v-22q0 -43 -43 -43h-22 q-41 0 -41 43z" />
<glyph unicode="&#xfd;" horiz-adv-x="841" d="M84 301v682q0 41 41 41h25q43 0 43 -41v-682q0 -47 17.5 -87t48 -70.5t70.5 -48t85 -17.5t86 17.5t71 48t47 70.5t17 87v682q0 41 41 41h25q43 0 43 -41v-1034q0 -68 -25.5 -128.5t-70.5 -104.5t-105.5 -69.5t-128.5 -25.5t-131 23.5t-108 70.5q-25 29 0 60l16 14 q14 12 30.5 13t28.5 -11q27 -23 63 -43t101 -20q45 0 86 17t71 48t47 71t17 85v108q-47 -51 -109.5 -68.5t-111.5 -17.5q-68 0 -128 26t-105 71t-71 105t-26 128zM385 1190l112 201q20 35 34.5 37t25.5 2h36q47 0 7 -72l-115 -209q-18 -35 -51 -35h-43q-49 0 -6 76z" />
<glyph unicode="&#xff;" horiz-adv-x="847" d="M88 301v682q0 41 41 41h25q43 0 43 -41v-682q0 -47 17.5 -87t48 -70.5t70.5 -48t85 -17.5t86 17.5t71 48t47 70.5t17 87v682q0 41 41 41h25q43 0 43 -41v-1034q0 -68 -25.5 -128.5t-70.5 -104.5t-105.5 -69.5t-128.5 -25.5t-131 23.5t-108 70.5q-25 29 0 60l16 14 q14 12 30.5 13t28.5 -11q27 -23 63 -43t101 -20q45 0 86 17t71 48t47 71t17 85v108q-47 -51 -109.5 -68.5t-111.5 -17.5q-68 0 -128 26t-105 71t-71 105t-26 128zM230 1221v22q0 16 10 28.5t31 12.5h22q16 0 29.5 -11t13.5 -30v-22q0 -43 -43 -43h-22q-41 0 -41 43z M517 1221v22q0 16 10 28.5t31 12.5h22q16 0 29.5 -11t13.5 -30v-22q0 -43 -43 -43h-22q-41 0 -41 43z" />
<glyph unicode="&#x152;" horiz-adv-x="1177" d="M58 291v801q0 66 24.5 123t66.5 99t99.5 66.5t122.5 24.5q66 0 123 -24.5t99 -66.5t66.5 -99.5t24.5 -122.5v-801q0 -66 -24.5 -123t-66.5 -99t-99 -67t-123 -25t-123 25t-99 67t-66.5 99t-24.5 123zM160 291q0 -43 16.5 -82t45 -67.5t67.5 -45t82 -16.5t82 16.5t67.5 45 t45 67.5t16.5 82v801q0 43 -16.5 81.5t-45 67.5t-67.5 45.5t-82 16.5t-82 -16.5t-67.5 -45.5t-45 -67.5t-16.5 -81.5v-801zM576 41v1300q0 16 10 28.5t31 12.5h487q16 0 28.5 -10t12.5 -31v-22q0 -16 -11 -29.5t-30 -13.5h-422v-533h340q16 0 28.5 -10t12.5 -31v-22 q0 -16 -11 -29.5t-30 -13.5h-340v-531h422q16 0 28.5 -10t12.5 -30v-23q0 -16 -11 -29.5t-30 -13.5h-487q-41 0 -41 41z" />
<glyph unicode="&#x153;" horiz-adv-x="1308" d="M60 305v414q0 68 25.5 128t69.5 105t104.5 71t129.5 26q68 0 128.5 -26t104.5 -71t69.5 -105.5t25.5 -127.5v-414q0 -68 -25.5 -128t-69.5 -105t-104.5 -71t-128.5 -26q-70 0 -130 26t-104 71t-69.5 105.5t-25.5 127.5zM166 305q0 -47 17.5 -87t48 -70.5t70.5 -48 t87 -17.5q45 0 85 17.5t71 48t48 70.5t17 87v414q0 45 -17 86t-48 71.5t-71 48t-85 17.5q-47 0 -87 -17.5t-70.5 -48t-48 -71.5t-17.5 -86v-414zM607 305v365q0 88 25.5 158.5t70.5 119.5t105.5 75t127.5 26q68 0 128.5 -25t105.5 -73t70.5 -118.5t25.5 -162.5v-95 q0 -18 -12.5 -30.5t-30.5 -12.5h-508v-227q0 -47 17.5 -87t47 -70.5t69.5 -48t87 -17.5q55 0 93 12t63 34t39 48.5t22 54.5q4 16 12.5 28.5t35.5 12.5h22q37 0 37 -41q-10 -51 -38 -97t-71 -82t-97 -56.5t-118 -20.5q-68 0 -128 26t-105 71t-70.5 105.5t-25.5 127.5z M717 637h445q0 84 -18.5 143.5t-49.5 96t-72 54t-86 17.5q-39 0 -77.5 -16.5t-70.5 -53t-51.5 -96t-19.5 -145.5z" />
<glyph unicode="&#x178;" horiz-adv-x="729" d="M49 1317q-25 66 23 65h20q23 0 35 -4t20 -22l224 -568l217 568q8 18 21.5 22t33.5 4h21q45 0 36 -26l-14 -39q-74 -203 -121 -324t-74.5 -189.5t-41 -100t-21.5 -58.5v-602q0 -43 -43 -43h-23q-41 0 -40 43v600zM176 1520v22q0 16 10 28.5t31 12.5h22q16 0 29.5 -11 t13.5 -30v-22q0 -43 -43 -43h-22q-41 0 -41 43zM463 1520v22q0 16 10 28.5t31 12.5h22q16 0 29.5 -11t13.5 -30v-22q0 -43 -43 -43h-22q-41 0 -41 43z" />
<glyph unicode="&#x2c6;" horiz-adv-x="618" d="M34 1268.5q1 15.5 13 27.5l238 238q25 25 53 -4l233 -234q29 -31 0 -59l-14 -14q-14 -14 -30.5 -13.5t-28.5 11.5l-189 186l-186 -186q-12 -12 -28.5 -12.5t-28.5 12.5l-19 18q-14 14 -13 29.5z" />
<glyph unicode="&#x2dc;" horiz-adv-x="657" d="M67.5 1523.5q2.5 18.5 10.5 37.5q29 72 73 98.5t78 26.5q37 0 63.5 -18.5t48 -40l40 -40t39.5 -18.5q33 0 51 24.5t35 61.5q10 23 23.5 28t31.5 -4l14 -6q25 -10 20 -35t-15 -39q-39 -59 -73 -89.5t-81 -30.5q-33 0 -60.5 18.5t-50 41t-41 40.5t-32.5 18 q-41 0 -58.5 -24.5t-31.5 -54.5q-12 -37 -25.5 -39t-28.5 4l-10 6q-23 16 -20.5 34.5z" />
<glyph unicode="&#x2000;" horiz-adv-x="918" />
<glyph unicode="&#x2001;" horiz-adv-x="1837" />
<glyph unicode="&#x2002;" horiz-adv-x="918" />
<glyph unicode="&#x2003;" horiz-adv-x="1837" />
<glyph unicode="&#x2004;" horiz-adv-x="612" />
<glyph unicode="&#x2005;" horiz-adv-x="459" />
<glyph unicode="&#x2006;" horiz-adv-x="306" />
<glyph unicode="&#x2007;" horiz-adv-x="306" />
<glyph unicode="&#x2008;" horiz-adv-x="229" />
<glyph unicode="&#x2009;" horiz-adv-x="367" />
<glyph unicode="&#x200a;" horiz-adv-x="102" />
<glyph unicode="&#x2010;" d="M80 541v22q0 41 43 41h573q16 0 28.5 -10t12.5 -31v-22q0 -16 -11 -29.5t-30 -13.5h-573q-43 0 -43 43z" />
<glyph unicode="&#x2011;" d="M80 541v22q0 41 43 41h573q16 0 28.5 -10t12.5 -31v-22q0 -16 -11 -29.5t-30 -13.5h-573q-43 0 -43 43z" />
<glyph unicode="&#x2012;" d="M80 541v22q0 41 43 41h573q16 0 28.5 -10t12.5 -31v-22q0 -16 -11 -29.5t-30 -13.5h-573q-43 0 -43 43z" />
<glyph unicode="&#x2013;" horiz-adv-x="985" d="M25 549v22q0 41 43 41h839q16 0 28.5 -10t12.5 -31v-22q0 -16 -11 -29.5t-30 -13.5h-839q-43 0 -43 43z" />
<glyph unicode="&#x2014;" horiz-adv-x="1437" d="M82 549v22q0 41 43 41h1192q16 0 28.5 -10t12.5 -31v-22q0 -16 -11.5 -29.5t-29.5 -13.5h-1192q-43 0 -43 43z" />
<glyph unicode="&#x2018;" horiz-adv-x="233" d="M61 1167v66q0 41 9.5 71.5t22.5 49t26.5 24.5t21.5 -2l13 -12q6 -8 3 -16.5t-10.5 -18.5t-14.5 -23.5t-7 -31.5v-21q0 -10 1 -15t11 -5q35 -4 35 -41v-25q0 -41 -41 -41h-29q-16 0 -28.5 10.5t-12.5 30.5z" />
<glyph unicode="&#x2019;" horiz-adv-x="229" d="M57 1317v24q0 41 41 41h29q16 0 28.5 -10t12.5 -31v-65q0 -41 -9 -71.5t-22.5 -49t-27 -25t-21.5 2.5l-12 12q-6 8 -3 16t10 18.5t14 24t7 31.5v20q0 10 -1 15.5t-11 5.5q-35 4 -35 41z" />
<glyph unicode="&#x201a;" horiz-adv-x="221" d="M51 41v25q0 41 41 40h29q16 0 28.5 -10t12.5 -30v-66q0 -41 -9.5 -71.5t-22.5 -49t-26.5 -25t-21.5 2.5l-12 12q-6 8 -3 16.5t10 18.5t14 23.5t7 31.5v21q0 10 -1 15t-11 5q-35 4 -35 41z" />
<glyph unicode="&#x201c;" horiz-adv-x="440" d="M74 1167v66q0 41 9 71.5t22.5 49t26.5 24.5t22 -2l12 -12q6 -8 3 -16.5t-10 -18.5t-14.5 -23.5t-7.5 -31.5v-21q0 -10 1 -15t12 -5q35 -4 34 -41v-25q0 -41 -41 -41h-28q-16 0 -28.5 10.5t-12.5 30.5zM258 1167v66q0 41 9 71.5t22.5 49t27 24.5t21.5 -2l12 -12 q6 -8 3 -16.5t-10 -18.5t-14 -23.5t-7 -31.5v-21q0 -10 1 -15t11 -5q35 -4 35 -41v-25q0 -41 -41 -41h-29q-16 0 -28.5 10.5t-12.5 30.5z" />
<glyph unicode="&#x201d;" horiz-adv-x="440" d="M72 1319v24q0 41 41 41h28q16 0 28.5 -10t12.5 -31v-65q0 -41 -9 -71.5t-22.5 -49t-26.5 -25t-22 2.5l-12 12q-6 8 -3 16t10 18.5t14.5 24t7.5 31.5v20q0 10 -1 15.5t-12 5.5q-35 4 -34 41zM256 1319v24q0 41 41 41h29q16 0 28.5 -10t12.5 -31v-65q0 -41 -9.5 -71.5 t-22.5 -49t-26.5 -25t-21.5 2.5l-13 12q-6 8 -3 16t10.5 18.5t14.5 24t7 31.5v20q0 10 -1 15.5t-11 5.5q-35 4 -35 41z" />
<glyph unicode="&#x201e;" horiz-adv-x="432" d="M66 41v25q0 41 40 40h29q16 0 28.5 -10t12.5 -30v-66q0 -41 -9 -71.5t-22.5 -49t-27 -25t-21.5 2.5l-12 12q-6 8 -3 16.5t10 18.5t14.5 23.5t7.5 31.5v21q0 10 -1 15t-12 5q-35 4 -34 41zM250 41v25q0 41 41 40h28q16 0 28.5 -10t12.5 -30v-66q0 -41 -9 -71.5t-22.5 -49 t-26.5 -25t-21 2.5l-13 12q-6 8 -3 16.5t10.5 18.5t14.5 23.5t7 31.5v21q0 10 -1 15t-11 5q-35 4 -35 41z" />
<glyph unicode="&#x2022;" horiz-adv-x="227" d="M63 582q0 23 15.5 38t38.5 15t37 -15.5t14 -37.5q0 -51 -51 -52q-23 0 -38.5 14.5t-15.5 37.5z" />
<glyph unicode="&#x2026;" horiz-adv-x="634" d="M80 43v23q0 16 10 28t31 12h22q16 0 29.5 -11t13.5 -29v-23q0 -43 -43 -43h-22q-41 0 -41 43zM264 43v23q0 16 10.5 28t30.5 12h23q16 0 29.5 -11t13.5 -29v-23q0 -43 -43 -43h-23q-41 0 -41 43zM449 43v23q0 16 10 28t30 12h23q16 0 29.5 -11t13.5 -29v-23 q0 -43 -43 -43h-23q-41 0 -40 43z" />
<glyph unicode="&#x202f;" horiz-adv-x="367" />
<glyph unicode="&#x2039;" horiz-adv-x="671" d="M29 498q-25 25 4 53l481 479q14 12 30.5 11t28.5 -13l15 -14q14 -14 13 -30.5t-11 -29.5l-432 -434l432 -432q12 -12 10 -29.5t-12 -27.5l-17 -17q-14 -14 -30.5 -13t-26.5 11z" />
<glyph unicode="&#x203a;" horiz-adv-x="671" d="M71 982.5q-1 16.5 13 31.5l14 14q29 29 60 2l481 -479q29 -29 4 -53l-485 -486q-10 -10 -26.5 -11t-31.5 13l-16 17q-10 10 -12 27.5t10 29.5l432 432l-432 434q-10 12 -11 28.5z" />
<glyph unicode="&#x205f;" horiz-adv-x="459" />
<glyph unicode="&#x20ac;" horiz-adv-x="860" d="M37 551v22q0 41 43 41h94v209h-94q-43 0 -43 43v23q0 41 43 41h94v162q0 66 24.5 123t66.5 99t99.5 66.5t122.5 24.5q66 0 123.5 -24.5t99.5 -66.5t66.5 -99t24.5 -123q0 -16 -10.5 -28.5t-32.5 -12.5h-17q-14 0 -27.5 11t-13.5 30q0 43 -16 81.5t-46 67.5t-69 45.5 t-82 16.5t-80.5 -16.5t-67.5 -45.5t-46.5 -67.5t-16.5 -81.5v-162h377q16 0 28.5 -10.5t12.5 -30.5v-23q0 -16 -11 -29.5t-30 -13.5h-377v-209h377q16 0 28.5 -10t12.5 -31v-22q0 -16 -11 -29.5t-30 -13.5h-377v-217q0 -43 16.5 -82t46.5 -67.5t67.5 -45t80.5 -16.5t82 16.5 t69 45t46 67.5t16 82q0 16 10.5 28.5t32.5 12.5h17q41 0 41 -41q0 -66 -24.5 -123t-66.5 -99t-99.5 -67t-123.5 -25q-72 0 -130 25t-99 67t-62.5 99t-21.5 123v217h-94q-43 0 -43 43z" />
<glyph unicode="&#xe000;" horiz-adv-x="1024" d="M0 0v1024h1024v-1024h-1024z" />
</font>
</defs>
</svg>
